<ttFont>
    <TTGlyph name="A" xMin="-24" yMin="-9" xMax="608" yMax="662">
      <contour>
        <pt x="130" y="662" on="1"/>
        <pt x="217" y="651" on="0"/>
        <pt x="488" y="651" on="0"/>
        <pt x="593" y="662" on="1"/>
        <pt x="597" y="636" on="1"/>
        <pt x="576" y="626" on="0"/>
        <pt x="547" y="619" on="1"/>
        <pt x="534" y="536" on="0"/>
        <pt x="534" y="129" on="0"/>
        <pt x="548" y="34" on="1"/>
        <pt x="587" y="27" on="0"/>
        <pt x="608" y="17" on="1"/>
        <pt x="605" y="-9" on="1"/>
        <pt x="533" y="0" on="0"/>
        <pt x="364" y="0" on="0"/>
        <pt x="304" y="-9" on="1"/>
        <pt x="300" y="18" on="1"/>
        <pt x="322" y="30" on="0"/>
        <pt x="356" y="37" on="1"/>
        <pt x="364" y="101" on="0"/>
        <pt x="368" y="230" on="1"/>
        <pt x="341" y="234" on="0"/>
        <pt x="246" y="234" on="0"/>
        <pt x="213" y="229" on="1"/>
        <pt x="198" y="132" on="0"/>
        <pt x="198" y="60" on="0"/>
        <pt x="215" y="19" on="0"/>
        <pt x="240" y="9" on="1"/>
        <pt x="237" y="-7" on="1"/>
        <pt x="183" y="0" on="0"/>
        <pt x="34" y="0" on="0"/>
        <pt x="-20" y="-9" on="1"/>
        <pt x="-24" y="18" on="1"/>
        <pt x="-4" y="29" on="0"/>
        <pt x="32" y="37" on="1"/>
        <pt x="184" y="614" on="1"/>
        <pt x="154" y="622" on="0"/>
        <pt x="125" y="636" on="1"/>
      </contour>
      <contour>
        <pt x="369" y="326" on="1"/>
        <pt x="369" y="500" on="0"/>
        <pt x="358" y="593" on="1"/>
        <pt x="346" y="598" on="0"/>
        <pt x="292" y="598" on="0"/>
        <pt x="274" y="593" on="1"/>
        <pt x="223" y="301" on="1"/>
        <pt x="259" y="297" on="0"/>
        <pt x="342" y="297" on="0"/>
        <pt x="369" y="301" on="1"/>
      </contour>
    </TTGlyph>
    <TTGlyph name="AE" xMin="-37" yMin="-15" xMax="745" yMax="664">
      <contour>
        <pt x="147" y="662" on="1"/>
        <pt x="234" y="651" on="0"/>
        <pt x="645" y="651" on="0"/>
        <pt x="739" y="664" on="1"/>
        <pt x="745" y="643" on="1"/>
        <pt x="706" y="591" on="0"/>
        <pt x="703" y="480" on="1"/>
        <pt x="676" y="480" on="1"/>
        <pt x="667" y="526" on="0"/>
        <pt x="667" y="567" on="1"/>
        <pt x="631" y="584" on="0"/>
        <pt x="530" y="584" on="0"/>
        <pt x="513" y="577" on="1"/>
        <pt x="488" y="511" on="0"/>
        <pt x="485" y="382" on="1"/>
        <pt x="519" y="374" on="0"/>
        <pt x="547" y="374" on="1"/>
        <pt x="606" y="374" on="0"/>
        <pt x="637" y="410" on="1"/>
        <pt x="659" y="405" on="1"/>
        <pt x="646" y="366" on="0"/>
        <pt x="646" y="284" on="0"/>
        <pt x="656" y="236" on="1"/>
        <pt x="631" y="232" on="1"/>
        <pt x="617" y="268" on="0"/>
        <pt x="610" y="306" on="1"/>
        <pt x="587" y="312" on="0"/>
        <pt x="519" y="312" on="0"/>
        <pt x="484" y="307" on="1"/>
        <pt x="484" y="152" on="0"/>
        <pt x="508" y="118" on="1"/>
        <pt x="532" y="83" on="0"/>
        <pt x="587" y="83" on="1"/>
        <pt x="665" y="83" on="0"/>
        <pt x="728" y="144" on="1"/>
        <pt x="744" y="129" on="1"/>
        <pt x="655" y="8" on="0"/>
        <pt x="536" y="-15" on="1"/>
        <pt x="476" y="-15" on="0"/>
        <pt x="397" y="17" on="0"/>
        <pt x="355" y="59" on="0"/>
        <pt x="335" y="158" on="0"/>
        <pt x="332" y="231" on="0"/>
        <pt x="332" y="308" on="1"/>
        <pt x="313" y="312" on="0"/>
        <pt x="254" y="312" on="0"/>
        <pt x="222" y="307" on="1"/>
        <pt x="185" y="133" on="0"/>
        <pt x="185" y="60" on="0"/>
        <pt x="202" y="19" on="0"/>
        <pt x="227" y="9" on="1"/>
        <pt x="224" y="-7" on="1"/>
        <pt x="170" y="0" on="0"/>
        <pt x="21" y="0" on="0"/>
        <pt x="-33" y="-9" on="1"/>
        <pt x="-37" y="18" on="1"/>
        <pt x="-17" y="29" on="0"/>
        <pt x="19" y="37" on="1"/>
        <pt x="205" y="614" on="1"/>
        <pt x="167" y="624" on="0"/>
        <pt x="142" y="636" on="1"/>
      </contour>
      <contour>
        <pt x="235" y="377" on="1"/>
        <pt x="255" y="373" on="0"/>
        <pt x="317" y="373" on="0"/>
        <pt x="336" y="377" on="1"/>
        <pt x="355" y="536" on="1"/>
        <pt x="357" y="554" on="0"/>
        <pt x="357" y="582" on="0"/>
        <pt x="355" y="594" on="1"/>
        <pt x="342" y="598" on="0"/>
        <pt x="297" y="598" on="0"/>
        <pt x="282" y="595" on="1"/>
        <pt x="243" y="418" on="0"/>
      </contour>
    </TTGlyph>
    <TTGlyph name="Aacute" xMin="-24" yMin="-9" xMax="608" yMax="896">
      <contour>
        <pt x="130" y="662" on="1"/>
        <pt x="217" y="651" on="0"/>
        <pt x="488" y="651" on="0"/>
        <pt x="593" y="662" on="1"/>
        <pt x="597" y="636" on="1"/>
        <pt x="576" y="626" on="0"/>
        <pt x="547" y="619" on="1"/>
        <pt x="534" y="536" on="0"/>
        <pt x="534" y="129" on="0"/>
        <pt x="548" y="34" on="1"/>
        <pt x="587" y="27" on="0"/>
        <pt x="608" y="17" on="1"/>
        <pt x="605" y="-9" on="1"/>
        <pt x="533" y="0" on="0"/>
        <pt x="364" y="0" on="0"/>
        <pt x="304" y="-9" on="1"/>
        <pt x="300" y="18" on="1"/>
        <pt x="322" y="30" on="0"/>
        <pt x="356" y="37" on="1"/>
        <pt x="364" y="101" on="0"/>
        <pt x="368" y="230" on="1"/>
        <pt x="341" y="234" on="0"/>
        <pt x="246" y="234" on="0"/>
        <pt x="213" y="229" on="1"/>
        <pt x="198" y="132" on="0"/>
        <pt x="198" y="60" on="0"/>
        <pt x="215" y="19" on="0"/>
        <pt x="240" y="9" on="1"/>
        <pt x="237" y="-7" on="1"/>
        <pt x="183" y="0" on="0"/>
        <pt x="34" y="0" on="0"/>
        <pt x="-20" y="-9" on="1"/>
        <pt x="-24" y="18" on="1"/>
        <pt x="-4" y="29" on="0"/>
        <pt x="32" y="37" on="1"/>
        <pt x="184" y="614" on="1"/>
        <pt x="154" y="622" on="0"/>
        <pt x="125" y="636" on="1"/>
      </contour>
      <contour>
        <pt x="369" y="326" on="1"/>
        <pt x="369" y="500" on="0"/>
        <pt x="358" y="593" on="1"/>
        <pt x="346" y="598" on="0"/>
        <pt x="292" y="598" on="0"/>
        <pt x="274" y="593" on="1"/>
        <pt x="223" y="301" on="1"/>
        <pt x="259" y="297" on="0"/>
        <pt x="342" y="297" on="0"/>
        <pt x="369" y="301" on="1"/>
      </contour>
      <contour>
        <pt x="489" y="893" on="1"/>
        <pt x="498" y="896" on="0"/>
        <pt x="530" y="896" on="0"/>
        <pt x="537" y="893" on="1"/>
        <pt x="546" y="877" on="0"/>
        <pt x="561" y="809" on="0"/>
        <pt x="562" y="783" on="1"/>
        <pt x="300" y="717" on="1"/>
        <pt x="290" y="741" on="1"/>
        <pt x="433" y="808" on="0"/>
      </contour>
    </TTGlyph>
    <TTGlyph name="Acircumflex" xMin="-24" yMin="-9" xMax="608" yMax="896">
      <contour>
        <pt x="130" y="662" on="1"/>
        <pt x="217" y="651" on="0"/>
        <pt x="488" y="651" on="0"/>
        <pt x="593" y="662" on="1"/>
        <pt x="597" y="636" on="1"/>
        <pt x="576" y="626" on="0"/>
        <pt x="547" y="619" on="1"/>
        <pt x="534" y="536" on="0"/>
        <pt x="534" y="129" on="0"/>
        <pt x="548" y="34" on="1"/>
        <pt x="587" y="27" on="0"/>
        <pt x="608" y="17" on="1"/>
        <pt x="605" y="-9" on="1"/>
        <pt x="533" y="0" on="0"/>
        <pt x="364" y="0" on="0"/>
        <pt x="304" y="-9" on="1"/>
        <pt x="300" y="18" on="1"/>
        <pt x="322" y="30" on="0"/>
        <pt x="356" y="37" on="1"/>
        <pt x="364" y="101" on="0"/>
        <pt x="368" y="230" on="1"/>
        <pt x="341" y="234" on="0"/>
        <pt x="246" y="234" on="0"/>
        <pt x="213" y="229" on="1"/>
        <pt x="198" y="132" on="0"/>
        <pt x="198" y="60" on="0"/>
        <pt x="215" y="19" on="0"/>
        <pt x="240" y="9" on="1"/>
        <pt x="237" y="-7" on="1"/>
        <pt x="183" y="0" on="0"/>
        <pt x="34" y="0" on="0"/>
        <pt x="-20" y="-9" on="1"/>
        <pt x="-24" y="18" on="1"/>
        <pt x="-4" y="29" on="0"/>
        <pt x="32" y="37" on="1"/>
        <pt x="184" y="614" on="1"/>
        <pt x="154" y="622" on="0"/>
        <pt x="125" y="636" on="1"/>
      </contour>
      <contour>
        <pt x="369" y="326" on="1"/>
        <pt x="369" y="500" on="0"/>
        <pt x="358" y="593" on="1"/>
        <pt x="346" y="598" on="0"/>
        <pt x="292" y="598" on="0"/>
        <pt x="274" y="593" on="1"/>
        <pt x="223" y="301" on="1"/>
        <pt x="259" y="297" on="0"/>
        <pt x="342" y="297" on="0"/>
        <pt x="369" y="301" on="1"/>
      </contour>
      <contour>
        <pt x="340" y="896" on="0"/>
        <pt x="380" y="896" on="0"/>
        <pt x="391" y="893" on="1"/>
        <pt x="448" y="808" on="0"/>
        <pt x="574" y="741" on="1"/>
        <pt x="564" y="717" on="1"/>
        <pt x="360" y="779" on="1"/>
        <pt x="156" y="717" on="1"/>
        <pt x="146" y="741" on="1"/>
        <pt x="272" y="808" on="0"/>
        <pt x="329" y="893" on="1"/>
      </contour>
    </TTGlyph>
    <TTGlyph name="Adieresis" xMin="-24" yMin="-9" xMax="608" yMax="895">
      <contour>
        <pt x="130" y="662" on="1"/>
        <pt x="217" y="651" on="0"/>
        <pt x="488" y="651" on="0"/>
        <pt x="593" y="662" on="1"/>
        <pt x="597" y="636" on="1"/>
        <pt x="576" y="626" on="0"/>
        <pt x="547" y="619" on="1"/>
        <pt x="534" y="536" on="0"/>
        <pt x="534" y="129" on="0"/>
        <pt x="548" y="34" on="1"/>
        <pt x="587" y="27" on="0"/>
        <pt x="608" y="17" on="1"/>
        <pt x="605" y="-9" on="1"/>
        <pt x="533" y="0" on="0"/>
        <pt x="364" y="0" on="0"/>
        <pt x="304" y="-9" on="1"/>
        <pt x="300" y="18" on="1"/>
        <pt x="322" y="30" on="0"/>
        <pt x="356" y="37" on="1"/>
        <pt x="364" y="101" on="0"/>
        <pt x="368" y="230" on="1"/>
        <pt x="341" y="234" on="0"/>
        <pt x="246" y="234" on="0"/>
        <pt x="213" y="229" on="1"/>
        <pt x="198" y="132" on="0"/>
        <pt x="198" y="60" on="0"/>
        <pt x="215" y="19" on="0"/>
        <pt x="240" y="9" on="1"/>
        <pt x="237" y="-7" on="1"/>
        <pt x="183" y="0" on="0"/>
        <pt x="34" y="0" on="0"/>
        <pt x="-20" y="-9" on="1"/>
        <pt x="-24" y="18" on="1"/>
        <pt x="-4" y="29" on="0"/>
        <pt x="32" y="37" on="1"/>
        <pt x="184" y="614" on="1"/>
        <pt x="154" y="622" on="0"/>
        <pt x="125" y="636" on="1"/>
      </contour>
      <contour>
        <pt x="369" y="326" on="1"/>
        <pt x="369" y="500" on="0"/>
        <pt x="358" y="593" on="1"/>
        <pt x="346" y="598" on="0"/>
        <pt x="292" y="598" on="0"/>
        <pt x="274" y="593" on="1"/>
        <pt x="223" y="301" on="1"/>
        <pt x="259" y="297" on="0"/>
        <pt x="342" y="297" on="0"/>
        <pt x="369" y="301" on="1"/>
      </contour>
      <contour>
        <pt x="347" y="819" on="1"/>
        <pt x="337" y="798" on="0"/>
        <pt x="280" y="739" on="0"/>
        <pt x="258" y="724" on="1"/>
        <pt x="236" y="739" on="0"/>
        <pt x="179" y="798" on="0"/>
        <pt x="168" y="819" on="1"/>
        <pt x="180" y="839" on="0"/>
        <pt x="233" y="884" on="0"/>
        <pt x="258" y="895" on="1"/>
        <pt x="281" y="883" on="0"/>
        <pt x="334" y="838" on="0"/>
      </contour>
      <contour>
        <pt x="569" y="819" on="1"/>
        <pt x="559" y="798" on="0"/>
        <pt x="502" y="739" on="0"/>
        <pt x="480" y="724" on="1"/>
        <pt x="458" y="739" on="0"/>
        <pt x="401" y="798" on="0"/>
        <pt x="390" y="819" on="1"/>
        <pt x="402" y="839" on="0"/>
        <pt x="455" y="884" on="0"/>
        <pt x="480" y="895" on="1"/>
        <pt x="503" y="883" on="0"/>
        <pt x="556" y="838" on="0"/>
      </contour>
    </TTGlyph>
    <TTGlyph name="Agrave" xMin="-24" yMin="-9" xMax="608" yMax="896">
      <contour>
        <pt x="130" y="662" on="1"/>
        <pt x="217" y="651" on="0"/>
        <pt x="488" y="651" on="0"/>
        <pt x="593" y="662" on="1"/>
        <pt x="597" y="636" on="1"/>
        <pt x="576" y="626" on="0"/>
        <pt x="547" y="619" on="1"/>
        <pt x="534" y="536" on="0"/>
        <pt x="534" y="129" on="0"/>
        <pt x="548" y="34" on="1"/>
        <pt x="587" y="27" on="0"/>
        <pt x="608" y="17" on="1"/>
        <pt x="605" y="-9" on="1"/>
        <pt x="533" y="0" on="0"/>
        <pt x="364" y="0" on="0"/>
        <pt x="304" y="-9" on="1"/>
        <pt x="300" y="18" on="1"/>
        <pt x="322" y="30" on="0"/>
        <pt x="356" y="37" on="1"/>
        <pt x="364" y="101" on="0"/>
        <pt x="368" y="230" on="1"/>
        <pt x="341" y="234" on="0"/>
        <pt x="246" y="234" on="0"/>
        <pt x="213" y="229" on="1"/>
        <pt x="198" y="132" on="0"/>
        <pt x="198" y="60" on="0"/>
        <pt x="215" y="19" on="0"/>
        <pt x="240" y="9" on="1"/>
        <pt x="237" y="-7" on="1"/>
        <pt x="183" y="0" on="0"/>
        <pt x="34" y="0" on="0"/>
        <pt x="-20" y="-9" on="1"/>
        <pt x="-24" y="18" on="1"/>
        <pt x="-4" y="29" on="0"/>
        <pt x="32" y="37" on="1"/>
        <pt x="184" y="614" on="1"/>
        <pt x="154" y="622" on="0"/>
        <pt x="125" y="636" on="1"/>
      </contour>
      <contour>
        <pt x="369" y="326" on="1"/>
        <pt x="369" y="500" on="0"/>
        <pt x="358" y="593" on="1"/>
        <pt x="346" y="598" on="0"/>
        <pt x="292" y="598" on="0"/>
        <pt x="274" y="593" on="1"/>
        <pt x="223" y="301" on="1"/>
        <pt x="259" y="297" on="0"/>
        <pt x="342" y="297" on="0"/>
        <pt x="369" y="301" on="1"/>
      </contour>
      <contour>
        <pt x="172" y="893" on="1"/>
        <pt x="179" y="896" on="0"/>
        <pt x="210" y="896" on="0"/>
        <pt x="220" y="893" on="1"/>
        <pt x="276" y="808" on="0"/>
        <pt x="419" y="741" on="1"/>
        <pt x="409" y="717" on="1"/>
        <pt x="147" y="783" on="1"/>
        <pt x="148" y="809" on="0"/>
        <pt x="163" y="877" on="0"/>
      </contour>
    </TTGlyph>
    <TTGlyph name="Aring" xMin="-24" yMin="-9" xMax="608" yMax="906">
      <contour>
        <pt x="130" y="662" on="1"/>
        <pt x="217" y="651" on="0"/>
        <pt x="488" y="651" on="0"/>
        <pt x="593" y="662" on="1"/>
        <pt x="597" y="636" on="1"/>
        <pt x="576" y="626" on="0"/>
        <pt x="547" y="619" on="1"/>
        <pt x="534" y="536" on="0"/>
        <pt x="534" y="129" on="0"/>
        <pt x="548" y="34" on="1"/>
        <pt x="587" y="27" on="0"/>
        <pt x="608" y="17" on="1"/>
        <pt x="605" y="-9" on="1"/>
        <pt x="533" y="0" on="0"/>
        <pt x="364" y="0" on="0"/>
        <pt x="304" y="-9" on="1"/>
        <pt x="300" y="18" on="1"/>
        <pt x="322" y="30" on="0"/>
        <pt x="356" y="37" on="1"/>
        <pt x="364" y="101" on="0"/>
        <pt x="368" y="230" on="1"/>
        <pt x="341" y="234" on="0"/>
        <pt x="246" y="234" on="0"/>
        <pt x="213" y="229" on="1"/>
        <pt x="198" y="132" on="0"/>
        <pt x="198" y="60" on="0"/>
        <pt x="215" y="19" on="0"/>
        <pt x="240" y="9" on="1"/>
        <pt x="237" y="-7" on="1"/>
        <pt x="183" y="0" on="0"/>
        <pt x="34" y="0" on="0"/>
        <pt x="-20" y="-9" on="1"/>
        <pt x="-24" y="18" on="1"/>
        <pt x="-4" y="29" on="0"/>
        <pt x="32" y="37" on="1"/>
        <pt x="184" y="614" on="1"/>
        <pt x="154" y="622" on="0"/>
        <pt x="125" y="636" on="1"/>
      </contour>
      <contour>
        <pt x="369" y="326" on="1"/>
        <pt x="369" y="500" on="0"/>
        <pt x="358" y="593" on="1"/>
        <pt x="346" y="598" on="0"/>
        <pt x="292" y="598" on="0"/>
        <pt x="274" y="593" on="1"/>
        <pt x="223" y="301" on="1"/>
        <pt x="259" y="297" on="0"/>
        <pt x="342" y="297" on="0"/>
        <pt x="369" y="301" on="1"/>
      </contour>
      <contour>
        <pt x="322" y="699" on="0"/>
        <pt x="258" y="742" on="0"/>
        <pt x="258" y="828" on="0"/>
        <pt x="325" y="895" on="0"/>
        <pt x="376" y="906" on="1"/>
        <pt x="479" y="906" on="0"/>
        <pt x="479" y="822" on="1"/>
        <pt x="479" y="777" on="0"/>
        <pt x="417" y="713" on="0"/>
        <pt x="369" y="699" on="1"/>
      </contour>
      <contour>
        <pt x="418" y="826" on="0"/>
        <pt x="387" y="858" on="0"/>
        <pt x="337" y="858" on="0"/>
        <pt x="326" y="850" on="1"/>
        <pt x="319" y="832" on="0"/>
        <pt x="319" y="779" on="0"/>
        <pt x="351" y="746" on="0"/>
        <pt x="398" y="746" on="0"/>
        <pt x="411" y="755" on="1"/>
        <pt x="418" y="773" on="0"/>
      </contour>
    </TTGlyph>
    <TTGlyph name="Atilde" xMin="-24" yMin="-9" xMax="608" yMax="896">
      <contour>
        <pt x="130" y="662" on="1"/>
        <pt x="217" y="651" on="0"/>
        <pt x="488" y="651" on="0"/>
        <pt x="593" y="662" on="1"/>
        <pt x="597" y="636" on="1"/>
        <pt x="576" y="626" on="0"/>
        <pt x="547" y="619" on="1"/>
        <pt x="534" y="536" on="0"/>
        <pt x="534" y="129" on="0"/>
        <pt x="548" y="34" on="1"/>
        <pt x="587" y="27" on="0"/>
        <pt x="608" y="17" on="1"/>
        <pt x="605" y="-9" on="1"/>
        <pt x="533" y="0" on="0"/>
        <pt x="364" y="0" on="0"/>
        <pt x="304" y="-9" on="1"/>
        <pt x="300" y="18" on="1"/>
        <pt x="322" y="30" on="0"/>
        <pt x="356" y="37" on="1"/>
        <pt x="364" y="101" on="0"/>
        <pt x="368" y="230" on="1"/>
        <pt x="341" y="234" on="0"/>
        <pt x="246" y="234" on="0"/>
        <pt x="213" y="229" on="1"/>
        <pt x="198" y="132" on="0"/>
        <pt x="198" y="60" on="0"/>
        <pt x="215" y="19" on="0"/>
        <pt x="240" y="9" on="1"/>
        <pt x="237" y="-7" on="1"/>
        <pt x="183" y="0" on="0"/>
        <pt x="34" y="0" on="0"/>
        <pt x="-20" y="-9" on="1"/>
        <pt x="-24" y="18" on="1"/>
        <pt x="-4" y="29" on="0"/>
        <pt x="32" y="37" on="1"/>
        <pt x="184" y="614" on="1"/>
        <pt x="154" y="622" on="0"/>
        <pt x="125" y="636" on="1"/>
      </contour>
      <contour>
        <pt x="369" y="326" on="1"/>
        <pt x="369" y="500" on="0"/>
        <pt x="358" y="593" on="1"/>
        <pt x="346" y="598" on="0"/>
        <pt x="292" y="598" on="0"/>
        <pt x="274" y="593" on="1"/>
        <pt x="223" y="301" on="1"/>
        <pt x="259" y="297" on="0"/>
        <pt x="342" y="297" on="0"/>
        <pt x="369" y="301" on="1"/>
      </contour>
      <contour>
        <pt x="485" y="845" on="1"/>
        <pt x="544" y="845" on="0"/>
        <pt x="571" y="884" on="1"/>
        <pt x="595" y="867" on="1"/>
        <pt x="520" y="765" on="0"/>
        <pt x="457" y="731" on="1"/>
        <pt x="430" y="731" on="0"/>
        <pt x="294" y="783" on="0"/>
        <pt x="265" y="783" on="1"/>
        <pt x="208" y="783" on="0"/>
        <pt x="183" y="744" on="1"/>
        <pt x="159" y="761" on="1"/>
        <pt x="231" y="861" on="0"/>
        <pt x="328" y="896" on="1"/>
        <pt x="407" y="845" on="0"/>
      </contour>
    </TTGlyph>
    <TTGlyph name="B" xMin="21" yMin="-23" xMax="592" yMax="658">
      <contour>
        <pt x="21" y="649" on="1"/>
        <pt x="331" y="658" on="1"/>
        <pt x="455" y="658" on="0"/>
        <pt x="493" y="642" on="1"/>
        <pt x="546" y="620" on="0"/>
        <pt x="558" y="588" on="1"/>
        <pt x="567" y="567" on="0"/>
        <pt x="567" y="539" on="1"/>
        <pt x="567" y="487" on="0"/>
        <pt x="495" y="397" on="0"/>
        <pt x="442" y="374" on="1"/>
        <pt x="442" y="366" on="1"/>
        <pt x="512" y="366" on="0"/>
        <pt x="592" y="302" on="0"/>
        <pt x="592" y="237" on="1"/>
        <pt x="592" y="155" on="0"/>
        <pt x="396" y="1" on="0"/>
        <pt x="300" y="-15" on="1"/>
        <pt x="219" y="-15" on="0"/>
        <pt x="114" y="25" on="1"/>
        <pt x="100" y="8" on="0"/>
        <pt x="89" y="-23" on="1"/>
        <pt x="64" y="-17" on="1"/>
        <pt x="92" y="110" on="0"/>
        <pt x="92" y="518" on="0"/>
        <pt x="79" y="606" on="1"/>
        <pt x="53" y="619" on="0"/>
        <pt x="21" y="622" on="1"/>
      </contour>
      <contour>
        <pt x="313" y="384" on="1"/>
        <pt x="352" y="384" on="0"/>
        <pt x="370" y="397" on="1"/>
        <pt x="392" y="438" on="0"/>
        <pt x="392" y="509" on="1"/>
        <pt x="392" y="609" on="0"/>
        <pt x="307" y="609" on="1"/>
        <pt x="281" y="609" on="0"/>
        <pt x="266" y="604" on="1"/>
        <pt x="257" y="513" on="0"/>
        <pt x="257" y="209" on="0"/>
        <pt x="264" y="92" on="1"/>
        <pt x="295" y="69" on="0"/>
        <pt x="382" y="69" on="0"/>
        <pt x="400" y="82" on="1"/>
        <pt x="415" y="129" on="0"/>
        <pt x="415" y="270" on="0"/>
        <pt x="365" y="342" on="0"/>
        <pt x="294" y="342" on="1"/>
        <pt x="299" y="384" on="1"/>
      </contour>
    </TTGlyph>
    <TTGlyph name="C" xMin="30" yMin="-15" xMax="548" yMax="666">
      <contour>
        <pt x="264" y="101" on="0"/>
        <pt x="310" y="83" on="0"/>
        <pt x="384" y="83" on="0"/>
        <pt x="452" y="113" on="0"/>
        <pt x="493" y="144" on="1"/>
        <pt x="509" y="129" on="1"/>
        <pt x="426" y="23" on="0"/>
        <pt x="311" y="-15" on="1"/>
        <pt x="174" y="-15" on="0"/>
        <pt x="30" y="129" on="0"/>
        <pt x="30" y="406" on="0"/>
        <pt x="198" y="618" on="0"/>
        <pt x="339" y="666" on="1"/>
        <pt x="443" y="666" on="0"/>
        <pt x="548" y="647" on="1"/>
        <pt x="547" y="623" on="1"/>
        <pt x="520" y="623" on="0"/>
        <pt x="498" y="614" on="1"/>
        <pt x="469" y="535" on="0"/>
        <pt x="469" y="456" on="1"/>
        <pt x="442" y="456" on="1"/>
        <pt x="432" y="494" on="0"/>
        <pt x="430" y="540" on="1"/>
        <pt x="385" y="582" on="0"/>
        <pt x="314" y="582" on="1"/>
        <pt x="267" y="582" on="0"/>
        <pt x="245" y="565" on="1"/>
        <pt x="228" y="526" on="0"/>
        <pt x="209" y="390" on="0"/>
        <pt x="209" y="298" on="0"/>
        <pt x="211" y="250" on="0"/>
        <pt x="218" y="181" on="0"/>
        <pt x="236" y="141" on="0"/>
      </contour>
    </TTGlyph>
    <TTGlyph name="Ccedilla" xMin="30" yMin="-235" xMax="548" yMax="666">
      <contour>
        <pt x="264" y="101" on="0"/>
        <pt x="310" y="83" on="0"/>
        <pt x="384" y="83" on="0"/>
        <pt x="452" y="113" on="0"/>
        <pt x="493" y="144" on="1"/>
        <pt x="509" y="129" on="1"/>
        <pt x="426" y="23" on="0"/>
        <pt x="311" y="-15" on="1"/>
        <pt x="174" y="-15" on="0"/>
        <pt x="30" y="129" on="0"/>
        <pt x="30" y="406" on="0"/>
        <pt x="198" y="618" on="0"/>
        <pt x="339" y="666" on="1"/>
        <pt x="443" y="666" on="0"/>
        <pt x="548" y="647" on="1"/>
        <pt x="547" y="623" on="1"/>
        <pt x="520" y="623" on="0"/>
        <pt x="498" y="614" on="1"/>
        <pt x="469" y="535" on="0"/>
        <pt x="469" y="456" on="1"/>
        <pt x="442" y="456" on="1"/>
        <pt x="432" y="494" on="0"/>
        <pt x="430" y="540" on="1"/>
        <pt x="385" y="582" on="0"/>
        <pt x="314" y="582" on="1"/>
        <pt x="267" y="582" on="0"/>
        <pt x="245" y="565" on="1"/>
        <pt x="228" y="526" on="0"/>
        <pt x="209" y="390" on="0"/>
        <pt x="209" y="298" on="0"/>
        <pt x="211" y="250" on="0"/>
        <pt x="218" y="181" on="0"/>
        <pt x="236" y="141" on="0"/>
      </contour>
      <contour>
        <pt x="256" y="-175" on="1"/>
        <pt x="273" y="-175" on="0"/>
        <pt x="285" y="-170" on="1"/>
        <pt x="291" y="-159" on="0"/>
        <pt x="291" y="-147" on="1"/>
        <pt x="291" y="-107" on="0"/>
        <pt x="202" y="-107" on="1"/>
        <pt x="196" y="-103" on="1"/>
        <pt x="234" y="14" on="1"/>
        <pt x="273" y="16" on="1"/>
        <pt x="250" y="-36" on="1"/>
        <pt x="254" y="-39" on="1"/>
        <pt x="368" y="-39" on="0"/>
        <pt x="368" y="-116" on="1"/>
        <pt x="329" y="-191" on="0"/>
        <pt x="246" y="-235" on="1"/>
        <pt x="192" y="-235" on="0"/>
        <pt x="148" y="-214" on="1"/>
        <pt x="175" y="-173" on="0"/>
        <pt x="184" y="-138" on="1"/>
        <pt x="188" y="-136" on="1"/>
        <pt x="212" y="-175" on="0"/>
      </contour>
    </TTGlyph>
    <TTGlyph name="D" xMin="21" yMin="-23" xMax="631" yMax="658">
      <contour>
        <pt x="21" y="649" on="1"/>
        <pt x="341" y="658" on="1"/>
        <pt x="486" y="658" on="0"/>
        <pt x="631" y="526" on="0"/>
        <pt x="631" y="237" on="0"/>
        <pt x="451" y="12" on="0"/>
        <pt x="307" y="-15" on="1"/>
        <pt x="228" y="-15" on="0"/>
        <pt x="114" y="25" on="1"/>
        <pt x="100" y="8" on="0"/>
        <pt x="89" y="-23" on="1"/>
        <pt x="64" y="-17" on="1"/>
        <pt x="92" y="116" on="0"/>
        <pt x="92" y="518" on="0"/>
        <pt x="79" y="606" on="1"/>
        <pt x="53" y="619" on="0"/>
        <pt x="21" y="622" on="1"/>
      </contour>
      <contour>
        <pt x="302" y="609" on="1"/>
        <pt x="281" y="609" on="0"/>
        <pt x="266" y="604" on="1"/>
        <pt x="257" y="503" on="0"/>
        <pt x="257" y="213" on="0"/>
        <pt x="264" y="96" on="1"/>
        <pt x="302" y="69" on="0"/>
        <pt x="388" y="69" on="0"/>
        <pt x="415" y="86" on="1"/>
        <pt x="452" y="176" on="0"/>
        <pt x="452" y="320" on="1"/>
        <pt x="452" y="609" on="0"/>
      </contour>
    </TTGlyph>
    <TTGlyph name="E" xMin="30" yMin="-15" xMax="548" yMax="666">
      <contour>
        <pt x="342" y="83" on="1"/>
        <pt x="384" y="83" on="0"/>
        <pt x="452" y="113" on="0"/>
        <pt x="493" y="144" on="1"/>
        <pt x="509" y="129" on="1"/>
        <pt x="426" y="23" on="0"/>
        <pt x="311" y="-15" on="1"/>
        <pt x="174" y="-15" on="0"/>
        <pt x="30" y="129" on="0"/>
        <pt x="30" y="406" on="0"/>
        <pt x="198" y="618" on="0"/>
        <pt x="339" y="666" on="1"/>
        <pt x="443" y="666" on="0"/>
        <pt x="548" y="647" on="1"/>
        <pt x="547" y="623" on="1"/>
        <pt x="520" y="623" on="0"/>
        <pt x="498" y="614" on="1"/>
        <pt x="469" y="535" on="0"/>
        <pt x="469" y="456" on="1"/>
        <pt x="442" y="456" on="1"/>
        <pt x="432" y="494" on="0"/>
        <pt x="430" y="540" on="1"/>
        <pt x="385" y="582" on="0"/>
        <pt x="314" y="582" on="1"/>
        <pt x="267" y="582" on="0"/>
        <pt x="245" y="565" on="1"/>
        <pt x="218" y="503" on="0"/>
        <pt x="211" y="385" on="1"/>
        <pt x="248" y="375" on="0"/>
        <pt x="378" y="375" on="0"/>
        <pt x="412" y="410" on="1"/>
        <pt x="434" y="405" on="1"/>
        <pt x="421" y="366" on="0"/>
        <pt x="421" y="284" on="0"/>
        <pt x="431" y="236" on="1"/>
        <pt x="406" y="232" on="1"/>
        <pt x="392" y="268" on="0"/>
        <pt x="385" y="306" on="1"/>
        <pt x="354" y="311" on="0"/>
        <pt x="248" y="311" on="0"/>
        <pt x="209" y="306" on="1"/>
        <pt x="209" y="209" on="0"/>
        <pt x="231" y="151" on="1"/>
        <pt x="257" y="83" on="0"/>
      </contour>
    </TTGlyph>
    <TTGlyph name="Eacute" xMin="30" yMin="-15" xMax="548" yMax="896">
      <contour>
        <pt x="342" y="83" on="1"/>
        <pt x="384" y="83" on="0"/>
        <pt x="452" y="113" on="0"/>
        <pt x="493" y="144" on="1"/>
        <pt x="509" y="129" on="1"/>
        <pt x="426" y="23" on="0"/>
        <pt x="311" y="-15" on="1"/>
        <pt x="174" y="-15" on="0"/>
        <pt x="30" y="129" on="0"/>
        <pt x="30" y="406" on="0"/>
        <pt x="198" y="618" on="0"/>
        <pt x="339" y="666" on="1"/>
        <pt x="443" y="666" on="0"/>
        <pt x="548" y="647" on="1"/>
        <pt x="547" y="623" on="1"/>
        <pt x="520" y="623" on="0"/>
        <pt x="498" y="614" on="1"/>
        <pt x="469" y="535" on="0"/>
        <pt x="469" y="456" on="1"/>
        <pt x="442" y="456" on="1"/>
        <pt x="432" y="494" on="0"/>
        <pt x="430" y="540" on="1"/>
        <pt x="385" y="582" on="0"/>
        <pt x="314" y="582" on="1"/>
        <pt x="267" y="582" on="0"/>
        <pt x="245" y="565" on="1"/>
        <pt x="218" y="503" on="0"/>
        <pt x="211" y="385" on="1"/>
        <pt x="248" y="375" on="0"/>
        <pt x="378" y="375" on="0"/>
        <pt x="412" y="410" on="1"/>
        <pt x="434" y="405" on="1"/>
        <pt x="421" y="366" on="0"/>
        <pt x="421" y="284" on="0"/>
        <pt x="431" y="236" on="1"/>
        <pt x="406" y="232" on="1"/>
        <pt x="392" y="268" on="0"/>
        <pt x="385" y="306" on="1"/>
        <pt x="354" y="311" on="0"/>
        <pt x="248" y="311" on="0"/>
        <pt x="209" y="306" on="1"/>
        <pt x="209" y="209" on="0"/>
        <pt x="231" y="151" on="1"/>
        <pt x="257" y="83" on="0"/>
      </contour>
      <contour>
        <pt x="431" y="893" on="1"/>
        <pt x="440" y="896" on="0"/>
        <pt x="472" y="896" on="0"/>
        <pt x="479" y="893" on="1"/>
        <pt x="488" y="877" on="0"/>
        <pt x="503" y="809" on="0"/>
        <pt x="504" y="783" on="1"/>
        <pt x="242" y="717" on="1"/>
        <pt x="232" y="741" on="1"/>
        <pt x="375" y="808" on="0"/>
      </contour>
    </TTGlyph>
    <TTGlyph name="Ecircumflex" xMin="30" yMin="-15" xMax="555" yMax="896">
      <contour>
        <pt x="342" y="83" on="1"/>
        <pt x="384" y="83" on="0"/>
        <pt x="452" y="113" on="0"/>
        <pt x="493" y="144" on="1"/>
        <pt x="509" y="129" on="1"/>
        <pt x="426" y="23" on="0"/>
        <pt x="311" y="-15" on="1"/>
        <pt x="174" y="-15" on="0"/>
        <pt x="30" y="129" on="0"/>
        <pt x="30" y="406" on="0"/>
        <pt x="198" y="618" on="0"/>
        <pt x="339" y="666" on="1"/>
        <pt x="443" y="666" on="0"/>
        <pt x="548" y="647" on="1"/>
        <pt x="547" y="623" on="1"/>
        <pt x="520" y="623" on="0"/>
        <pt x="498" y="614" on="1"/>
        <pt x="469" y="535" on="0"/>
        <pt x="469" y="456" on="1"/>
        <pt x="442" y="456" on="1"/>
        <pt x="432" y="494" on="0"/>
        <pt x="430" y="540" on="1"/>
        <pt x="385" y="582" on="0"/>
        <pt x="314" y="582" on="1"/>
        <pt x="267" y="582" on="0"/>
        <pt x="245" y="565" on="1"/>
        <pt x="218" y="503" on="0"/>
        <pt x="211" y="385" on="1"/>
        <pt x="248" y="375" on="0"/>
        <pt x="378" y="375" on="0"/>
        <pt x="412" y="410" on="1"/>
        <pt x="434" y="405" on="1"/>
        <pt x="421" y="366" on="0"/>
        <pt x="421" y="284" on="0"/>
        <pt x="431" y="236" on="1"/>
        <pt x="406" y="232" on="1"/>
        <pt x="392" y="268" on="0"/>
        <pt x="385" y="306" on="1"/>
        <pt x="354" y="311" on="0"/>
        <pt x="248" y="311" on="0"/>
        <pt x="209" y="306" on="1"/>
        <pt x="209" y="209" on="0"/>
        <pt x="231" y="151" on="1"/>
        <pt x="257" y="83" on="0"/>
      </contour>
      <contour>
        <pt x="320" y="896" on="0"/>
        <pt x="362" y="896" on="0"/>
        <pt x="372" y="893" on="1"/>
        <pt x="429" y="808" on="0"/>
        <pt x="555" y="741" on="1"/>
        <pt x="545" y="717" on="1"/>
        <pt x="341" y="779" on="1"/>
        <pt x="137" y="717" on="1"/>
        <pt x="127" y="741" on="1"/>
        <pt x="253" y="808" on="0"/>
        <pt x="310" y="893" on="1"/>
      </contour>
    </TTGlyph>
    <TTGlyph name="Edieresis" xMin="30" yMin="-15" xMax="548" yMax="895">
      <contour>
        <pt x="342" y="83" on="1"/>
        <pt x="384" y="83" on="0"/>
        <pt x="452" y="113" on="0"/>
        <pt x="493" y="144" on="1"/>
        <pt x="509" y="129" on="1"/>
        <pt x="426" y="23" on="0"/>
        <pt x="311" y="-15" on="1"/>
        <pt x="174" y="-15" on="0"/>
        <pt x="30" y="129" on="0"/>
        <pt x="30" y="406" on="0"/>
        <pt x="198" y="618" on="0"/>
        <pt x="339" y="666" on="1"/>
        <pt x="443" y="666" on="0"/>
        <pt x="548" y="647" on="1"/>
        <pt x="547" y="623" on="1"/>
        <pt x="520" y="623" on="0"/>
        <pt x="498" y="614" on="1"/>
        <pt x="469" y="535" on="0"/>
        <pt x="469" y="456" on="1"/>
        <pt x="442" y="456" on="1"/>
        <pt x="432" y="494" on="0"/>
        <pt x="430" y="540" on="1"/>
        <pt x="385" y="582" on="0"/>
        <pt x="314" y="582" on="1"/>
        <pt x="267" y="582" on="0"/>
        <pt x="245" y="565" on="1"/>
        <pt x="218" y="503" on="0"/>
        <pt x="211" y="385" on="1"/>
        <pt x="248" y="375" on="0"/>
        <pt x="378" y="375" on="0"/>
        <pt x="412" y="410" on="1"/>
        <pt x="434" y="405" on="1"/>
        <pt x="421" y="366" on="0"/>
        <pt x="421" y="284" on="0"/>
        <pt x="431" y="236" on="1"/>
        <pt x="406" y="232" on="1"/>
        <pt x="392" y="268" on="0"/>
        <pt x="385" y="306" on="1"/>
        <pt x="354" y="311" on="0"/>
        <pt x="248" y="311" on="0"/>
        <pt x="209" y="306" on="1"/>
        <pt x="209" y="209" on="0"/>
        <pt x="231" y="151" on="1"/>
        <pt x="257" y="83" on="0"/>
      </contour>
      <contour>
        <pt x="303" y="819" on="1"/>
        <pt x="293" y="798" on="0"/>
        <pt x="236" y="739" on="0"/>
        <pt x="214" y="724" on="1"/>
        <pt x="192" y="739" on="0"/>
        <pt x="135" y="798" on="0"/>
        <pt x="124" y="819" on="1"/>
        <pt x="136" y="839" on="0"/>
        <pt x="189" y="884" on="0"/>
        <pt x="214" y="895" on="1"/>
        <pt x="237" y="883" on="0"/>
        <pt x="290" y="838" on="0"/>
      </contour>
      <contour>
        <pt x="525" y="819" on="1"/>
        <pt x="515" y="798" on="0"/>
        <pt x="458" y="739" on="0"/>
        <pt x="436" y="724" on="1"/>
        <pt x="414" y="739" on="0"/>
        <pt x="357" y="798" on="0"/>
        <pt x="346" y="819" on="1"/>
        <pt x="358" y="839" on="0"/>
        <pt x="411" y="884" on="0"/>
        <pt x="436" y="895" on="1"/>
        <pt x="459" y="883" on="0"/>
        <pt x="512" y="838" on="0"/>
      </contour>
    </TTGlyph>
    <TTGlyph name="Egrave" xMin="30" yMin="-15" xMax="548" yMax="896">
      <contour>
        <pt x="342" y="83" on="1"/>
        <pt x="384" y="83" on="0"/>
        <pt x="452" y="113" on="0"/>
        <pt x="493" y="144" on="1"/>
        <pt x="509" y="129" on="1"/>
        <pt x="426" y="23" on="0"/>
        <pt x="311" y="-15" on="1"/>
        <pt x="174" y="-15" on="0"/>
        <pt x="30" y="129" on="0"/>
        <pt x="30" y="406" on="0"/>
        <pt x="198" y="618" on="0"/>
        <pt x="339" y="666" on="1"/>
        <pt x="443" y="666" on="0"/>
        <pt x="548" y="647" on="1"/>
        <pt x="547" y="623" on="1"/>
        <pt x="520" y="623" on="0"/>
        <pt x="498" y="614" on="1"/>
        <pt x="469" y="535" on="0"/>
        <pt x="469" y="456" on="1"/>
        <pt x="442" y="456" on="1"/>
        <pt x="432" y="494" on="0"/>
        <pt x="430" y="540" on="1"/>
        <pt x="385" y="582" on="0"/>
        <pt x="314" y="582" on="1"/>
        <pt x="267" y="582" on="0"/>
        <pt x="245" y="565" on="1"/>
        <pt x="218" y="503" on="0"/>
        <pt x="211" y="385" on="1"/>
        <pt x="248" y="375" on="0"/>
        <pt x="378" y="375" on="0"/>
        <pt x="412" y="410" on="1"/>
        <pt x="434" y="405" on="1"/>
        <pt x="421" y="366" on="0"/>
        <pt x="421" y="284" on="0"/>
        <pt x="431" y="236" on="1"/>
        <pt x="406" y="232" on="1"/>
        <pt x="392" y="268" on="0"/>
        <pt x="385" y="306" on="1"/>
        <pt x="354" y="311" on="0"/>
        <pt x="248" y="311" on="0"/>
        <pt x="209" y="306" on="1"/>
        <pt x="209" y="209" on="0"/>
        <pt x="231" y="151" on="1"/>
        <pt x="257" y="83" on="0"/>
      </contour>
      <contour>
        <pt x="148" y="893" on="1"/>
        <pt x="156" y="896" on="0"/>
        <pt x="186" y="896" on="0"/>
        <pt x="196" y="893" on="1"/>
        <pt x="252" y="808" on="0"/>
        <pt x="395" y="741" on="1"/>
        <pt x="385" y="717" on="1"/>
        <pt x="123" y="783" on="1"/>
        <pt x="124" y="809" on="0"/>
        <pt x="139" y="877" on="0"/>
      </contour>
    </TTGlyph>
    <TTGlyph name="Eth" xMin="21" yMin="-23" xMax="631" yMax="658">
      <contour>
        <pt x="21" y="649" on="1"/>
        <pt x="341" y="658" on="1"/>
        <pt x="486" y="658" on="0"/>
        <pt x="631" y="526" on="0"/>
        <pt x="631" y="237" on="0"/>
        <pt x="451" y="12" on="0"/>
        <pt x="307" y="-15" on="1"/>
        <pt x="228" y="-15" on="0"/>
        <pt x="114" y="25" on="1"/>
        <pt x="100" y="8" on="0"/>
        <pt x="89" y="-23" on="1"/>
        <pt x="64" y="-17" on="1"/>
        <pt x="90" y="112" on="0"/>
        <pt x="92" y="304" on="1"/>
        <pt x="31" y="301" on="1"/>
        <pt x="22" y="307" on="1"/>
        <pt x="28" y="363" on="1"/>
        <pt x="92" y="363" on="1"/>
        <pt x="89" y="527" on="0"/>
        <pt x="79" y="606" on="1"/>
        <pt x="53" y="619" on="0"/>
        <pt x="21" y="622" on="1"/>
      </contour>
      <contour>
        <pt x="264" y="96" on="1"/>
        <pt x="302" y="69" on="0"/>
        <pt x="388" y="69" on="0"/>
        <pt x="415" y="86" on="1"/>
        <pt x="452" y="176" on="0"/>
        <pt x="452" y="320" on="1"/>
        <pt x="452" y="609" on="0"/>
        <pt x="302" y="609" on="1"/>
        <pt x="281" y="609" on="0"/>
        <pt x="266" y="604" on="1"/>
        <pt x="257" y="514" on="0"/>
        <pt x="257" y="368" on="1"/>
        <pt x="312" y="371" on="0"/>
        <pt x="348" y="376" on="1"/>
        <pt x="356" y="371" on="1"/>
        <pt x="350" y="319" on="1"/>
        <pt x="257" y="314" on="1"/>
        <pt x="257" y="206" on="0"/>
      </contour>
    </TTGlyph>
    <TTGlyph name="Euro" xMin="33" yMin="-15" xMax="502" yMax="538">
      <contour>
        <pt x="420" y="282" on="1"/>
        <pt x="420" y="276" on="1"/>
        <pt x="334" y="276" on="0"/>
        <pt x="249" y="276" on="1"/>
        <pt x="249" y="239" on="1"/>
        <pt x="321" y="239" on="0"/>
        <pt x="413" y="244" on="1"/>
        <pt x="423" y="213" on="0"/>
        <pt x="423" y="212" on="1"/>
        <pt x="423" y="206" on="1"/>
        <pt x="252" y="206" on="1"/>
        <pt x="267" y="93" on="0"/>
        <pt x="347" y="93" on="1"/>
        <pt x="378" y="93" on="0"/>
        <pt x="440" y="138" on="0"/>
        <pt x="458" y="168" on="1"/>
        <pt x="475" y="159" on="1"/>
        <pt x="414" y="35" on="0"/>
        <pt x="310" y="-15" on="1"/>
        <pt x="216" y="-15" on="0"/>
        <pt x="97" y="105" on="0"/>
        <pt x="90" y="200" on="1"/>
        <pt x="36" y="197" on="1"/>
        <pt x="33" y="203" on="1"/>
        <pt x="45" y="223" on="0"/>
        <pt x="50" y="242" on="1"/>
        <pt x="91" y="240" on="1"/>
        <pt x="93" y="262" on="0"/>
        <pt x="95" y="270" on="1"/>
        <pt x="40" y="267" on="1"/>
        <pt x="37" y="273" on="1"/>
        <pt x="49" y="293" on="0"/>
        <pt x="54" y="312" on="1"/>
        <pt x="106" y="309" on="1"/>
        <pt x="134" y="382" on="0"/>
        <pt x="258" y="507" on="0"/>
        <pt x="330" y="538" on="1"/>
        <pt x="426" y="538" on="0"/>
        <pt x="502" y="511" on="1"/>
        <pt x="502" y="495" on="1"/>
        <pt x="453" y="453" on="0"/>
        <pt x="421" y="396" on="0"/>
        <pt x="414" y="352" on="1"/>
        <pt x="390" y="352" on="1"/>
        <pt x="388" y="378" on="0"/>
        <pt x="380" y="407" on="1"/>
        <pt x="334" y="451" on="0"/>
        <pt x="271" y="458" on="1"/>
        <pt x="256" y="379" on="0"/>
        <pt x="250" y="309" on="1"/>
        <pt x="322" y="309" on="0"/>
        <pt x="410" y="314" on="1"/>
        <pt x="420" y="283" on="0"/>
      </contour>
    </TTGlyph>
    <TTGlyph name="F" xMin="39" yMin="-9" xMax="515" yMax="664">
      <contour>
        <pt x="43" y="661" on="1"/>
        <pt x="122" y="651" on="0"/>
        <pt x="415" y="651" on="0"/>
        <pt x="509" y="664" on="1"/>
        <pt x="515" y="643" on="1"/>
        <pt x="476" y="591" on="0"/>
        <pt x="473" y="480" on="1"/>
        <pt x="446" y="480" on="1"/>
        <pt x="437" y="526" on="0"/>
        <pt x="437" y="567" on="1"/>
        <pt x="404" y="584" on="0"/>
        <pt x="302" y="584" on="0"/>
        <pt x="283" y="577" on="1"/>
        <pt x="275" y="477" on="0"/>
        <pt x="275" y="362" on="1"/>
        <pt x="294" y="358" on="0"/>
        <pt x="317" y="358" on="1"/>
        <pt x="393" y="358" on="0"/>
        <pt x="427" y="393" on="1"/>
        <pt x="449" y="388" on="1"/>
        <pt x="436" y="349" on="0"/>
        <pt x="436" y="267" on="0"/>
        <pt x="446" y="219" on="1"/>
        <pt x="421" y="215" on="1"/>
        <pt x="407" y="251" on="0"/>
        <pt x="400" y="289" on="1"/>
        <pt x="369" y="294" on="0"/>
        <pt x="291" y="294" on="0"/>
        <pt x="275" y="292" on="1"/>
        <pt x="276" y="112" on="0"/>
        <pt x="289" y="34" on="1"/>
        <pt x="328" y="27" on="0"/>
        <pt x="349" y="17" on="1"/>
        <pt x="346" y="-9" on="1"/>
        <pt x="274" y="0" on="0"/>
        <pt x="105" y="0" on="0"/>
        <pt x="45" y="-9" on="1"/>
        <pt x="41" y="18" on="1"/>
        <pt x="63" y="30" on="0"/>
        <pt x="97" y="37" on="1"/>
        <pt x="110" y="135" on="0"/>
        <pt x="110" y="503" on="0"/>
        <pt x="95" y="614" on="1"/>
        <pt x="64" y="621" on="0"/>
        <pt x="39" y="634" on="1"/>
      </contour>
    </TTGlyph>
    <TTGlyph name="G" xMin="1" yMin="-15" xMax="533" yMax="666">
      <contour>
        <pt x="235" y="101" on="0"/>
        <pt x="281" y="83" on="0"/>
        <pt x="334" y="83" on="0"/>
        <pt x="352" y="86" on="1"/>
        <pt x="347" y="194" on="1"/>
        <pt x="343" y="240" on="0"/>
        <pt x="338" y="261" on="1"/>
        <pt x="316" y="273" on="0"/>
        <pt x="277" y="280" on="1"/>
        <pt x="280" y="302" on="1"/>
        <pt x="302" y="299" on="0"/>
        <pt x="372" y="299" on="0"/>
        <pt x="480" y="325" on="0"/>
        <pt x="517" y="350" on="1"/>
        <pt x="532" y="333" on="1"/>
        <pt x="509" y="314" on="0"/>
        <pt x="498" y="294" on="1"/>
        <pt x="484" y="152" on="0"/>
        <pt x="476" y="-4" on="1"/>
        <pt x="454" y="-4" on="1"/>
        <pt x="443" y="42" on="0"/>
        <pt x="428" y="73" on="1"/>
        <pt x="359" y="11" on="0"/>
        <pt x="282" y="-15" on="1"/>
        <pt x="145" y="-15" on="0"/>
        <pt x="1" y="129" on="0"/>
        <pt x="1" y="406" on="0"/>
        <pt x="169" y="618" on="0"/>
        <pt x="310" y="666" on="1"/>
        <pt x="420" y="666" on="0"/>
        <pt x="533" y="642" on="1"/>
        <pt x="532" y="618" on="1"/>
        <pt x="506" y="618" on="0"/>
        <pt x="483" y="609" on="1"/>
        <pt x="454" y="530" on="0"/>
        <pt x="454" y="451" on="1"/>
        <pt x="427" y="451" on="1"/>
        <pt x="417" y="489" on="0"/>
        <pt x="415" y="535" on="1"/>
        <pt x="391" y="556" on="0"/>
        <pt x="318" y="582" on="0"/>
        <pt x="238" y="582" on="0"/>
        <pt x="216" y="565" on="1"/>
        <pt x="199" y="526" on="0"/>
        <pt x="180" y="390" on="0"/>
        <pt x="180" y="298" on="0"/>
        <pt x="182" y="250" on="0"/>
        <pt x="189" y="181" on="0"/>
        <pt x="207" y="141" on="0"/>
      </contour>
    </TTGlyph>
    <TTGlyph name="H" xMin="39" yMin="-9" xMax="719" yMax="660">
      <contour>
        <pt x="416" y="660" on="1"/>
        <pt x="475" y="651" on="0"/>
        <pt x="652" y="651" on="0"/>
        <pt x="716" y="660" on="1"/>
        <pt x="719" y="634" on="1"/>
        <pt x="693" y="624" on="0"/>
        <pt x="649" y="617" on="1"/>
        <pt x="634" y="532" on="0"/>
        <pt x="634" y="119" on="0"/>
        <pt x="649" y="34" on="1"/>
        <pt x="693" y="27" on="0"/>
        <pt x="719" y="17" on="1"/>
        <pt x="716" y="-9" on="1"/>
        <pt x="652" y="0" on="0"/>
        <pt x="475" y="0" on="0"/>
        <pt x="416" y="-9" on="1"/>
        <pt x="412" y="18" on="1"/>
        <pt x="431" y="30" on="0"/>
        <pt x="458" y="37" on="1"/>
        <pt x="468" y="139" on="0"/>
        <pt x="469" y="315" on="1"/>
        <pt x="425" y="322" on="0"/>
        <pt x="319" y="322" on="0"/>
        <pt x="275" y="315" on="1"/>
        <pt x="276" y="113" on="0"/>
        <pt x="288" y="34" on="1"/>
        <pt x="327" y="27" on="0"/>
        <pt x="348" y="17" on="1"/>
        <pt x="345" y="-9" on="1"/>
        <pt x="273" y="0" on="0"/>
        <pt x="105" y="0" on="0"/>
        <pt x="45" y="-9" on="1"/>
        <pt x="41" y="18" on="1"/>
        <pt x="63" y="30" on="0"/>
        <pt x="97" y="37" on="1"/>
        <pt x="110" y="135" on="0"/>
        <pt x="110" y="503" on="0"/>
        <pt x="95" y="614" on="1"/>
        <pt x="61" y="621" on="0"/>
        <pt x="39" y="633" on="1"/>
        <pt x="43" y="660" on="1"/>
        <pt x="103" y="651" on="0"/>
        <pt x="271" y="651" on="0"/>
        <pt x="343" y="660" on="1"/>
        <pt x="346" y="634" on="1"/>
        <pt x="325" y="624" on="0"/>
        <pt x="286" y="617" on="1"/>
        <pt x="277" y="557" on="0"/>
        <pt x="275" y="394" on="1"/>
        <pt x="315" y="385" on="0"/>
        <pt x="434" y="385" on="0"/>
        <pt x="469" y="393" on="1"/>
        <pt x="468" y="513" on="0"/>
        <pt x="458" y="614" on="1"/>
        <pt x="431" y="621" on="0"/>
        <pt x="412" y="633" on="1"/>
      </contour>
    </TTGlyph>
    <TTGlyph name="I" xMin="39" yMin="-9" xMax="349" yMax="660">
      <contour>
        <pt x="287" y="617" on="1"/>
        <pt x="275" y="540" on="0"/>
        <pt x="275" y="129" on="0"/>
        <pt x="289" y="34" on="1"/>
        <pt x="328" y="27" on="0"/>
        <pt x="349" y="17" on="1"/>
        <pt x="346" y="-9" on="1"/>
        <pt x="274" y="0" on="0"/>
        <pt x="105" y="0" on="0"/>
        <pt x="45" y="-9" on="1"/>
        <pt x="41" y="18" on="1"/>
        <pt x="63" y="30" on="0"/>
        <pt x="97" y="37" on="1"/>
        <pt x="110" y="135" on="0"/>
        <pt x="110" y="503" on="0"/>
        <pt x="95" y="614" on="1"/>
        <pt x="61" y="621" on="0"/>
        <pt x="39" y="633" on="1"/>
        <pt x="43" y="660" on="1"/>
        <pt x="103" y="651" on="0"/>
        <pt x="272" y="651" on="0"/>
        <pt x="344" y="660" on="1"/>
        <pt x="347" y="634" on="1"/>
        <pt x="326" y="624" on="0"/>
      </contour>
    </TTGlyph>
    <TTGlyph name="IJ" xMin="39" yMin="-182" xMax="731" yMax="660">
      <contour>
        <pt x="287" y="617" on="1"/>
        <pt x="275" y="540" on="0"/>
        <pt x="275" y="129" on="0"/>
        <pt x="289" y="34" on="1"/>
        <pt x="328" y="27" on="0"/>
        <pt x="349" y="17" on="1"/>
        <pt x="346" y="-9" on="1"/>
        <pt x="274" y="0" on="0"/>
        <pt x="105" y="0" on="0"/>
        <pt x="45" y="-9" on="1"/>
        <pt x="41" y="18" on="1"/>
        <pt x="63" y="30" on="0"/>
        <pt x="97" y="37" on="1"/>
        <pt x="110" y="135" on="0"/>
        <pt x="110" y="503" on="0"/>
        <pt x="95" y="614" on="1"/>
        <pt x="61" y="621" on="0"/>
        <pt x="39" y="633" on="1"/>
        <pt x="43" y="660" on="1"/>
        <pt x="103" y="651" on="0"/>
        <pt x="272" y="651" on="0"/>
        <pt x="344" y="660" on="1"/>
        <pt x="347" y="634" on="1"/>
        <pt x="326" y="624" on="0"/>
      </contour>
      <contour>
        <pt x="495" y="164" on="1"/>
        <pt x="495" y="354" on="1"/>
        <pt x="495" y="540" on="0"/>
        <pt x="483" y="617" on="1"/>
        <pt x="444" y="624" on="0"/>
        <pt x="423" y="634" on="1"/>
        <pt x="426" y="660" on="1"/>
        <pt x="498" y="651" on="0"/>
        <pt x="667" y="651" on="0"/>
        <pt x="727" y="660" on="1"/>
        <pt x="731" y="633" on="1"/>
        <pt x="709" y="621" on="0"/>
        <pt x="675" y="614" on="1"/>
        <pt x="660" y="503" on="0"/>
        <pt x="660" y="134" on="0"/>
        <pt x="673" y="37" on="1"/>
        <pt x="572" y="-92" on="0"/>
        <pt x="373" y="-182" on="1"/>
        <pt x="356" y="-161" on="1"/>
        <pt x="436" y="-100" on="0"/>
        <pt x="495" y="51" on="0"/>
      </contour>
    </TTGlyph>
    <TTGlyph name="Iacute" xMin="39" yMin="-9" xMax="362" yMax="896">
      <contour>
        <pt x="287" y="617" on="1"/>
        <pt x="275" y="540" on="0"/>
        <pt x="275" y="129" on="0"/>
        <pt x="289" y="34" on="1"/>
        <pt x="328" y="27" on="0"/>
        <pt x="349" y="17" on="1"/>
        <pt x="346" y="-9" on="1"/>
        <pt x="274" y="0" on="0"/>
        <pt x="105" y="0" on="0"/>
        <pt x="45" y="-9" on="1"/>
        <pt x="41" y="18" on="1"/>
        <pt x="63" y="30" on="0"/>
        <pt x="97" y="37" on="1"/>
        <pt x="110" y="135" on="0"/>
        <pt x="110" y="503" on="0"/>
        <pt x="95" y="614" on="1"/>
        <pt x="61" y="621" on="0"/>
        <pt x="39" y="633" on="1"/>
        <pt x="43" y="660" on="1"/>
        <pt x="103" y="651" on="0"/>
        <pt x="272" y="651" on="0"/>
        <pt x="344" y="660" on="1"/>
        <pt x="347" y="634" on="1"/>
        <pt x="326" y="624" on="0"/>
      </contour>
      <contour>
        <pt x="289" y="893" on="1"/>
        <pt x="298" y="896" on="0"/>
        <pt x="330" y="896" on="0"/>
        <pt x="337" y="893" on="1"/>
        <pt x="346" y="877" on="0"/>
        <pt x="361" y="809" on="0"/>
        <pt x="362" y="783" on="1"/>
        <pt x="100" y="717" on="1"/>
        <pt x="90" y="741" on="1"/>
        <pt x="233" y="808" on="0"/>
      </contour>
    </TTGlyph>
    <TTGlyph name="Icircumflex" xMin="-20" yMin="-9" xMax="408" yMax="896">
      <contour>
        <pt x="287" y="617" on="1"/>
        <pt x="275" y="540" on="0"/>
        <pt x="275" y="129" on="0"/>
        <pt x="289" y="34" on="1"/>
        <pt x="328" y="27" on="0"/>
        <pt x="349" y="17" on="1"/>
        <pt x="346" y="-9" on="1"/>
        <pt x="274" y="0" on="0"/>
        <pt x="105" y="0" on="0"/>
        <pt x="45" y="-9" on="1"/>
        <pt x="41" y="18" on="1"/>
        <pt x="63" y="30" on="0"/>
        <pt x="97" y="37" on="1"/>
        <pt x="110" y="135" on="0"/>
        <pt x="110" y="503" on="0"/>
        <pt x="95" y="614" on="1"/>
        <pt x="61" y="621" on="0"/>
        <pt x="39" y="633" on="1"/>
        <pt x="43" y="660" on="1"/>
        <pt x="103" y="651" on="0"/>
        <pt x="272" y="651" on="0"/>
        <pt x="344" y="660" on="1"/>
        <pt x="347" y="634" on="1"/>
        <pt x="326" y="624" on="0"/>
      </contour>
      <contour>
        <pt x="163" y="893" on="1"/>
        <pt x="173" y="896" on="0"/>
        <pt x="214" y="896" on="0"/>
        <pt x="225" y="893" on="1"/>
        <pt x="282" y="808" on="0"/>
        <pt x="408" y="741" on="1"/>
        <pt x="398" y="717" on="1"/>
        <pt x="194" y="779" on="1"/>
        <pt x="-10" y="717" on="1"/>
        <pt x="-20" y="741" on="1"/>
        <pt x="106" y="808" on="0"/>
      </contour>
    </TTGlyph>
    <TTGlyph name="Idieresis" xMin="-8" yMin="-9" xMax="393" yMax="895">
      <contour>
        <pt x="287" y="617" on="1"/>
        <pt x="275" y="540" on="0"/>
        <pt x="275" y="129" on="0"/>
        <pt x="289" y="34" on="1"/>
        <pt x="328" y="27" on="0"/>
        <pt x="349" y="17" on="1"/>
        <pt x="346" y="-9" on="1"/>
        <pt x="274" y="0" on="0"/>
        <pt x="105" y="0" on="0"/>
        <pt x="45" y="-9" on="1"/>
        <pt x="41" y="18" on="1"/>
        <pt x="63" y="30" on="0"/>
        <pt x="97" y="37" on="1"/>
        <pt x="110" y="135" on="0"/>
        <pt x="110" y="503" on="0"/>
        <pt x="95" y="614" on="1"/>
        <pt x="61" y="621" on="0"/>
        <pt x="39" y="633" on="1"/>
        <pt x="43" y="660" on="1"/>
        <pt x="103" y="651" on="0"/>
        <pt x="272" y="651" on="0"/>
        <pt x="344" y="660" on="1"/>
        <pt x="347" y="634" on="1"/>
        <pt x="326" y="624" on="0"/>
      </contour>
      <contour>
        <pt x="171" y="819" on="1"/>
        <pt x="161" y="798" on="0"/>
        <pt x="104" y="739" on="0"/>
        <pt x="82" y="724" on="1"/>
        <pt x="60" y="739" on="0"/>
        <pt x="3" y="798" on="0"/>
        <pt x="-8" y="819" on="1"/>
        <pt x="4" y="839" on="0"/>
        <pt x="57" y="884" on="0"/>
        <pt x="82" y="895" on="1"/>
        <pt x="105" y="883" on="0"/>
        <pt x="158" y="838" on="0"/>
      </contour>
      <contour>
        <pt x="393" y="819" on="1"/>
        <pt x="383" y="798" on="0"/>
        <pt x="326" y="739" on="0"/>
        <pt x="304" y="724" on="1"/>
        <pt x="282" y="739" on="0"/>
        <pt x="225" y="798" on="0"/>
        <pt x="214" y="819" on="1"/>
        <pt x="226" y="839" on="0"/>
        <pt x="279" y="884" on="0"/>
        <pt x="304" y="895" on="1"/>
        <pt x="327" y="883" on="0"/>
        <pt x="380" y="838" on="0"/>
      </contour>
    </TTGlyph>
    <TTGlyph name="Igrave" xMin="39" yMin="-9" xMax="349" yMax="896">
      <contour>
        <pt x="287" y="617" on="1"/>
        <pt x="275" y="540" on="0"/>
        <pt x="275" y="129" on="0"/>
        <pt x="289" y="34" on="1"/>
        <pt x="328" y="27" on="0"/>
        <pt x="349" y="17" on="1"/>
        <pt x="346" y="-9" on="1"/>
        <pt x="274" y="0" on="0"/>
        <pt x="105" y="0" on="0"/>
        <pt x="45" y="-9" on="1"/>
        <pt x="41" y="18" on="1"/>
        <pt x="63" y="30" on="0"/>
        <pt x="97" y="37" on="1"/>
        <pt x="110" y="135" on="0"/>
        <pt x="110" y="503" on="0"/>
        <pt x="95" y="614" on="1"/>
        <pt x="61" y="621" on="0"/>
        <pt x="39" y="633" on="1"/>
        <pt x="43" y="660" on="1"/>
        <pt x="103" y="651" on="0"/>
        <pt x="272" y="651" on="0"/>
        <pt x="344" y="660" on="1"/>
        <pt x="347" y="634" on="1"/>
        <pt x="326" y="624" on="0"/>
      </contour>
      <contour>
        <pt x="72" y="896" on="0"/>
        <pt x="102" y="896" on="0"/>
        <pt x="113" y="893" on="1"/>
        <pt x="169" y="808" on="0"/>
        <pt x="312" y="741" on="1"/>
        <pt x="302" y="717" on="1"/>
        <pt x="40" y="783" on="1"/>
        <pt x="41" y="809" on="0"/>
        <pt x="56" y="877" on="0"/>
        <pt x="65" y="893" on="1"/>
      </contour>
    </TTGlyph>
    <TTGlyph name="Itilde" xMin="-12" yMin="-9" xMax="424" yMax="896">
      <contour>
        <pt x="287" y="617" on="1"/>
        <pt x="275" y="540" on="0"/>
        <pt x="275" y="129" on="0"/>
        <pt x="289" y="34" on="1"/>
        <pt x="328" y="27" on="0"/>
        <pt x="349" y="17" on="1"/>
        <pt x="346" y="-9" on="1"/>
        <pt x="274" y="0" on="0"/>
        <pt x="105" y="0" on="0"/>
        <pt x="45" y="-9" on="1"/>
        <pt x="41" y="18" on="1"/>
        <pt x="63" y="30" on="0"/>
        <pt x="97" y="37" on="1"/>
        <pt x="110" y="135" on="0"/>
        <pt x="110" y="503" on="0"/>
        <pt x="95" y="614" on="1"/>
        <pt x="61" y="621" on="0"/>
        <pt x="39" y="633" on="1"/>
        <pt x="43" y="660" on="1"/>
        <pt x="103" y="651" on="0"/>
        <pt x="272" y="651" on="0"/>
        <pt x="344" y="660" on="1"/>
        <pt x="347" y="634" on="1"/>
        <pt x="326" y="624" on="0"/>
      </contour>
      <contour>
        <pt x="314" y="845" on="1"/>
        <pt x="373" y="845" on="0"/>
        <pt x="400" y="884" on="1"/>
        <pt x="424" y="867" on="1"/>
        <pt x="349" y="765" on="0"/>
        <pt x="286" y="731" on="1"/>
        <pt x="259" y="731" on="0"/>
        <pt x="123" y="783" on="0"/>
        <pt x="94" y="783" on="1"/>
        <pt x="37" y="783" on="0"/>
        <pt x="12" y="744" on="1"/>
        <pt x="-12" y="761" on="1"/>
        <pt x="60" y="861" on="0"/>
        <pt x="157" y="896" on="1"/>
        <pt x="236" y="845" on="0"/>
      </contour>
    </TTGlyph>
    <TTGlyph name="J" xMin="-29" yMin="-182" xMax="346" yMax="660">
      <contour>
        <pt x="110" y="164" on="1"/>
        <pt x="110" y="354" on="1"/>
        <pt x="110" y="540" on="0"/>
        <pt x="98" y="617" on="1"/>
        <pt x="59" y="624" on="0"/>
        <pt x="38" y="634" on="1"/>
        <pt x="41" y="660" on="1"/>
        <pt x="113" y="651" on="0"/>
        <pt x="282" y="651" on="0"/>
        <pt x="342" y="660" on="1"/>
        <pt x="346" y="633" on="1"/>
        <pt x="324" y="621" on="0"/>
        <pt x="290" y="614" on="1"/>
        <pt x="275" y="503" on="0"/>
        <pt x="275" y="134" on="0"/>
        <pt x="288" y="37" on="1"/>
        <pt x="187" y="-92" on="0"/>
        <pt x="-12" y="-182" on="1"/>
        <pt x="-29" y="-161" on="1"/>
        <pt x="51" y="-100" on="0"/>
        <pt x="110" y="51" on="0"/>
      </contour>
    </TTGlyph>
    <TTGlyph name="Jcircumflex" xMin="-29" yMin="-182" xMax="408" yMax="896">
      <contour>
        <pt x="110" y="164" on="1"/>
        <pt x="110" y="354" on="1"/>
        <pt x="110" y="540" on="0"/>
        <pt x="98" y="617" on="1"/>
        <pt x="59" y="624" on="0"/>
        <pt x="38" y="634" on="1"/>
        <pt x="41" y="660" on="1"/>
        <pt x="113" y="651" on="0"/>
        <pt x="282" y="651" on="0"/>
        <pt x="342" y="660" on="1"/>
        <pt x="346" y="633" on="1"/>
        <pt x="324" y="621" on="0"/>
        <pt x="290" y="614" on="1"/>
        <pt x="275" y="503" on="0"/>
        <pt x="275" y="134" on="0"/>
        <pt x="288" y="37" on="1"/>
        <pt x="187" y="-92" on="0"/>
        <pt x="-12" y="-182" on="1"/>
        <pt x="-29" y="-161" on="1"/>
        <pt x="51" y="-100" on="0"/>
        <pt x="110" y="51" on="0"/>
      </contour>
      <contour>
        <pt x="163" y="893" on="1"/>
        <pt x="173" y="896" on="0"/>
        <pt x="214" y="896" on="0"/>
        <pt x="225" y="893" on="1"/>
        <pt x="282" y="808" on="0"/>
        <pt x="408" y="741" on="1"/>
        <pt x="398" y="717" on="1"/>
        <pt x="194" y="779" on="1"/>
        <pt x="-10" y="717" on="1"/>
        <pt x="-20" y="741" on="1"/>
        <pt x="106" y="808" on="0"/>
      </contour>
    </TTGlyph>
    <TTGlyph name="K" xMin="39" yMin="-9" xMax="698" yMax="660">
      <contour>
        <pt x="694" y="-9" on="1"/>
        <pt x="644" y="0" on="0"/>
        <pt x="474" y="0" on="0"/>
        <pt x="417" y="-5" on="1"/>
        <pt x="414" y="13" on="1"/>
        <pt x="432" y="31" on="0"/>
        <pt x="432" y="109" on="0"/>
        <pt x="398" y="210" on="0"/>
        <pt x="345" y="334" on="1"/>
        <pt x="275" y="262" on="1"/>
        <pt x="278" y="114" on="0"/>
        <pt x="289" y="34" on="1"/>
        <pt x="328" y="27" on="0"/>
        <pt x="349" y="17" on="1"/>
        <pt x="346" y="-9" on="1"/>
        <pt x="274" y="0" on="0"/>
        <pt x="105" y="0" on="0"/>
        <pt x="45" y="-9" on="1"/>
        <pt x="41" y="18" on="1"/>
        <pt x="63" y="30" on="0"/>
        <pt x="97" y="37" on="1"/>
        <pt x="110" y="135" on="0"/>
        <pt x="110" y="503" on="0"/>
        <pt x="95" y="614" on="1"/>
        <pt x="61" y="621" on="0"/>
        <pt x="39" y="633" on="1"/>
        <pt x="43" y="660" on="1"/>
        <pt x="103" y="651" on="0"/>
        <pt x="267" y="651" on="0"/>
        <pt x="330" y="660" on="1"/>
        <pt x="333" y="634" on="1"/>
        <pt x="323" y="628" on="0"/>
        <pt x="287" y="617" on="1"/>
        <pt x="275" y="540" on="0"/>
        <pt x="275" y="329" on="1"/>
        <pt x="341" y="416" on="0"/>
        <pt x="409" y="530" on="0"/>
        <pt x="421" y="573" on="0"/>
        <pt x="421" y="625" on="0"/>
        <pt x="399" y="642" on="1"/>
        <pt x="402" y="658" on="1"/>
        <pt x="456" y="651" on="0"/>
        <pt x="629" y="651" on="0"/>
        <pt x="672" y="660" on="1"/>
        <pt x="676" y="633" on="1"/>
        <pt x="656" y="622" on="0"/>
        <pt x="620" y="614" on="1"/>
        <pt x="437" y="427" on="1"/>
        <pt x="642" y="37" on="1"/>
        <pt x="678" y="29" on="0"/>
        <pt x="698" y="18" on="1"/>
      </contour>
    </TTGlyph>
    <TTGlyph name="L" xMin="39" yMin="-13" xMax="504" yMax="660">
      <contour>
        <pt x="498" y="-13" on="1"/>
        <pt x="404" y="0" on="0"/>
        <pt x="122" y="0" on="0"/>
        <pt x="43" y="-10" on="1"/>
        <pt x="39" y="17" on="1"/>
        <pt x="64" y="30" on="0"/>
        <pt x="95" y="37" on="1"/>
        <pt x="110" y="150" on="0"/>
        <pt x="110" y="503" on="0"/>
        <pt x="95" y="614" on="1"/>
        <pt x="61" y="621" on="0"/>
        <pt x="39" y="633" on="1"/>
        <pt x="43" y="660" on="1"/>
        <pt x="103" y="651" on="0"/>
        <pt x="272" y="651" on="0"/>
        <pt x="344" y="660" on="1"/>
        <pt x="347" y="634" on="1"/>
        <pt x="326" y="624" on="0"/>
        <pt x="287" y="617" on="1"/>
        <pt x="275" y="540" on="0"/>
        <pt x="275" y="150" on="0"/>
        <pt x="283" y="70" on="1"/>
        <pt x="302" y="63" on="0"/>
        <pt x="392" y="63" on="0"/>
        <pt x="419" y="77" on="1"/>
        <pt x="429" y="110" on="0"/>
        <pt x="434" y="167" on="1"/>
        <pt x="463" y="167" on="1"/>
        <pt x="463" y="55" on="0"/>
        <pt x="504" y="8" on="1"/>
      </contour>
    </TTGlyph>
    <TTGlyph name="Ldotaccent" xMin="39" yMin="-13" xMax="504" yMax="660">
      <contour>
        <pt x="481" y="356" on="1"/>
        <pt x="471" y="335" on="0"/>
        <pt x="414" y="276" on="0"/>
        <pt x="392" y="261" on="1"/>
        <pt x="370" y="276" on="0"/>
        <pt x="313" y="335" on="0"/>
        <pt x="302" y="356" on="1"/>
        <pt x="314" y="376" on="0"/>
        <pt x="367" y="421" on="0"/>
        <pt x="392" y="432" on="1"/>
        <pt x="415" y="420" on="0"/>
        <pt x="468" y="375" on="0"/>
      </contour>
      <contour>
        <pt x="498" y="-13" on="1"/>
        <pt x="404" y="0" on="0"/>
        <pt x="122" y="0" on="0"/>
        <pt x="43" y="-10" on="1"/>
        <pt x="39" y="17" on="1"/>
        <pt x="64" y="30" on="0"/>
        <pt x="95" y="37" on="1"/>
        <pt x="110" y="150" on="0"/>
        <pt x="110" y="503" on="0"/>
        <pt x="95" y="614" on="1"/>
        <pt x="61" y="621" on="0"/>
        <pt x="39" y="633" on="1"/>
        <pt x="43" y="660" on="1"/>
        <pt x="103" y="651" on="0"/>
        <pt x="272" y="651" on="0"/>
        <pt x="344" y="660" on="1"/>
        <pt x="347" y="634" on="1"/>
        <pt x="326" y="624" on="0"/>
        <pt x="287" y="617" on="1"/>
        <pt x="275" y="540" on="0"/>
        <pt x="275" y="150" on="0"/>
        <pt x="283" y="70" on="1"/>
        <pt x="302" y="63" on="0"/>
        <pt x="392" y="63" on="0"/>
        <pt x="419" y="77" on="1"/>
        <pt x="429" y="110" on="0"/>
        <pt x="434" y="167" on="1"/>
        <pt x="463" y="167" on="1"/>
        <pt x="463" y="55" on="0"/>
        <pt x="504" y="8" on="1"/>
      </contour>
    </TTGlyph>
    <TTGlyph name="Lslash" xMin="29" yMin="-13" xMax="504" yMax="660">
      <contour>
        <pt x="397" y="417" on="1"/>
        <pt x="405" y="371" on="1"/>
        <pt x="48" y="241" on="1"/>
        <pt x="39" y="245" on="1"/>
        <pt x="29" y="293" on="1"/>
        <pt x="154" y="329" on="0"/>
        <pt x="355" y="402" on="0"/>
        <pt x="390" y="420" on="1"/>
      </contour>
      <contour>
        <pt x="498" y="-13" on="1"/>
        <pt x="404" y="0" on="0"/>
        <pt x="122" y="0" on="0"/>
        <pt x="43" y="-10" on="1"/>
        <pt x="39" y="17" on="1"/>
        <pt x="64" y="30" on="0"/>
        <pt x="95" y="37" on="1"/>
        <pt x="110" y="150" on="0"/>
        <pt x="110" y="503" on="0"/>
        <pt x="95" y="614" on="1"/>
        <pt x="61" y="621" on="0"/>
        <pt x="39" y="633" on="1"/>
        <pt x="43" y="660" on="1"/>
        <pt x="103" y="651" on="0"/>
        <pt x="272" y="651" on="0"/>
        <pt x="344" y="660" on="1"/>
        <pt x="347" y="634" on="1"/>
        <pt x="326" y="624" on="0"/>
        <pt x="287" y="617" on="1"/>
        <pt x="275" y="540" on="0"/>
        <pt x="275" y="150" on="0"/>
        <pt x="283" y="70" on="1"/>
        <pt x="302" y="63" on="0"/>
        <pt x="392" y="63" on="0"/>
        <pt x="419" y="77" on="1"/>
        <pt x="429" y="110" on="0"/>
        <pt x="434" y="167" on="1"/>
        <pt x="463" y="167" on="1"/>
        <pt x="463" y="55" on="0"/>
        <pt x="504" y="8" on="1"/>
      </contour>
    </TTGlyph>
    <TTGlyph name="M" xMin="-4" yMin="-9" xMax="846" yMax="660">
      <contour>
        <pt x="301" y="70" on="1"/>
        <pt x="301" y="144" on="0"/>
        <pt x="235" y="384" on="0"/>
        <pt x="197" y="478" on="1"/>
        <pt x="189" y="477" on="1"/>
        <pt x="177" y="347" on="1"/>
        <pt x="167" y="236" on="0"/>
        <pt x="167" y="109" on="1"/>
        <pt x="167" y="33" on="0"/>
        <pt x="209" y="11" on="1"/>
        <pt x="206" y="-5" on="1"/>
        <pt x="159" y="0" on="0"/>
        <pt x="53" y="0" on="0"/>
        <pt x="0" y="-8" on="1"/>
        <pt x="-4" y="19" on="1"/>
        <pt x="15" y="29" on="0"/>
        <pt x="52" y="37" on="1"/>
        <pt x="147" y="614" on="1"/>
        <pt x="113" y="621" on="0"/>
        <pt x="91" y="633" on="1"/>
        <pt x="95" y="660" on="1"/>
        <pt x="154" y="651" on="0"/>
        <pt x="322" y="651" on="0"/>
        <pt x="380" y="658" on="1"/>
        <pt x="383" y="641" on="1"/>
        <pt x="349" y="632" on="0"/>
        <pt x="349" y="607" on="1"/>
        <pt x="349" y="588" on="0"/>
        <pt x="400" y="364" on="0"/>
        <pt x="418" y="283" on="1"/>
        <pt x="424" y="255" on="1"/>
        <pt x="434" y="258" on="1"/>
        <pt x="437" y="314" on="0"/>
        <pt x="520" y="607" on="1"/>
        <pt x="520" y="632" on="0"/>
        <pt x="494" y="640" on="1"/>
        <pt x="497" y="657" on="1"/>
        <pt x="548" y="651" on="0"/>
        <pt x="722" y="651" on="0"/>
        <pt x="774" y="659" on="1"/>
        <pt x="779" y="634" on="1"/>
        <pt x="759" y="623" on="0"/>
        <pt x="732" y="616" on="1"/>
        <pt x="726" y="588" on="0"/>
        <pt x="726" y="461" on="0"/>
        <pt x="760" y="114" on="0"/>
        <pt x="776" y="34" on="1"/>
        <pt x="820" y="27" on="0"/>
        <pt x="846" y="17" on="1"/>
        <pt x="843" y="-9" on="1"/>
        <pt x="779" y="0" on="0"/>
        <pt x="609" y="0" on="0"/>
        <pt x="550" y="-9" on="1"/>
        <pt x="546" y="18" on="1"/>
        <pt x="565" y="30" on="0"/>
        <pt x="592" y="37" on="1"/>
        <pt x="590" y="268" on="0"/>
        <pt x="559" y="477" on="1"/>
        <pt x="552" y="478" on="1"/>
        <pt x="493" y="295" on="0"/>
        <pt x="463" y="157" on="0"/>
        <pt x="463" y="105" on="1"/>
        <pt x="377" y="75" on="0"/>
        <pt x="313" y="30" on="1"/>
        <pt x="300" y="37" on="1"/>
        <pt x="301" y="48" on="0"/>
      </contour>
    </TTGlyph>
    <TTGlyph name="N" xMin="39" yMin="-9" xMax="680" yMax="660">
      <contour>
        <pt x="43" y="660" on="1"/>
        <pt x="100" y="651" on="0"/>
        <pt x="284" y="651" on="0"/>
        <pt x="335" y="658" on="1"/>
        <pt x="338" y="640" on="1"/>
        <pt x="328" y="637" on="0"/>
        <pt x="314" y="619" on="0"/>
        <pt x="314" y="588" on="0"/>
        <pt x="326" y="548" on="0"/>
        <pt x="418" y="378" on="0"/>
        <pt x="510" y="227" on="1"/>
        <pt x="514" y="229" on="1"/>
        <pt x="514" y="323" on="1"/>
        <pt x="514" y="495" on="0"/>
        <pt x="481" y="624" on="0"/>
        <pt x="421" y="639" on="1"/>
        <pt x="424" y="660" on="1"/>
        <pt x="483" y="651" on="0"/>
        <pt x="617" y="651" on="0"/>
        <pt x="677" y="660" on="1"/>
        <pt x="680" y="634" on="1"/>
        <pt x="654" y="624" on="0"/>
        <pt x="610" y="617" on="1"/>
        <pt x="605" y="592" on="0"/>
        <pt x="595" y="413" on="0"/>
        <pt x="595" y="119" on="0"/>
        <pt x="610" y="34" on="1"/>
        <pt x="648" y="28" on="0"/>
        <pt x="680" y="17" on="1"/>
        <pt x="677" y="-9" on="1"/>
        <pt x="616" y="0" on="0"/>
        <pt x="486" y="0" on="0"/>
        <pt x="433" y="-6" on="1"/>
        <pt x="433" y="37" on="0"/>
        <pt x="349" y="205" on="0"/>
        <pt x="195" y="461" on="1"/>
        <pt x="191" y="459" on="1"/>
        <pt x="191" y="382" on="1"/>
        <pt x="191" y="227" on="0"/>
        <pt x="213" y="66" on="0"/>
        <pt x="250" y="34" on="1"/>
        <pt x="289" y="27" on="0"/>
        <pt x="310" y="17" on="1"/>
        <pt x="307" y="-9" on="1"/>
        <pt x="224" y="0" on="0"/>
        <pt x="105" y="0" on="0"/>
        <pt x="45" y="-9" on="1"/>
        <pt x="41" y="18" on="1"/>
        <pt x="63" y="30" on="0"/>
        <pt x="97" y="37" on="1"/>
        <pt x="110" y="135" on="0"/>
        <pt x="110" y="264" on="1"/>
        <pt x="110" y="494" on="0"/>
        <pt x="95" y="614" on="1"/>
        <pt x="61" y="621" on="0"/>
        <pt x="39" y="633" on="1"/>
      </contour>
    </TTGlyph>
    <TTGlyph name="Nacute" xMin="39" yMin="-9" xMax="680" yMax="896">
      <contour>
        <pt x="43" y="660" on="1"/>
        <pt x="100" y="651" on="0"/>
        <pt x="284" y="651" on="0"/>
        <pt x="335" y="658" on="1"/>
        <pt x="338" y="640" on="1"/>
        <pt x="328" y="637" on="0"/>
        <pt x="314" y="619" on="0"/>
        <pt x="314" y="588" on="0"/>
        <pt x="326" y="548" on="0"/>
        <pt x="418" y="378" on="0"/>
        <pt x="510" y="227" on="1"/>
        <pt x="514" y="229" on="1"/>
        <pt x="514" y="323" on="1"/>
        <pt x="514" y="495" on="0"/>
        <pt x="481" y="624" on="0"/>
        <pt x="421" y="639" on="1"/>
        <pt x="424" y="660" on="1"/>
        <pt x="483" y="651" on="0"/>
        <pt x="617" y="651" on="0"/>
        <pt x="677" y="660" on="1"/>
        <pt x="680" y="634" on="1"/>
        <pt x="654" y="624" on="0"/>
        <pt x="610" y="617" on="1"/>
        <pt x="605" y="592" on="0"/>
        <pt x="595" y="413" on="0"/>
        <pt x="595" y="119" on="0"/>
        <pt x="610" y="34" on="1"/>
        <pt x="648" y="28" on="0"/>
        <pt x="680" y="17" on="1"/>
        <pt x="677" y="-9" on="1"/>
        <pt x="616" y="0" on="0"/>
        <pt x="486" y="0" on="0"/>
        <pt x="433" y="-6" on="1"/>
        <pt x="433" y="37" on="0"/>
        <pt x="349" y="205" on="0"/>
        <pt x="195" y="461" on="1"/>
        <pt x="191" y="459" on="1"/>
        <pt x="191" y="382" on="1"/>
        <pt x="191" y="227" on="0"/>
        <pt x="213" y="66" on="0"/>
        <pt x="250" y="34" on="1"/>
        <pt x="289" y="27" on="0"/>
        <pt x="310" y="17" on="1"/>
        <pt x="307" y="-9" on="1"/>
        <pt x="224" y="0" on="0"/>
        <pt x="105" y="0" on="0"/>
        <pt x="45" y="-9" on="1"/>
        <pt x="41" y="18" on="1"/>
        <pt x="63" y="30" on="0"/>
        <pt x="97" y="37" on="1"/>
        <pt x="110" y="135" on="0"/>
        <pt x="110" y="264" on="1"/>
        <pt x="110" y="494" on="0"/>
        <pt x="95" y="614" on="1"/>
        <pt x="61" y="621" on="0"/>
        <pt x="39" y="633" on="1"/>
      </contour>
      <contour>
        <pt x="504" y="893" on="1"/>
        <pt x="513" y="896" on="0"/>
        <pt x="544" y="896" on="0"/>
        <pt x="552" y="893" on="1"/>
        <pt x="561" y="877" on="0"/>
        <pt x="576" y="809" on="0"/>
        <pt x="577" y="783" on="1"/>
        <pt x="315" y="717" on="1"/>
        <pt x="305" y="741" on="1"/>
        <pt x="448" y="808" on="0"/>
      </contour>
    </TTGlyph>
    <TTGlyph name="Ntilde" xMin="39" yMin="-9" xMax="680" yMax="896">
      <contour>
        <pt x="43" y="660" on="1"/>
        <pt x="100" y="651" on="0"/>
        <pt x="284" y="651" on="0"/>
        <pt x="335" y="658" on="1"/>
        <pt x="338" y="640" on="1"/>
        <pt x="328" y="637" on="0"/>
        <pt x="314" y="619" on="0"/>
        <pt x="314" y="588" on="0"/>
        <pt x="326" y="548" on="0"/>
        <pt x="418" y="378" on="0"/>
        <pt x="510" y="227" on="1"/>
        <pt x="514" y="229" on="1"/>
        <pt x="514" y="323" on="1"/>
        <pt x="514" y="495" on="0"/>
        <pt x="481" y="624" on="0"/>
        <pt x="421" y="639" on="1"/>
        <pt x="424" y="660" on="1"/>
        <pt x="483" y="651" on="0"/>
        <pt x="617" y="651" on="0"/>
        <pt x="677" y="660" on="1"/>
        <pt x="680" y="634" on="1"/>
        <pt x="654" y="624" on="0"/>
        <pt x="610" y="617" on="1"/>
        <pt x="605" y="592" on="0"/>
        <pt x="595" y="413" on="0"/>
        <pt x="595" y="119" on="0"/>
        <pt x="610" y="34" on="1"/>
        <pt x="648" y="28" on="0"/>
        <pt x="680" y="17" on="1"/>
        <pt x="677" y="-9" on="1"/>
        <pt x="616" y="0" on="0"/>
        <pt x="486" y="0" on="0"/>
        <pt x="433" y="-6" on="1"/>
        <pt x="433" y="37" on="0"/>
        <pt x="349" y="205" on="0"/>
        <pt x="195" y="461" on="1"/>
        <pt x="191" y="459" on="1"/>
        <pt x="191" y="382" on="1"/>
        <pt x="191" y="227" on="0"/>
        <pt x="213" y="66" on="0"/>
        <pt x="250" y="34" on="1"/>
        <pt x="289" y="27" on="0"/>
        <pt x="310" y="17" on="1"/>
        <pt x="307" y="-9" on="1"/>
        <pt x="224" y="0" on="0"/>
        <pt x="105" y="0" on="0"/>
        <pt x="45" y="-9" on="1"/>
        <pt x="41" y="18" on="1"/>
        <pt x="63" y="30" on="0"/>
        <pt x="97" y="37" on="1"/>
        <pt x="110" y="135" on="0"/>
        <pt x="110" y="264" on="1"/>
        <pt x="110" y="494" on="0"/>
        <pt x="95" y="614" on="1"/>
        <pt x="61" y="621" on="0"/>
        <pt x="39" y="633" on="1"/>
      </contour>
      <contour>
        <pt x="486" y="845" on="1"/>
        <pt x="545" y="845" on="0"/>
        <pt x="572" y="884" on="1"/>
        <pt x="596" y="867" on="1"/>
        <pt x="521" y="765" on="0"/>
        <pt x="458" y="731" on="1"/>
        <pt x="431" y="731" on="0"/>
        <pt x="295" y="783" on="0"/>
        <pt x="266" y="783" on="1"/>
        <pt x="209" y="783" on="0"/>
        <pt x="184" y="744" on="1"/>
        <pt x="160" y="761" on="1"/>
        <pt x="232" y="861" on="0"/>
        <pt x="329" y="896" on="1"/>
        <pt x="408" y="845" on="0"/>
      </contour>
    </TTGlyph>
    <TTGlyph name="O" xMin="30" yMin="-15" xMax="618" yMax="666">
      <contour>
        <pt x="186" y="-15" on="0"/>
        <pt x="30" y="139" on="0"/>
        <pt x="30" y="407" on="0"/>
        <pt x="197" y="618" on="0"/>
        <pt x="338" y="666" on="1"/>
        <pt x="476" y="666" on="0"/>
        <pt x="618" y="525" on="0"/>
        <pt x="618" y="244" on="0"/>
        <pt x="462" y="33" on="0"/>
        <pt x="324" y="-15" on="1"/>
      </contour>
      <contour>
        <pt x="356" y="571" on="1"/>
        <pt x="333" y="582" on="0"/>
        <pt x="269" y="582" on="0"/>
        <pt x="246" y="566" on="1"/>
        <pt x="209" y="480" on="0"/>
        <pt x="209" y="339" on="1"/>
        <pt x="209" y="239" on="0"/>
        <pt x="234" y="162" on="1"/>
        <pt x="248" y="119" on="0"/>
        <pt x="305" y="69" on="0"/>
        <pt x="377" y="69" on="0"/>
        <pt x="402" y="86" on="1"/>
        <pt x="439" y="171" on="0"/>
        <pt x="439" y="310" on="1"/>
        <pt x="439" y="442" on="0"/>
        <pt x="418" y="494" on="1"/>
        <pt x="395" y="553" on="0"/>
      </contour>
    </TTGlyph>
    <TTGlyph name="OE" xMin="30" yMin="-15" xMax="799" yMax="666">
      <contour>
        <pt x="641" y="83" on="1"/>
        <pt x="719" y="83" on="0"/>
        <pt x="782" y="144" on="1"/>
        <pt x="798" y="129" on="1"/>
        <pt x="712" y="19" on="0"/>
        <pt x="610" y="-15" on="1"/>
        <pt x="487" y="-15" on="0"/>
        <pt x="431" y="57" on="1"/>
        <pt x="359" y="3" on="0"/>
        <pt x="274" y="-15" on="1"/>
        <pt x="156" y="-15" on="0"/>
        <pt x="30" y="139" on="0"/>
        <pt x="30" y="406" on="0"/>
        <pt x="198" y="618" on="0"/>
        <pt x="339" y="666" on="1"/>
        <pt x="395" y="666" on="0"/>
        <pt x="534" y="651" on="0"/>
        <pt x="699" y="651" on="0"/>
        <pt x="793" y="664" on="1"/>
        <pt x="799" y="643" on="1"/>
        <pt x="760" y="591" on="0"/>
        <pt x="757" y="480" on="1"/>
        <pt x="730" y="480" on="1"/>
        <pt x="721" y="526" on="0"/>
        <pt x="721" y="567" on="1"/>
        <pt x="685" y="584" on="0"/>
        <pt x="584" y="584" on="0"/>
        <pt x="567" y="577" on="1"/>
        <pt x="542" y="511" on="0"/>
        <pt x="539" y="382" on="1"/>
        <pt x="568" y="375" on="0"/>
        <pt x="601" y="375" on="1"/>
        <pt x="661" y="375" on="0"/>
        <pt x="691" y="410" on="1"/>
        <pt x="713" y="405" on="1"/>
        <pt x="700" y="366" on="0"/>
        <pt x="700" y="284" on="0"/>
        <pt x="710" y="236" on="1"/>
        <pt x="685" y="232" on="1"/>
        <pt x="671" y="268" on="0"/>
        <pt x="664" y="306" on="1"/>
        <pt x="645" y="311" on="0"/>
        <pt x="566" y="311" on="0"/>
        <pt x="538" y="307" on="1"/>
        <pt x="538" y="152" on="0"/>
        <pt x="562" y="118" on="1"/>
        <pt x="586" y="83" on="0"/>
      </contour>
      <contour>
        <pt x="376" y="93" on="0"/>
        <pt x="387" y="164" on="0"/>
        <pt x="387" y="321" on="0"/>
        <pt x="399" y="561" on="1"/>
        <pt x="359" y="582" on="0"/>
        <pt x="267" y="582" on="0"/>
        <pt x="245" y="565" on="1"/>
        <pt x="228" y="526" on="0"/>
        <pt x="209" y="390" on="0"/>
        <pt x="209" y="298" on="0"/>
        <pt x="211" y="250" on="0"/>
        <pt x="218" y="181" on="0"/>
        <pt x="236" y="141" on="0"/>
        <pt x="250" y="121" on="1"/>
        <pt x="277" y="83" on="0"/>
        <pt x="342" y="83" on="1"/>
        <pt x="359" y="83" on="1"/>
      </contour>
    </TTGlyph>
    <TTGlyph name="Oacute" xMin="30" yMin="-15" xMax="618" yMax="896">
      <contour>
        <pt x="186" y="-15" on="0"/>
        <pt x="30" y="139" on="0"/>
        <pt x="30" y="407" on="0"/>
        <pt x="197" y="618" on="0"/>
        <pt x="338" y="666" on="1"/>
        <pt x="476" y="666" on="0"/>
        <pt x="618" y="525" on="0"/>
        <pt x="618" y="244" on="0"/>
        <pt x="462" y="33" on="0"/>
        <pt x="324" y="-15" on="1"/>
      </contour>
      <contour>
        <pt x="356" y="571" on="1"/>
        <pt x="333" y="582" on="0"/>
        <pt x="269" y="582" on="0"/>
        <pt x="246" y="566" on="1"/>
        <pt x="209" y="480" on="0"/>
        <pt x="209" y="339" on="1"/>
        <pt x="209" y="239" on="0"/>
        <pt x="234" y="162" on="1"/>
        <pt x="248" y="119" on="0"/>
        <pt x="305" y="69" on="0"/>
        <pt x="377" y="69" on="0"/>
        <pt x="402" y="86" on="1"/>
        <pt x="439" y="171" on="0"/>
        <pt x="439" y="310" on="1"/>
        <pt x="439" y="442" on="0"/>
        <pt x="418" y="494" on="1"/>
        <pt x="395" y="553" on="0"/>
      </contour>
      <contour>
        <pt x="463" y="893" on="1"/>
        <pt x="472" y="896" on="0"/>
        <pt x="504" y="896" on="0"/>
        <pt x="511" y="893" on="1"/>
        <pt x="520" y="877" on="0"/>
        <pt x="535" y="809" on="0"/>
        <pt x="536" y="783" on="1"/>
        <pt x="274" y="717" on="1"/>
        <pt x="264" y="741" on="1"/>
        <pt x="407" y="808" on="0"/>
      </contour>
    </TTGlyph>
    <TTGlyph name="Ocircumflex" xMin="30" yMin="-15" xMax="618" yMax="896">
      <contour>
        <pt x="186" y="-15" on="0"/>
        <pt x="30" y="139" on="0"/>
        <pt x="30" y="407" on="0"/>
        <pt x="197" y="618" on="0"/>
        <pt x="338" y="666" on="1"/>
        <pt x="476" y="666" on="0"/>
        <pt x="618" y="525" on="0"/>
        <pt x="618" y="244" on="0"/>
        <pt x="462" y="33" on="0"/>
        <pt x="324" y="-15" on="1"/>
      </contour>
      <contour>
        <pt x="356" y="571" on="1"/>
        <pt x="333" y="582" on="0"/>
        <pt x="269" y="582" on="0"/>
        <pt x="246" y="566" on="1"/>
        <pt x="209" y="480" on="0"/>
        <pt x="209" y="339" on="1"/>
        <pt x="209" y="239" on="0"/>
        <pt x="234" y="162" on="1"/>
        <pt x="248" y="119" on="0"/>
        <pt x="305" y="69" on="0"/>
        <pt x="377" y="69" on="0"/>
        <pt x="402" y="86" on="1"/>
        <pt x="439" y="171" on="0"/>
        <pt x="439" y="310" on="1"/>
        <pt x="439" y="442" on="0"/>
        <pt x="418" y="494" on="1"/>
        <pt x="395" y="553" on="0"/>
      </contour>
      <contour>
        <pt x="326" y="896" on="0"/>
        <pt x="368" y="896" on="0"/>
        <pt x="378" y="893" on="1"/>
        <pt x="435" y="808" on="0"/>
        <pt x="561" y="741" on="1"/>
        <pt x="551" y="717" on="1"/>
        <pt x="347" y="779" on="1"/>
        <pt x="143" y="717" on="1"/>
        <pt x="133" y="741" on="1"/>
        <pt x="259" y="808" on="0"/>
        <pt x="316" y="893" on="1"/>
      </contour>
    </TTGlyph>
    <TTGlyph name="Odieresis" xMin="30" yMin="-15" xMax="618" yMax="895">
      <contour>
        <pt x="186" y="-15" on="0"/>
        <pt x="30" y="139" on="0"/>
        <pt x="30" y="407" on="0"/>
        <pt x="197" y="618" on="0"/>
        <pt x="338" y="666" on="1"/>
        <pt x="476" y="666" on="0"/>
        <pt x="618" y="525" on="0"/>
        <pt x="618" y="244" on="0"/>
        <pt x="462" y="33" on="0"/>
        <pt x="324" y="-15" on="1"/>
      </contour>
      <contour>
        <pt x="356" y="571" on="1"/>
        <pt x="333" y="582" on="0"/>
        <pt x="269" y="582" on="0"/>
        <pt x="246" y="566" on="1"/>
        <pt x="209" y="480" on="0"/>
        <pt x="209" y="339" on="1"/>
        <pt x="209" y="239" on="0"/>
        <pt x="234" y="162" on="1"/>
        <pt x="248" y="119" on="0"/>
        <pt x="305" y="69" on="0"/>
        <pt x="377" y="69" on="0"/>
        <pt x="402" y="86" on="1"/>
        <pt x="439" y="171" on="0"/>
        <pt x="439" y="310" on="1"/>
        <pt x="439" y="442" on="0"/>
        <pt x="418" y="494" on="1"/>
        <pt x="395" y="553" on="0"/>
      </contour>
      <contour>
        <pt x="316" y="819" on="1"/>
        <pt x="306" y="798" on="0"/>
        <pt x="249" y="739" on="0"/>
        <pt x="227" y="724" on="1"/>
        <pt x="205" y="739" on="0"/>
        <pt x="148" y="798" on="0"/>
        <pt x="137" y="819" on="1"/>
        <pt x="149" y="839" on="0"/>
        <pt x="202" y="884" on="0"/>
        <pt x="227" y="895" on="1"/>
        <pt x="250" y="883" on="0"/>
        <pt x="303" y="838" on="0"/>
      </contour>
      <contour>
        <pt x="538" y="819" on="1"/>
        <pt x="528" y="798" on="0"/>
        <pt x="471" y="739" on="0"/>
        <pt x="449" y="724" on="1"/>
        <pt x="427" y="739" on="0"/>
        <pt x="370" y="798" on="0"/>
        <pt x="359" y="819" on="1"/>
        <pt x="371" y="839" on="0"/>
        <pt x="424" y="884" on="0"/>
        <pt x="449" y="895" on="1"/>
        <pt x="472" y="883" on="0"/>
        <pt x="525" y="838" on="0"/>
      </contour>
    </TTGlyph>
    <TTGlyph name="Ograve" xMin="30" yMin="-15" xMax="618" yMax="896">
      <contour>
        <pt x="186" y="-15" on="0"/>
        <pt x="30" y="139" on="0"/>
        <pt x="30" y="407" on="0"/>
        <pt x="197" y="618" on="0"/>
        <pt x="338" y="666" on="1"/>
        <pt x="476" y="666" on="0"/>
        <pt x="618" y="525" on="0"/>
        <pt x="618" y="244" on="0"/>
        <pt x="462" y="33" on="0"/>
        <pt x="324" y="-15" on="1"/>
      </contour>
      <contour>
        <pt x="356" y="571" on="1"/>
        <pt x="333" y="582" on="0"/>
        <pt x="269" y="582" on="0"/>
        <pt x="246" y="566" on="1"/>
        <pt x="209" y="480" on="0"/>
        <pt x="209" y="339" on="1"/>
        <pt x="209" y="239" on="0"/>
        <pt x="234" y="162" on="1"/>
        <pt x="248" y="119" on="0"/>
        <pt x="305" y="69" on="0"/>
        <pt x="377" y="69" on="0"/>
        <pt x="402" y="86" on="1"/>
        <pt x="439" y="171" on="0"/>
        <pt x="439" y="310" on="1"/>
        <pt x="439" y="442" on="0"/>
        <pt x="418" y="494" on="1"/>
        <pt x="395" y="553" on="0"/>
      </contour>
      <contour>
        <pt x="142" y="896" on="0"/>
        <pt x="172" y="896" on="0"/>
        <pt x="183" y="893" on="1"/>
        <pt x="239" y="808" on="0"/>
        <pt x="382" y="741" on="1"/>
        <pt x="372" y="717" on="1"/>
        <pt x="110" y="783" on="1"/>
        <pt x="111" y="809" on="0"/>
        <pt x="126" y="877" on="0"/>
        <pt x="135" y="893" on="1"/>
      </contour>
    </TTGlyph>
    <TTGlyph name="Oslash" xMin="30" yMin="-90" xMax="618" yMax="740">
      <contour>
        <pt x="185" y="-90" on="1"/>
        <pt x="180" y="-90" on="1"/>
        <pt x="157" y="-80" on="0"/>
        <pt x="140" y="-60" on="1"/>
        <pt x="178" y="25" on="0"/>
        <pt x="237" y="178" on="1"/>
        <pt x="351" y="477" on="1"/>
        <pt x="403" y="613" on="0"/>
        <pt x="442" y="732" on="1"/>
        <pt x="470" y="734" on="0"/>
        <pt x="497" y="740" on="1"/>
        <pt x="501" y="737" on="1"/>
        <pt x="473" y="673" on="0"/>
        <pt x="405" y="491" on="1"/>
      </contour>
      <contour>
        <pt x="186" y="-15" on="0"/>
        <pt x="30" y="139" on="0"/>
        <pt x="30" y="407" on="0"/>
        <pt x="197" y="618" on="0"/>
        <pt x="338" y="666" on="1"/>
        <pt x="476" y="666" on="0"/>
        <pt x="618" y="525" on="0"/>
        <pt x="618" y="244" on="0"/>
        <pt x="462" y="33" on="0"/>
        <pt x="324" y="-15" on="1"/>
      </contour>
      <contour>
        <pt x="356" y="571" on="1"/>
        <pt x="333" y="582" on="0"/>
        <pt x="269" y="582" on="0"/>
        <pt x="246" y="566" on="1"/>
        <pt x="209" y="480" on="0"/>
        <pt x="209" y="339" on="1"/>
        <pt x="209" y="239" on="0"/>
        <pt x="234" y="162" on="1"/>
        <pt x="248" y="119" on="0"/>
        <pt x="305" y="69" on="0"/>
        <pt x="377" y="69" on="0"/>
        <pt x="402" y="86" on="1"/>
        <pt x="439" y="171" on="0"/>
        <pt x="439" y="310" on="1"/>
        <pt x="439" y="442" on="0"/>
        <pt x="418" y="494" on="1"/>
        <pt x="395" y="553" on="0"/>
      </contour>
    </TTGlyph>
    <TTGlyph name="Otilde" xMin="30" yMin="-15" xMax="618" yMax="896">
      <contour>
        <pt x="186" y="-15" on="0"/>
        <pt x="30" y="139" on="0"/>
        <pt x="30" y="407" on="0"/>
        <pt x="197" y="618" on="0"/>
        <pt x="338" y="666" on="1"/>
        <pt x="476" y="666" on="0"/>
        <pt x="618" y="525" on="0"/>
        <pt x="618" y="244" on="0"/>
        <pt x="462" y="33" on="0"/>
        <pt x="324" y="-15" on="1"/>
      </contour>
      <contour>
        <pt x="356" y="571" on="1"/>
        <pt x="333" y="582" on="0"/>
        <pt x="269" y="582" on="0"/>
        <pt x="246" y="566" on="1"/>
        <pt x="209" y="480" on="0"/>
        <pt x="209" y="339" on="1"/>
        <pt x="209" y="239" on="0"/>
        <pt x="234" y="162" on="1"/>
        <pt x="248" y="119" on="0"/>
        <pt x="305" y="69" on="0"/>
        <pt x="377" y="69" on="0"/>
        <pt x="402" y="86" on="1"/>
        <pt x="439" y="171" on="0"/>
        <pt x="439" y="310" on="1"/>
        <pt x="439" y="442" on="0"/>
        <pt x="418" y="494" on="1"/>
        <pt x="395" y="553" on="0"/>
      </contour>
      <contour>
        <pt x="463" y="845" on="1"/>
        <pt x="522" y="845" on="0"/>
        <pt x="549" y="884" on="1"/>
        <pt x="573" y="867" on="1"/>
        <pt x="498" y="765" on="0"/>
        <pt x="435" y="731" on="1"/>
        <pt x="408" y="731" on="0"/>
        <pt x="272" y="783" on="0"/>
        <pt x="243" y="783" on="1"/>
        <pt x="186" y="783" on="0"/>
        <pt x="161" y="744" on="1"/>
        <pt x="137" y="761" on="1"/>
        <pt x="209" y="861" on="0"/>
        <pt x="306" y="896" on="1"/>
        <pt x="385" y="845" on="0"/>
      </contour>
    </TTGlyph>
    <TTGlyph name="P" xMin="39" yMin="-9" xMax="591" yMax="659">
      <contour>
        <pt x="39" y="649" on="1"/>
        <pt x="349" y="658" on="1"/>
        <pt x="352" y="658" on="0"/>
        <pt x="355" y="658" on="1"/>
        <pt x="467" y="658" on="0"/>
        <pt x="591" y="589" on="0"/>
        <pt x="591" y="401" on="0"/>
        <pt x="439" y="281" on="0"/>
        <pt x="339" y="281" on="1"/>
        <pt x="321" y="281" on="0"/>
        <pt x="313" y="282" on="1"/>
        <pt x="317" y="328" on="1"/>
        <pt x="329" y="328" on="1"/>
        <pt x="411" y="328" on="0"/>
        <pt x="411" y="479" on="1"/>
        <pt x="411" y="540" on="0"/>
        <pt x="372" y="609" on="0"/>
        <pt x="322" y="609" on="1"/>
        <pt x="303" y="609" on="0"/>
        <pt x="285" y="604" on="1"/>
        <pt x="275" y="516" on="0"/>
        <pt x="275" y="129" on="0"/>
        <pt x="289" y="34" on="1"/>
        <pt x="328" y="27" on="0"/>
        <pt x="349" y="17" on="1"/>
        <pt x="346" y="-9" on="1"/>
        <pt x="274" y="0" on="0"/>
        <pt x="105" y="0" on="0"/>
        <pt x="45" y="-9" on="1"/>
        <pt x="41" y="18" on="1"/>
        <pt x="63" y="30" on="0"/>
        <pt x="97" y="37" on="1"/>
        <pt x="110" y="135" on="0"/>
        <pt x="110" y="483" on="0"/>
        <pt x="96" y="606" on="1"/>
        <pt x="70" y="619" on="0"/>
        <pt x="39" y="622" on="1"/>
      </contour>
    </TTGlyph>
    <TTGlyph name="Q" xMin="37" yMin="-228" xMax="692" yMax="666">
      <contour>
        <pt x="477" y="-163" on="0"/>
        <pt x="329" y="-97" on="0"/>
        <pt x="202" y="-97" on="0"/>
        <pt x="159" y="-133" on="1"/>
        <pt x="141" y="-117" on="1"/>
        <pt x="165" y="-86" on="0"/>
        <pt x="247" y="-29" on="0"/>
        <pt x="287" y="-13" on="1"/>
        <pt x="169" y="-2" on="0"/>
        <pt x="37" y="148" on="0"/>
        <pt x="37" y="265" on="1"/>
        <pt x="37" y="407" on="0"/>
        <pt x="201" y="618" on="0"/>
        <pt x="339" y="666" on="1"/>
        <pt x="474" y="666" on="0"/>
        <pt x="613" y="525" on="0"/>
        <pt x="613" y="257" on="0"/>
        <pt x="487" y="59" on="0"/>
        <pt x="374" y="5" on="1"/>
        <pt x="415" y="0" on="0"/>
        <pt x="591" y="-68" on="0"/>
        <pt x="631" y="-72" on="1"/>
        <pt x="656" y="-64" on="0"/>
        <pt x="675" y="-50" on="1"/>
        <pt x="692" y="-71" on="1"/>
        <pt x="648" y="-105" on="0"/>
        <pt x="591" y="-173" on="0"/>
        <pt x="559" y="-228" on="1"/>
        <pt x="535" y="-208" on="1"/>
      </contour>
      <contour>
        <pt x="391" y="548" on="0"/>
        <pt x="340" y="582" on="0"/>
        <pt x="271" y="582" on="0"/>
        <pt x="248" y="566" on="1"/>
        <pt x="212" y="479" on="0"/>
        <pt x="212" y="339" on="1"/>
        <pt x="212" y="240" on="0"/>
        <pt x="236" y="162" on="1"/>
        <pt x="250" y="119" on="0"/>
        <pt x="306" y="69" on="0"/>
        <pt x="378" y="69" on="0"/>
        <pt x="401" y="86" on="1"/>
        <pt x="438" y="171" on="0"/>
        <pt x="438" y="310" on="1"/>
        <pt x="438" y="466" on="0"/>
        <pt x="405" y="524" on="1"/>
      </contour>
    </TTGlyph>
    <TTGlyph name="R" xMin="39" yMin="-9" xMax="679" yMax="658">
      <contour>
        <pt x="39" y="649" on="1"/>
        <pt x="349" y="658" on="1"/>
        <pt x="459" y="658" on="0"/>
        <pt x="521" y="628" on="1"/>
        <pt x="592" y="594" on="0"/>
        <pt x="592" y="494" on="1"/>
        <pt x="592" y="441" on="0"/>
        <pt x="531" y="356" on="0"/>
        <pt x="479" y="329" on="1"/>
        <pt x="623" y="37" on="1"/>
        <pt x="659" y="29" on="0"/>
        <pt x="679" y="18" on="1"/>
        <pt x="675" y="-9" on="1"/>
        <pt x="626" y="0" on="0"/>
        <pt x="465" y="0" on="0"/>
        <pt x="408" y="-5" on="1"/>
        <pt x="405" y="13" on="1"/>
        <pt x="423" y="31" on="0"/>
        <pt x="423" y="77" on="1"/>
        <pt x="423" y="145" on="0"/>
        <pt x="363" y="304" on="1"/>
        <pt x="339" y="308" on="0"/>
        <pt x="313" y="308" on="1"/>
        <pt x="317" y="349" on="1"/>
        <pt x="328" y="349" on="1"/>
        <pt x="371" y="349" on="0"/>
        <pt x="410" y="424" on="0"/>
        <pt x="410" y="479" on="1"/>
        <pt x="410" y="609" on="0"/>
        <pt x="322" y="609" on="1"/>
        <pt x="303" y="609" on="0"/>
        <pt x="285" y="604" on="1"/>
        <pt x="275" y="516" on="0"/>
        <pt x="275" y="129" on="0"/>
        <pt x="289" y="34" on="1"/>
        <pt x="328" y="27" on="0"/>
        <pt x="349" y="17" on="1"/>
        <pt x="346" y="-9" on="1"/>
        <pt x="274" y="0" on="0"/>
        <pt x="105" y="0" on="0"/>
        <pt x="45" y="-9" on="1"/>
        <pt x="41" y="18" on="1"/>
        <pt x="63" y="30" on="0"/>
        <pt x="97" y="37" on="1"/>
        <pt x="110" y="135" on="0"/>
        <pt x="110" y="483" on="0"/>
        <pt x="96" y="606" on="1"/>
        <pt x="70" y="619" on="0"/>
        <pt x="39" y="622" on="1"/>
      </contour>
    </TTGlyph>
    <TTGlyph name="Racute" xMin="39" yMin="-9" xMax="679" yMax="896">
      <contour>
        <pt x="39" y="649" on="1"/>
        <pt x="349" y="658" on="1"/>
        <pt x="459" y="658" on="0"/>
        <pt x="521" y="628" on="1"/>
        <pt x="592" y="594" on="0"/>
        <pt x="592" y="494" on="1"/>
        <pt x="592" y="441" on="0"/>
        <pt x="531" y="356" on="0"/>
        <pt x="479" y="329" on="1"/>
        <pt x="623" y="37" on="1"/>
        <pt x="659" y="29" on="0"/>
        <pt x="679" y="18" on="1"/>
        <pt x="675" y="-9" on="1"/>
        <pt x="626" y="0" on="0"/>
        <pt x="465" y="0" on="0"/>
        <pt x="408" y="-5" on="1"/>
        <pt x="405" y="13" on="1"/>
        <pt x="423" y="31" on="0"/>
        <pt x="423" y="77" on="1"/>
        <pt x="423" y="145" on="0"/>
        <pt x="363" y="304" on="1"/>
        <pt x="339" y="308" on="0"/>
        <pt x="313" y="308" on="1"/>
        <pt x="317" y="349" on="1"/>
        <pt x="328" y="349" on="1"/>
        <pt x="371" y="349" on="0"/>
        <pt x="410" y="424" on="0"/>
        <pt x="410" y="479" on="1"/>
        <pt x="410" y="609" on="0"/>
        <pt x="322" y="609" on="1"/>
        <pt x="303" y="609" on="0"/>
        <pt x="285" y="604" on="1"/>
        <pt x="275" y="516" on="0"/>
        <pt x="275" y="129" on="0"/>
        <pt x="289" y="34" on="1"/>
        <pt x="328" y="27" on="0"/>
        <pt x="349" y="17" on="1"/>
        <pt x="346" y="-9" on="1"/>
        <pt x="274" y="0" on="0"/>
        <pt x="105" y="0" on="0"/>
        <pt x="45" y="-9" on="1"/>
        <pt x="41" y="18" on="1"/>
        <pt x="63" y="30" on="0"/>
        <pt x="97" y="37" on="1"/>
        <pt x="110" y="135" on="0"/>
        <pt x="110" y="483" on="0"/>
        <pt x="96" y="606" on="1"/>
        <pt x="70" y="619" on="0"/>
        <pt x="39" y="622" on="1"/>
      </contour>
      <contour>
        <pt x="479" y="893" on="1"/>
        <pt x="488" y="896" on="0"/>
        <pt x="520" y="896" on="0"/>
        <pt x="527" y="893" on="1"/>
        <pt x="536" y="877" on="0"/>
        <pt x="551" y="809" on="0"/>
        <pt x="552" y="783" on="1"/>
        <pt x="290" y="717" on="1"/>
        <pt x="280" y="741" on="1"/>
        <pt x="423" y="808" on="0"/>
      </contour>
    </TTGlyph>
    <TTGlyph name="Rcaron" xMin="39" yMin="-9" xMax="679" yMax="896">
      <contour>
        <pt x="39" y="649" on="1"/>
        <pt x="349" y="658" on="1"/>
        <pt x="459" y="658" on="0"/>
        <pt x="521" y="628" on="1"/>
        <pt x="592" y="594" on="0"/>
        <pt x="592" y="494" on="1"/>
        <pt x="592" y="441" on="0"/>
        <pt x="531" y="356" on="0"/>
        <pt x="479" y="329" on="1"/>
        <pt x="623" y="37" on="1"/>
        <pt x="659" y="29" on="0"/>
        <pt x="679" y="18" on="1"/>
        <pt x="675" y="-9" on="1"/>
        <pt x="626" y="0" on="0"/>
        <pt x="465" y="0" on="0"/>
        <pt x="408" y="-5" on="1"/>
        <pt x="405" y="13" on="1"/>
        <pt x="423" y="31" on="0"/>
        <pt x="423" y="77" on="1"/>
        <pt x="423" y="145" on="0"/>
        <pt x="363" y="304" on="1"/>
        <pt x="339" y="308" on="0"/>
        <pt x="313" y="308" on="1"/>
        <pt x="317" y="349" on="1"/>
        <pt x="328" y="349" on="1"/>
        <pt x="371" y="349" on="0"/>
        <pt x="410" y="424" on="0"/>
        <pt x="410" y="479" on="1"/>
        <pt x="410" y="609" on="0"/>
        <pt x="322" y="609" on="1"/>
        <pt x="303" y="609" on="0"/>
        <pt x="285" y="604" on="1"/>
        <pt x="275" y="516" on="0"/>
        <pt x="275" y="129" on="0"/>
        <pt x="289" y="34" on="1"/>
        <pt x="328" y="27" on="0"/>
        <pt x="349" y="17" on="1"/>
        <pt x="346" y="-9" on="1"/>
        <pt x="274" y="0" on="0"/>
        <pt x="105" y="0" on="0"/>
        <pt x="45" y="-9" on="1"/>
        <pt x="41" y="18" on="1"/>
        <pt x="63" y="30" on="0"/>
        <pt x="97" y="37" on="1"/>
        <pt x="110" y="135" on="0"/>
        <pt x="110" y="483" on="0"/>
        <pt x="96" y="606" on="1"/>
        <pt x="70" y="619" on="0"/>
        <pt x="39" y="622" on="1"/>
      </contour>
      <contour>
        <pt x="348" y="717" on="0"/>
        <pt x="308" y="717" on="0"/>
        <pt x="297" y="720" on="1"/>
        <pt x="240" y="805" on="0"/>
        <pt x="114" y="872" on="1"/>
        <pt x="124" y="896" on="1"/>
        <pt x="328" y="834" on="1"/>
        <pt x="532" y="896" on="1"/>
        <pt x="542" y="872" on="1"/>
        <pt x="416" y="805" on="0"/>
        <pt x="359" y="720" on="1"/>
      </contour>
    </TTGlyph>
    <TTGlyph name="Rcommaaccent" xMin="39" yMin="-251" xMax="679" yMax="658">
      <contour>
        <pt x="39" y="649" on="1"/>
        <pt x="349" y="658" on="1"/>
        <pt x="459" y="658" on="0"/>
        <pt x="521" y="628" on="1"/>
        <pt x="592" y="594" on="0"/>
        <pt x="592" y="494" on="1"/>
        <pt x="592" y="441" on="0"/>
        <pt x="531" y="356" on="0"/>
        <pt x="479" y="329" on="1"/>
        <pt x="623" y="37" on="1"/>
        <pt x="659" y="29" on="0"/>
        <pt x="679" y="18" on="1"/>
        <pt x="675" y="-9" on="1"/>
        <pt x="626" y="0" on="0"/>
        <pt x="465" y="0" on="0"/>
        <pt x="408" y="-5" on="1"/>
        <pt x="405" y="13" on="1"/>
        <pt x="423" y="31" on="0"/>
        <pt x="423" y="77" on="1"/>
        <pt x="423" y="145" on="0"/>
        <pt x="363" y="304" on="1"/>
        <pt x="339" y="308" on="0"/>
        <pt x="313" y="308" on="1"/>
        <pt x="317" y="349" on="1"/>
        <pt x="328" y="349" on="1"/>
        <pt x="371" y="349" on="0"/>
        <pt x="410" y="424" on="0"/>
        <pt x="410" y="479" on="1"/>
        <pt x="410" y="609" on="0"/>
        <pt x="322" y="609" on="1"/>
        <pt x="303" y="609" on="0"/>
        <pt x="285" y="604" on="1"/>
        <pt x="275" y="516" on="0"/>
        <pt x="275" y="129" on="0"/>
        <pt x="289" y="34" on="1"/>
        <pt x="328" y="27" on="0"/>
        <pt x="349" y="17" on="1"/>
        <pt x="346" y="-9" on="1"/>
        <pt x="274" y="0" on="0"/>
        <pt x="105" y="0" on="0"/>
        <pt x="45" y="-9" on="1"/>
        <pt x="41" y="18" on="1"/>
        <pt x="63" y="30" on="0"/>
        <pt x="97" y="37" on="1"/>
        <pt x="110" y="135" on="0"/>
        <pt x="110" y="483" on="0"/>
        <pt x="96" y="606" on="1"/>
        <pt x="70" y="619" on="0"/>
        <pt x="39" y="622" on="1"/>
      </contour>
      <contour>
        <pt x="437" y="-95" on="1"/>
        <pt x="429" y="-149" on="0"/>
        <pt x="338" y="-236" on="0"/>
        <pt x="271" y="-251" on="1"/>
        <pt x="261" y="-227" on="1"/>
        <pt x="311" y="-199" on="0"/>
        <pt x="325" y="-171" on="1"/>
        <pt x="284" y="-137" on="0"/>
        <pt x="270" y="-95" on="1"/>
        <pt x="283" y="-78" on="0"/>
        <pt x="332" y="-43" on="0"/>
        <pt x="354" y="-34" on="1"/>
        <pt x="407" y="-55" on="0"/>
      </contour>
    </TTGlyph>
    <TTGlyph name="S" xMin="-6" yMin="-29" xMax="457" yMax="666">
      <contour>
        <pt x="230" y="76" on="1"/>
        <pt x="314" y="76" on="0"/>
        <pt x="314" y="148" on="1"/>
        <pt x="314" y="172" on="0"/>
        <pt x="231" y="240" on="0"/>
        <pt x="131" y="299" on="0"/>
        <pt x="48" y="373" on="0"/>
        <pt x="48" y="402" on="1"/>
        <pt x="48" y="487" on="0"/>
        <pt x="191" y="636" on="0"/>
        <pt x="284" y="666" on="1"/>
        <pt x="378" y="666" on="0"/>
        <pt x="457" y="644" on="1"/>
        <pt x="457" y="624" on="1"/>
        <pt x="431" y="600" on="0"/>
        <pt x="402" y="507" on="0"/>
        <pt x="399" y="460" on="1"/>
        <pt x="372" y="460" on="1"/>
        <pt x="372" y="510" on="0"/>
        <pt x="366" y="542" on="1"/>
        <pt x="321" y="581" on="0"/>
        <pt x="258" y="581" on="1"/>
        <pt x="224" y="581" on="0"/>
        <pt x="175" y="549" on="0"/>
        <pt x="175" y="495" on="0"/>
        <pt x="261" y="428" on="0"/>
        <pt x="364" y="370" on="0"/>
        <pt x="450" y="297" on="0"/>
        <pt x="450" y="268" on="1"/>
        <pt x="450" y="193" on="0"/>
        <pt x="294" y="14" on="0"/>
        <pt x="215" y="-15" on="1"/>
        <pt x="134" y="-15" on="0"/>
        <pt x="56" y="8" on="1"/>
        <pt x="38" y="-1" on="0"/>
        <pt x="14" y="-29" on="1"/>
        <pt x="-6" y="-10" on="1"/>
        <pt x="56" y="55" on="0"/>
        <pt x="65" y="200" on="1"/>
        <pt x="93" y="200" on="1"/>
        <pt x="98" y="131" on="1"/>
        <pt x="158" y="76" on="0"/>
      </contour>
    </TTGlyph>
    <TTGlyph name="T" xMin="-23" yMin="-9" xMax="577" yMax="666">
      <contour>
        <pt x="-17" y="666" on="1"/>
        <pt x="100" y="651" on="0"/>
        <pt x="472" y="651" on="0"/>
        <pt x="571" y="665" on="1"/>
        <pt x="577" y="644" on="1"/>
        <pt x="538" y="592" on="0"/>
        <pt x="535" y="484" on="1"/>
        <pt x="508" y="484" on="1"/>
        <pt x="499" y="530" on="0"/>
        <pt x="499" y="571" on="1"/>
        <pt x="466" y="588" on="0"/>
        <pt x="393" y="588" on="0"/>
        <pt x="373" y="584" on="1"/>
        <pt x="365" y="476" on="0"/>
        <pt x="365" y="129" on="0"/>
        <pt x="379" y="34" on="1"/>
        <pt x="418" y="27" on="0"/>
        <pt x="439" y="17" on="1"/>
        <pt x="436" y="-9" on="1"/>
        <pt x="364" y="0" on="0"/>
        <pt x="195" y="0" on="0"/>
        <pt x="135" y="-9" on="1"/>
        <pt x="131" y="18" on="1"/>
        <pt x="153" y="30" on="0"/>
        <pt x="187" y="37" on="1"/>
        <pt x="200" y="135" on="0"/>
        <pt x="200" y="456" on="0"/>
        <pt x="189" y="581" on="1"/>
        <pt x="170" y="588" on="0"/>
        <pt x="92" y="588" on="0"/>
        <pt x="64" y="574" on="1"/>
        <pt x="53" y="535" on="0"/>
        <pt x="50" y="484" on="1"/>
        <pt x="21" y="484" on="1"/>
        <pt x="18" y="591" on="0"/>
        <pt x="-23" y="645" on="1"/>
      </contour>
    </TTGlyph>
    <TTGlyph name="Thorn" xMin="39" yMin="-9" xMax="584" yMax="660">
      <contour>
        <pt x="278" y="482" on="1"/>
        <pt x="275" y="464" on="0"/>
        <pt x="275" y="129" on="0"/>
        <pt x="289" y="34" on="1"/>
        <pt x="328" y="27" on="0"/>
        <pt x="349" y="17" on="1"/>
        <pt x="346" y="-9" on="1"/>
        <pt x="274" y="0" on="0"/>
        <pt x="105" y="0" on="0"/>
        <pt x="45" y="-9" on="1"/>
        <pt x="41" y="18" on="1"/>
        <pt x="63" y="30" on="0"/>
        <pt x="97" y="37" on="1"/>
        <pt x="110" y="135" on="0"/>
        <pt x="110" y="503" on="0"/>
        <pt x="95" y="614" on="1"/>
        <pt x="61" y="621" on="0"/>
        <pt x="39" y="633" on="1"/>
        <pt x="43" y="660" on="1"/>
        <pt x="103" y="651" on="0"/>
        <pt x="272" y="651" on="0"/>
        <pt x="344" y="660" on="1"/>
        <pt x="347" y="634" on="1"/>
        <pt x="326" y="624" on="0"/>
        <pt x="287" y="617" on="1"/>
        <pt x="283" y="586" on="0"/>
        <pt x="280" y="535" on="1"/>
        <pt x="342" y="536" on="1"/>
        <pt x="345" y="536" on="0"/>
        <pt x="348" y="536" on="1"/>
        <pt x="460" y="536" on="0"/>
        <pt x="584" y="467" on="0"/>
        <pt x="584" y="279" on="0"/>
        <pt x="434" y="159" on="0"/>
        <pt x="336" y="159" on="1"/>
        <pt x="318" y="159" on="0"/>
        <pt x="310" y="160" on="1"/>
        <pt x="314" y="206" on="1"/>
        <pt x="326" y="206" on="1"/>
        <pt x="404" y="206" on="0"/>
        <pt x="404" y="357" on="1"/>
        <pt x="404" y="418" on="0"/>
        <pt x="365" y="487" on="0"/>
        <pt x="315" y="487" on="1"/>
        <pt x="296" y="487" on="0"/>
      </contour>
    </TTGlyph>
    <TTGlyph name="U" xMin="35" yMin="-15" xMax="672" yMax="660">
      <contour>
        <pt x="610" y="617" on="1"/>
        <pt x="598" y="540" on="0"/>
        <pt x="598" y="129" on="0"/>
        <pt x="612" y="34" on="1"/>
        <pt x="651" y="27" on="0"/>
        <pt x="672" y="17" on="1"/>
        <pt x="669" y="-9" on="1"/>
        <pt x="597" y="0" on="0"/>
        <pt x="478" y="0" on="0"/>
        <pt x="418" y="-9" on="1"/>
        <pt x="414" y="9" on="1"/>
        <pt x="423" y="23" on="0"/>
        <pt x="427" y="66" on="1"/>
        <pt x="376" y="17" on="0"/>
        <pt x="296" y="-15" on="1"/>
        <pt x="173" y="-15" on="0"/>
        <pt x="79" y="107" on="0"/>
        <pt x="79" y="241" on="1"/>
        <pt x="79" y="298" on="0"/>
        <pt x="93" y="546" on="0"/>
        <pt x="93" y="594" on="0"/>
        <pt x="86" y="615" on="1"/>
        <pt x="50" y="623" on="0"/>
        <pt x="35" y="633" on="1"/>
        <pt x="39" y="660" on="1"/>
        <pt x="110" y="651" on="0"/>
        <pt x="256" y="651" on="0"/>
        <pt x="301" y="658" on="1"/>
        <pt x="305" y="641" on="1"/>
        <pt x="281" y="628" on="0"/>
        <pt x="263" y="588" on="0"/>
        <pt x="249" y="417" on="0"/>
        <pt x="249" y="242" on="0"/>
        <pt x="250" y="208" on="0"/>
        <pt x="255" y="154" on="0"/>
        <pt x="266" y="126" on="0"/>
        <pt x="276" y="111" on="1"/>
        <pt x="295" y="83" on="0"/>
        <pt x="386" y="83" on="0"/>
        <pt x="430" y="117" on="1"/>
        <pt x="433" y="161" on="0"/>
        <pt x="433" y="503" on="0"/>
        <pt x="418" y="614" on="1"/>
        <pt x="384" y="621" on="0"/>
        <pt x="362" y="633" on="1"/>
        <pt x="366" y="660" on="1"/>
        <pt x="426" y="651" on="0"/>
        <pt x="595" y="651" on="0"/>
        <pt x="667" y="660" on="1"/>
        <pt x="670" y="634" on="1"/>
        <pt x="649" y="624" on="0"/>
      </contour>
    </TTGlyph>
    <TTGlyph name="Uacute" xMin="35" yMin="-15" xMax="672" yMax="896">
      <contour>
        <pt x="610" y="617" on="1"/>
        <pt x="598" y="540" on="0"/>
        <pt x="598" y="129" on="0"/>
        <pt x="612" y="34" on="1"/>
        <pt x="651" y="27" on="0"/>
        <pt x="672" y="17" on="1"/>
        <pt x="669" y="-9" on="1"/>
        <pt x="597" y="0" on="0"/>
        <pt x="478" y="0" on="0"/>
        <pt x="418" y="-9" on="1"/>
        <pt x="414" y="9" on="1"/>
        <pt x="423" y="23" on="0"/>
        <pt x="427" y="66" on="1"/>
        <pt x="376" y="17" on="0"/>
        <pt x="296" y="-15" on="1"/>
        <pt x="173" y="-15" on="0"/>
        <pt x="79" y="107" on="0"/>
        <pt x="79" y="241" on="1"/>
        <pt x="79" y="298" on="0"/>
        <pt x="93" y="546" on="0"/>
        <pt x="93" y="594" on="0"/>
        <pt x="86" y="615" on="1"/>
        <pt x="50" y="623" on="0"/>
        <pt x="35" y="633" on="1"/>
        <pt x="39" y="660" on="1"/>
        <pt x="110" y="651" on="0"/>
        <pt x="256" y="651" on="0"/>
        <pt x="301" y="658" on="1"/>
        <pt x="305" y="641" on="1"/>
        <pt x="281" y="628" on="0"/>
        <pt x="263" y="588" on="0"/>
        <pt x="249" y="417" on="0"/>
        <pt x="249" y="242" on="0"/>
        <pt x="250" y="208" on="0"/>
        <pt x="255" y="154" on="0"/>
        <pt x="266" y="126" on="0"/>
        <pt x="276" y="111" on="1"/>
        <pt x="295" y="83" on="0"/>
        <pt x="386" y="83" on="0"/>
        <pt x="430" y="117" on="1"/>
        <pt x="433" y="161" on="0"/>
        <pt x="433" y="503" on="0"/>
        <pt x="418" y="614" on="1"/>
        <pt x="384" y="621" on="0"/>
        <pt x="362" y="633" on="1"/>
        <pt x="366" y="660" on="1"/>
        <pt x="426" y="651" on="0"/>
        <pt x="595" y="651" on="0"/>
        <pt x="667" y="660" on="1"/>
        <pt x="670" y="634" on="1"/>
        <pt x="649" y="624" on="0"/>
      </contour>
      <contour>
        <pt x="525" y="893" on="1"/>
        <pt x="534" y="896" on="0"/>
        <pt x="566" y="896" on="0"/>
        <pt x="573" y="893" on="1"/>
        <pt x="582" y="877" on="0"/>
        <pt x="597" y="809" on="0"/>
        <pt x="598" y="783" on="1"/>
        <pt x="336" y="717" on="1"/>
        <pt x="326" y="741" on="1"/>
        <pt x="469" y="808" on="0"/>
      </contour>
    </TTGlyph>
    <TTGlyph name="Ucircumflex" xMin="35" yMin="-15" xMax="672" yMax="896">
      <contour>
        <pt x="610" y="617" on="1"/>
        <pt x="598" y="540" on="0"/>
        <pt x="598" y="129" on="0"/>
        <pt x="612" y="34" on="1"/>
        <pt x="651" y="27" on="0"/>
        <pt x="672" y="17" on="1"/>
        <pt x="669" y="-9" on="1"/>
        <pt x="597" y="0" on="0"/>
        <pt x="478" y="0" on="0"/>
        <pt x="418" y="-9" on="1"/>
        <pt x="414" y="9" on="1"/>
        <pt x="423" y="23" on="0"/>
        <pt x="427" y="66" on="1"/>
        <pt x="376" y="17" on="0"/>
        <pt x="296" y="-15" on="1"/>
        <pt x="173" y="-15" on="0"/>
        <pt x="79" y="107" on="0"/>
        <pt x="79" y="241" on="1"/>
        <pt x="79" y="298" on="0"/>
        <pt x="93" y="546" on="0"/>
        <pt x="93" y="594" on="0"/>
        <pt x="86" y="615" on="1"/>
        <pt x="50" y="623" on="0"/>
        <pt x="35" y="633" on="1"/>
        <pt x="39" y="660" on="1"/>
        <pt x="110" y="651" on="0"/>
        <pt x="256" y="651" on="0"/>
        <pt x="301" y="658" on="1"/>
        <pt x="305" y="641" on="1"/>
        <pt x="281" y="628" on="0"/>
        <pt x="263" y="588" on="0"/>
        <pt x="249" y="417" on="0"/>
        <pt x="249" y="242" on="0"/>
        <pt x="250" y="208" on="0"/>
        <pt x="255" y="154" on="0"/>
        <pt x="266" y="126" on="0"/>
        <pt x="276" y="111" on="1"/>
        <pt x="295" y="83" on="0"/>
        <pt x="386" y="83" on="0"/>
        <pt x="430" y="117" on="1"/>
        <pt x="433" y="161" on="0"/>
        <pt x="433" y="503" on="0"/>
        <pt x="418" y="614" on="1"/>
        <pt x="384" y="621" on="0"/>
        <pt x="362" y="633" on="1"/>
        <pt x="366" y="660" on="1"/>
        <pt x="426" y="651" on="0"/>
        <pt x="595" y="651" on="0"/>
        <pt x="667" y="660" on="1"/>
        <pt x="670" y="634" on="1"/>
        <pt x="649" y="624" on="0"/>
      </contour>
      <contour>
        <pt x="326" y="896" on="0"/>
        <pt x="368" y="896" on="0"/>
        <pt x="378" y="893" on="1"/>
        <pt x="435" y="808" on="0"/>
        <pt x="561" y="741" on="1"/>
        <pt x="551" y="717" on="1"/>
        <pt x="347" y="779" on="1"/>
        <pt x="143" y="717" on="1"/>
        <pt x="133" y="741" on="1"/>
        <pt x="259" y="808" on="0"/>
        <pt x="316" y="893" on="1"/>
      </contour>
    </TTGlyph>
    <TTGlyph name="Udieresis" xMin="35" yMin="-15" xMax="672" yMax="895">
      <contour>
        <pt x="610" y="617" on="1"/>
        <pt x="598" y="540" on="0"/>
        <pt x="598" y="129" on="0"/>
        <pt x="612" y="34" on="1"/>
        <pt x="651" y="27" on="0"/>
        <pt x="672" y="17" on="1"/>
        <pt x="669" y="-9" on="1"/>
        <pt x="597" y="0" on="0"/>
        <pt x="478" y="0" on="0"/>
        <pt x="418" y="-9" on="1"/>
        <pt x="414" y="9" on="1"/>
        <pt x="423" y="23" on="0"/>
        <pt x="427" y="66" on="1"/>
        <pt x="376" y="17" on="0"/>
        <pt x="296" y="-15" on="1"/>
        <pt x="173" y="-15" on="0"/>
        <pt x="79" y="107" on="0"/>
        <pt x="79" y="241" on="1"/>
        <pt x="79" y="298" on="0"/>
        <pt x="93" y="546" on="0"/>
        <pt x="93" y="594" on="0"/>
        <pt x="86" y="615" on="1"/>
        <pt x="50" y="623" on="0"/>
        <pt x="35" y="633" on="1"/>
        <pt x="39" y="660" on="1"/>
        <pt x="110" y="651" on="0"/>
        <pt x="256" y="651" on="0"/>
        <pt x="301" y="658" on="1"/>
        <pt x="305" y="641" on="1"/>
        <pt x="281" y="628" on="0"/>
        <pt x="263" y="588" on="0"/>
        <pt x="249" y="417" on="0"/>
        <pt x="249" y="242" on="0"/>
        <pt x="250" y="208" on="0"/>
        <pt x="255" y="154" on="0"/>
        <pt x="266" y="126" on="0"/>
        <pt x="276" y="111" on="1"/>
        <pt x="295" y="83" on="0"/>
        <pt x="386" y="83" on="0"/>
        <pt x="430" y="117" on="1"/>
        <pt x="433" y="161" on="0"/>
        <pt x="433" y="503" on="0"/>
        <pt x="418" y="614" on="1"/>
        <pt x="384" y="621" on="0"/>
        <pt x="362" y="633" on="1"/>
        <pt x="366" y="660" on="1"/>
        <pt x="426" y="651" on="0"/>
        <pt x="595" y="651" on="0"/>
        <pt x="667" y="660" on="1"/>
        <pt x="670" y="634" on="1"/>
        <pt x="649" y="624" on="0"/>
      </contour>
      <contour>
        <pt x="326" y="819" on="1"/>
        <pt x="316" y="798" on="0"/>
        <pt x="259" y="739" on="0"/>
        <pt x="237" y="724" on="1"/>
        <pt x="215" y="739" on="0"/>
        <pt x="158" y="798" on="0"/>
        <pt x="147" y="819" on="1"/>
        <pt x="159" y="839" on="0"/>
        <pt x="212" y="884" on="0"/>
        <pt x="237" y="895" on="1"/>
        <pt x="260" y="883" on="0"/>
        <pt x="313" y="838" on="0"/>
      </contour>
      <contour>
        <pt x="548" y="819" on="1"/>
        <pt x="538" y="798" on="0"/>
        <pt x="481" y="739" on="0"/>
        <pt x="459" y="724" on="1"/>
        <pt x="437" y="739" on="0"/>
        <pt x="380" y="798" on="0"/>
        <pt x="369" y="819" on="1"/>
        <pt x="381" y="839" on="0"/>
        <pt x="434" y="884" on="0"/>
        <pt x="459" y="895" on="1"/>
        <pt x="482" y="883" on="0"/>
        <pt x="535" y="838" on="0"/>
      </contour>
    </TTGlyph>
    <TTGlyph name="Ugrave" xMin="35" yMin="-15" xMax="672" yMax="896">
      <contour>
        <pt x="610" y="617" on="1"/>
        <pt x="598" y="540" on="0"/>
        <pt x="598" y="129" on="0"/>
        <pt x="612" y="34" on="1"/>
        <pt x="651" y="27" on="0"/>
        <pt x="672" y="17" on="1"/>
        <pt x="669" y="-9" on="1"/>
        <pt x="597" y="0" on="0"/>
        <pt x="478" y="0" on="0"/>
        <pt x="418" y="-9" on="1"/>
        <pt x="414" y="9" on="1"/>
        <pt x="423" y="23" on="0"/>
        <pt x="427" y="66" on="1"/>
        <pt x="376" y="17" on="0"/>
        <pt x="296" y="-15" on="1"/>
        <pt x="173" y="-15" on="0"/>
        <pt x="79" y="107" on="0"/>
        <pt x="79" y="241" on="1"/>
        <pt x="79" y="298" on="0"/>
        <pt x="93" y="546" on="0"/>
        <pt x="93" y="594" on="0"/>
        <pt x="86" y="615" on="1"/>
        <pt x="50" y="623" on="0"/>
        <pt x="35" y="633" on="1"/>
        <pt x="39" y="660" on="1"/>
        <pt x="110" y="651" on="0"/>
        <pt x="256" y="651" on="0"/>
        <pt x="301" y="658" on="1"/>
        <pt x="305" y="641" on="1"/>
        <pt x="281" y="628" on="0"/>
        <pt x="263" y="588" on="0"/>
        <pt x="249" y="417" on="0"/>
        <pt x="249" y="242" on="0"/>
        <pt x="250" y="208" on="0"/>
        <pt x="255" y="154" on="0"/>
        <pt x="266" y="126" on="0"/>
        <pt x="276" y="111" on="1"/>
        <pt x="295" y="83" on="0"/>
        <pt x="386" y="83" on="0"/>
        <pt x="430" y="117" on="1"/>
        <pt x="433" y="161" on="0"/>
        <pt x="433" y="503" on="0"/>
        <pt x="418" y="614" on="1"/>
        <pt x="384" y="621" on="0"/>
        <pt x="362" y="633" on="1"/>
        <pt x="366" y="660" on="1"/>
        <pt x="426" y="651" on="0"/>
        <pt x="595" y="651" on="0"/>
        <pt x="667" y="660" on="1"/>
        <pt x="670" y="634" on="1"/>
        <pt x="649" y="624" on="0"/>
      </contour>
      <contour>
        <pt x="153" y="893" on="1"/>
        <pt x="161" y="896" on="0"/>
        <pt x="190" y="896" on="0"/>
        <pt x="201" y="893" on="1"/>
        <pt x="257" y="808" on="0"/>
        <pt x="400" y="741" on="1"/>
        <pt x="390" y="717" on="1"/>
        <pt x="128" y="783" on="1"/>
        <pt x="129" y="809" on="0"/>
        <pt x="144" y="877" on="0"/>
      </contour>
    </TTGlyph>
    <TTGlyph name="V" xMin="-18" yMin="-9" xMax="624" yMax="660">
      <contour>
        <pt x="447" y="-9" on="1"/>
        <pt x="387" y="0" on="0"/>
        <pt x="202" y="0" on="0"/>
        <pt x="143" y="-5" on="1"/>
        <pt x="140" y="11" on="1"/>
        <pt x="174" y="20" on="0"/>
        <pt x="174" y="41" on="1"/>
        <pt x="174" y="111" on="0"/>
        <pt x="66" y="529" on="1"/>
        <pt x="52" y="583" on="0"/>
        <pt x="33" y="616" on="1"/>
        <pt x="1" y="623" on="0"/>
        <pt x="-18" y="633" on="1"/>
        <pt x="-14" y="660" on="1"/>
        <pt x="46" y="651" on="0"/>
        <pt x="219" y="651" on="0"/>
        <pt x="294" y="660" on="1"/>
        <pt x="297" y="634" on="1"/>
        <pt x="269" y="623" on="0"/>
        <pt x="237" y="616" on="1"/>
        <pt x="256" y="404" on="0"/>
        <pt x="344" y="79" on="1"/>
        <pt x="422" y="379" on="0"/>
        <pt x="422" y="518" on="1"/>
        <pt x="422" y="612" on="0"/>
        <pt x="363" y="639" on="1"/>
        <pt x="366" y="659" on="1"/>
        <pt x="435" y="651" on="0"/>
        <pt x="560" y="651" on="0"/>
        <pt x="620" y="660" on="1"/>
        <pt x="624" y="633" on="1"/>
        <pt x="603" y="625" on="0"/>
        <pt x="568" y="617" on="1"/>
        <pt x="586" y="581" on="0"/>
        <pt x="586" y="452" on="0"/>
        <pt x="500" y="241" on="0"/>
        <pt x="384" y="32" on="1"/>
        <pt x="428" y="22" on="0"/>
        <pt x="451" y="15" on="1"/>
      </contour>
    </TTGlyph>
    <TTGlyph name="W" xMin="-18" yMin="-9" xMax="939" yMax="660">
      <contour>
        <pt x="768" y="-9" on="1"/>
        <pt x="708" y="0" on="0"/>
        <pt x="534" y="0" on="0"/>
        <pt x="471" y="-8" on="1"/>
        <pt x="468" y="8" on="1"/>
        <pt x="481" y="11" on="0"/>
        <pt x="502" y="29" on="0"/>
        <pt x="502" y="41" on="1"/>
        <pt x="502" y="102" on="0"/>
        <pt x="465" y="267" on="1"/>
        <pt x="450" y="222" on="0"/>
        <pt x="384" y="32" on="1"/>
        <pt x="402" y="20" on="0"/>
        <pt x="431" y="15" on="1"/>
        <pt x="427" y="-9" on="1"/>
        <pt x="367" y="0" on="0"/>
        <pt x="202" y="0" on="0"/>
        <pt x="143" y="-5" on="1"/>
        <pt x="140" y="11" on="1"/>
        <pt x="174" y="20" on="0"/>
        <pt x="174" y="41" on="1"/>
        <pt x="174" y="111" on="0"/>
        <pt x="66" y="529" on="1"/>
        <pt x="52" y="583" on="0"/>
        <pt x="33" y="616" on="1"/>
        <pt x="1" y="623" on="0"/>
        <pt x="-18" y="633" on="1"/>
        <pt x="-14" y="660" on="1"/>
        <pt x="72" y="650" on="0"/>
        <pt x="503" y="650" on="0"/>
        <pt x="615" y="660" on="1"/>
        <pt x="618" y="634" on="1"/>
        <pt x="590" y="623" on="0"/>
        <pt x="558" y="616" on="1"/>
        <pt x="577" y="404" on="0"/>
        <pt x="665" y="79" on="1"/>
        <pt x="737" y="387" on="0"/>
        <pt x="737" y="518" on="1"/>
        <pt x="737" y="612" on="0"/>
        <pt x="678" y="639" on="1"/>
        <pt x="681" y="659" on="1"/>
        <pt x="750" y="651" on="0"/>
        <pt x="875" y="651" on="0"/>
        <pt x="935" y="660" on="1"/>
        <pt x="939" y="633" on="1"/>
        <pt x="918" y="625" on="0"/>
        <pt x="883" y="617" on="1"/>
        <pt x="901" y="581" on="0"/>
        <pt x="901" y="453" on="0"/>
        <pt x="818" y="244" on="0"/>
        <pt x="705" y="32" on="1"/>
        <pt x="749" y="22" on="0"/>
        <pt x="772" y="15" on="1"/>
      </contour>
      <contour>
        <pt x="416" y="574" on="0"/>
        <pt x="387" y="618" on="0"/>
        <pt x="288" y="618" on="0"/>
        <pt x="238" y="605" on="1"/>
        <pt x="256" y="404" on="0"/>
        <pt x="344" y="79" on="1"/>
        <pt x="416" y="387" on="0"/>
        <pt x="416" y="518" on="1"/>
      </contour>
    </TTGlyph>
    <TTGlyph name="X" xMin="-14" yMin="-9" xMax="659" yMax="660">
      <contour>
        <pt x="362" y="427" on="1"/>
        <pt x="422" y="553" on="0"/>
        <pt x="422" y="630" on="0"/>
        <pt x="399" y="642" on="1"/>
        <pt x="403" y="658" on="1"/>
        <pt x="459" y="651" on="0"/>
        <pt x="590" y="651" on="0"/>
        <pt x="650" y="660" on="1"/>
        <pt x="654" y="633" on="1"/>
        <pt x="627" y="620" on="0"/>
        <pt x="598" y="614" on="1"/>
        <pt x="500" y="515" on="0"/>
        <pt x="397" y="378" on="1"/>
        <pt x="603" y="35" on="1"/>
        <pt x="639" y="27" on="0"/>
        <pt x="659" y="18" on="1"/>
        <pt x="655" y="-9" on="1"/>
        <pt x="595" y="0" on="0"/>
        <pt x="436" y="0" on="0"/>
        <pt x="388" y="-6" on="1"/>
        <pt x="384" y="9" on="1"/>
        <pt x="388" y="17" on="0"/>
        <pt x="388" y="44" on="1"/>
        <pt x="388" y="106" on="0"/>
        <pt x="283" y="276" on="1"/>
        <pt x="221" y="110" on="0"/>
        <pt x="221" y="35" on="1"/>
        <pt x="246" y="30" on="0"/>
        <pt x="276" y="17" on="1"/>
        <pt x="273" y="-9" on="1"/>
        <pt x="213" y="0" on="0"/>
        <pt x="51" y="0" on="0"/>
        <pt x="-9" y="-9" on="1"/>
        <pt x="-14" y="17" on="1"/>
        <pt x="8" y="28" on="0"/>
        <pt x="48" y="37" on="1"/>
        <pt x="177" y="229" on="0"/>
        <pt x="247" y="327" on="1"/>
        <pt x="63" y="616" on="1"/>
        <pt x="29" y="623" on="0"/>
        <pt x="11" y="633" on="1"/>
        <pt x="15" y="660" on="1"/>
        <pt x="75" y="651" on="0"/>
        <pt x="259" y="651" on="0"/>
        <pt x="349" y="660" on="1"/>
        <pt x="352" y="634" on="1"/>
        <pt x="327" y="624" on="0"/>
        <pt x="292" y="616" on="1"/>
        <pt x="292" y="579" on="0"/>
        <pt x="317" y="502" on="0"/>
      </contour>
    </TTGlyph>
    <TTGlyph name="Y" xMin="-22" yMin="-9" xMax="600" yMax="660">
      <contour>
        <pt x="389" y="575" on="0"/>
        <pt x="389" y="631" on="0"/>
        <pt x="367" y="642" on="1"/>
        <pt x="370" y="658" on="1"/>
        <pt x="435" y="651" on="0"/>
        <pt x="546" y="651" on="0"/>
        <pt x="596" y="660" on="1"/>
        <pt x="600" y="634" on="1"/>
        <pt x="576" y="621" on="0"/>
        <pt x="542" y="614" on="1"/>
        <pt x="366" y="328" on="1"/>
        <pt x="366" y="130" on="0"/>
        <pt x="379" y="34" on="1"/>
        <pt x="422" y="25" on="0"/>
        <pt x="439" y="17" on="1"/>
        <pt x="436" y="-9" on="1"/>
        <pt x="372" y="0" on="0"/>
        <pt x="195" y="0" on="0"/>
        <pt x="135" y="-9" on="1"/>
        <pt x="131" y="18" on="1"/>
        <pt x="152" y="29" on="0"/>
        <pt x="188" y="37" on="1"/>
        <pt x="200" y="127" on="0"/>
        <pt x="200" y="275" on="1"/>
        <pt x="200" y="301" on="1"/>
        <pt x="108" y="494" on="0"/>
        <pt x="51" y="596" on="0"/>
        <pt x="26" y="616" on="1"/>
        <pt x="-7" y="625" on="0"/>
        <pt x="-22" y="633" on="1"/>
        <pt x="-18" y="660" on="1"/>
        <pt x="46" y="651" on="0"/>
        <pt x="212" y="651" on="0"/>
        <pt x="283" y="660" on="1"/>
        <pt x="286" y="634" on="1"/>
        <pt x="269" y="626" on="0"/>
        <pt x="226" y="617" on="1"/>
        <pt x="288" y="432" on="0"/>
        <pt x="324" y="363" on="1"/>
        <pt x="366" y="488" on="0"/>
      </contour>
    </TTGlyph>
    <TTGlyph name="Yacute" xMin="-22" yMin="-9" xMax="600" yMax="906">
      <contour>
        <pt x="389" y="575" on="0"/>
        <pt x="389" y="631" on="0"/>
        <pt x="367" y="642" on="1"/>
        <pt x="370" y="658" on="1"/>
        <pt x="435" y="651" on="0"/>
        <pt x="546" y="651" on="0"/>
        <pt x="596" y="660" on="1"/>
        <pt x="600" y="634" on="1"/>
        <pt x="576" y="621" on="0"/>
        <pt x="542" y="614" on="1"/>
        <pt x="366" y="328" on="1"/>
        <pt x="366" y="130" on="0"/>
        <pt x="379" y="34" on="1"/>
        <pt x="422" y="25" on="0"/>
        <pt x="439" y="17" on="1"/>
        <pt x="436" y="-9" on="1"/>
        <pt x="372" y="0" on="0"/>
        <pt x="195" y="0" on="0"/>
        <pt x="135" y="-9" on="1"/>
        <pt x="131" y="18" on="1"/>
        <pt x="152" y="29" on="0"/>
        <pt x="188" y="37" on="1"/>
        <pt x="200" y="127" on="0"/>
        <pt x="200" y="275" on="1"/>
        <pt x="200" y="301" on="1"/>
        <pt x="108" y="494" on="0"/>
        <pt x="51" y="596" on="0"/>
        <pt x="26" y="616" on="1"/>
        <pt x="-7" y="625" on="0"/>
        <pt x="-22" y="633" on="1"/>
        <pt x="-18" y="660" on="1"/>
        <pt x="46" y="651" on="0"/>
        <pt x="212" y="651" on="0"/>
        <pt x="283" y="660" on="1"/>
        <pt x="286" y="634" on="1"/>
        <pt x="269" y="626" on="0"/>
        <pt x="226" y="617" on="1"/>
        <pt x="288" y="432" on="0"/>
        <pt x="324" y="363" on="1"/>
        <pt x="366" y="488" on="0"/>
      </contour>
      <contour>
        <pt x="481" y="903" on="1"/>
        <pt x="490" y="906" on="0"/>
        <pt x="522" y="906" on="0"/>
        <pt x="529" y="903" on="1"/>
        <pt x="538" y="887" on="0"/>
        <pt x="553" y="819" on="0"/>
        <pt x="554" y="793" on="1"/>
        <pt x="292" y="727" on="1"/>
        <pt x="282" y="751" on="1"/>
        <pt x="425" y="818" on="0"/>
      </contour>
    </TTGlyph>
    <TTGlyph name="Z" xMin="-22" yMin="-20" xMax="537" yMax="677">
      <contour>
        <pt x="39" y="667" on="0"/>
        <pt x="311" y="640" on="0"/>
        <pt x="444" y="640" on="0"/>
        <pt x="491" y="656" on="0"/>
        <pt x="515" y="677" on="1"/>
        <pt x="537" y="660" on="1"/>
        <pt x="508" y="633" on="0"/>
        <pt x="468" y="549" on="1"/>
        <pt x="243" y="87" on="1"/>
        <pt x="248" y="83" on="1"/>
        <pt x="317" y="83" on="1"/>
        <pt x="390" y="83" on="0"/>
        <pt x="421" y="126" on="1"/>
        <pt x="426" y="148" on="0"/>
        <pt x="426" y="197" on="1"/>
        <pt x="454" y="198" on="1"/>
        <pt x="463" y="67" on="0"/>
        <pt x="532" y="-5" on="1"/>
        <pt x="511" y="-20" on="1"/>
        <pt x="503" y="-10" on="0"/>
        <pt x="491" y="-2" on="1"/>
        <pt x="349" y="21" on="0"/>
        <pt x="153" y="21" on="1"/>
        <pt x="33" y="21" on="0"/>
        <pt x="0" y="-18" on="1"/>
        <pt x="-22" y="0" on="1"/>
        <pt x="2" y="23" on="0"/>
        <pt x="54" y="118" on="1"/>
        <pt x="315" y="572" on="1"/>
        <pt x="310" y="577" on="1"/>
        <pt x="215" y="577" on="1"/>
        <pt x="150" y="577" on="0"/>
        <pt x="108" y="538" on="1"/>
        <pt x="97" y="500" on="0"/>
        <pt x="82" y="469" on="1"/>
        <pt x="58" y="473" on="1"/>
        <pt x="60" y="511" on="0"/>
        <pt x="60" y="591" on="0"/>
        <pt x="51" y="627" on="1"/>
        <pt x="35" y="636" on="0"/>
        <pt x="4" y="644" on="1"/>
        <pt x="7" y="667" on="1"/>
      </contour>
    </TTGlyph>
    <TTGlyph name="a" xMin="24" yMin="-15" xMax="535" yMax="539">
      <contour>
        <pt x="24" y="192" on="1"/>
        <pt x="24" y="292" on="0"/>
        <pt x="164" y="462" on="0"/>
        <pt x="266" y="505" on="1"/>
        <pt x="351" y="505" on="0"/>
        <pt x="438" y="476" on="1"/>
        <pt x="461" y="503" on="0"/>
        <pt x="472" y="539" on="1"/>
        <pt x="494" y="532" on="1"/>
        <pt x="471" y="435" on="0"/>
        <pt x="471" y="202" on="1"/>
        <pt x="471" y="99" on="0"/>
        <pt x="479" y="40" on="1"/>
        <pt x="503" y="29" on="0"/>
        <pt x="535" y="27" on="1"/>
        <pt x="535" y="5" on="1"/>
        <pt x="426" y="5" on="0"/>
        <pt x="314" y="-15" on="1"/>
        <pt x="307" y="-8" on="1"/>
        <pt x="326" y="74" on="0"/>
        <pt x="326" y="159" on="1"/>
        <pt x="316" y="160" on="1"/>
        <pt x="279" y="61" on="0"/>
        <pt x="193" y="-15" on="1"/>
        <pt x="118" y="-15" on="0"/>
        <pt x="24" y="110" on="0"/>
      </contour>
      <contour>
        <pt x="183" y="238" on="1"/>
        <pt x="183" y="101" on="0"/>
        <pt x="226" y="101" on="1"/>
        <pt x="243" y="101" on="0"/>
        <pt x="294" y="165" on="0"/>
        <pt x="317" y="227" on="1"/>
        <pt x="317" y="354" on="0"/>
        <pt x="313" y="397" on="1"/>
        <pt x="287" y="429" on="0"/>
        <pt x="244" y="429" on="1"/>
        <pt x="220" y="429" on="0"/>
        <pt x="203" y="424" on="1"/>
        <pt x="183" y="345" on="0"/>
      </contour>
    </TTGlyph>
    <TTGlyph name="aacute" xMin="23" yMin="-15" xMax="534" yMax="747">
      <contour>
        <pt x="23" y="192" on="1"/>
        <pt x="23" y="292" on="0"/>
        <pt x="163" y="462" on="0"/>
        <pt x="265" y="505" on="1"/>
        <pt x="350" y="505" on="0"/>
        <pt x="437" y="476" on="1"/>
        <pt x="460" y="503" on="0"/>
        <pt x="471" y="539" on="1"/>
        <pt x="493" y="532" on="1"/>
        <pt x="470" y="435" on="0"/>
        <pt x="470" y="202" on="1"/>
        <pt x="470" y="99" on="0"/>
        <pt x="478" y="40" on="1"/>
        <pt x="502" y="29" on="0"/>
        <pt x="534" y="27" on="1"/>
        <pt x="534" y="5" on="1"/>
        <pt x="426" y="5" on="0"/>
        <pt x="313" y="-15" on="1"/>
        <pt x="306" y="-8" on="1"/>
        <pt x="325" y="74" on="0"/>
        <pt x="325" y="159" on="1"/>
        <pt x="315" y="160" on="1"/>
        <pt x="278" y="61" on="0"/>
        <pt x="192" y="-15" on="1"/>
        <pt x="117" y="-15" on="0"/>
        <pt x="23" y="110" on="0"/>
      </contour>
      <contour>
        <pt x="182" y="238" on="1"/>
        <pt x="182" y="101" on="0"/>
        <pt x="225" y="101" on="1"/>
        <pt x="242" y="101" on="0"/>
        <pt x="293" y="165" on="0"/>
        <pt x="316" y="227" on="1"/>
        <pt x="316" y="354" on="0"/>
        <pt x="312" y="397" on="1"/>
        <pt x="286" y="429" on="0"/>
        <pt x="243" y="429" on="1"/>
        <pt x="220" y="429" on="0"/>
        <pt x="202" y="424" on="1"/>
        <pt x="182" y="345" on="0"/>
      </contour>
      <contour>
        <pt x="413" y="744" on="1"/>
        <pt x="422" y="747" on="0"/>
        <pt x="455" y="747" on="0"/>
        <pt x="461" y="745" on="1"/>
        <pt x="470" y="730" on="0"/>
        <pt x="485" y="651" on="0"/>
        <pt x="486" y="624" on="1"/>
        <pt x="224" y="527" on="1"/>
        <pt x="214" y="551" on="1"/>
        <pt x="339" y="619" on="0"/>
      </contour>
    </TTGlyph>
    <TTGlyph name="acircumflex" xMin="23" yMin="-15" xMax="534" yMax="747">
      <contour>
        <pt x="271" y="747" on="0"/>
        <pt x="301" y="747" on="0"/>
        <pt x="307" y="745" on="1"/>
        <pt x="340" y="694" on="0"/>
        <pt x="423" y="620" on="0"/>
        <pt x="488" y="578" on="1"/>
        <pt x="478" y="554" on="1"/>
        <pt x="286" y="626" on="1"/>
        <pt x="80" y="527" on="1"/>
        <pt x="70" y="551" on="1"/>
        <pt x="196" y="627" on="0"/>
        <pt x="265" y="745" on="1"/>
      </contour>
      <contour>
        <pt x="23" y="192" on="1"/>
        <pt x="23" y="292" on="0"/>
        <pt x="163" y="462" on="0"/>
        <pt x="265" y="505" on="1"/>
        <pt x="350" y="505" on="0"/>
        <pt x="437" y="476" on="1"/>
        <pt x="460" y="503" on="0"/>
        <pt x="471" y="539" on="1"/>
        <pt x="493" y="532" on="1"/>
        <pt x="470" y="435" on="0"/>
        <pt x="470" y="202" on="1"/>
        <pt x="470" y="99" on="0"/>
        <pt x="478" y="40" on="1"/>
        <pt x="502" y="29" on="0"/>
        <pt x="534" y="27" on="1"/>
        <pt x="534" y="5" on="1"/>
        <pt x="426" y="5" on="0"/>
        <pt x="313" y="-15" on="1"/>
        <pt x="306" y="-8" on="1"/>
        <pt x="325" y="74" on="0"/>
        <pt x="325" y="159" on="1"/>
        <pt x="315" y="160" on="1"/>
        <pt x="278" y="61" on="0"/>
        <pt x="192" y="-15" on="1"/>
        <pt x="117" y="-15" on="0"/>
        <pt x="23" y="110" on="0"/>
      </contour>
      <contour>
        <pt x="182" y="238" on="1"/>
        <pt x="182" y="101" on="0"/>
        <pt x="225" y="101" on="1"/>
        <pt x="242" y="101" on="0"/>
        <pt x="293" y="165" on="0"/>
        <pt x="316" y="227" on="1"/>
        <pt x="316" y="354" on="0"/>
        <pt x="312" y="397" on="1"/>
        <pt x="286" y="429" on="0"/>
        <pt x="243" y="429" on="1"/>
        <pt x="220" y="429" on="0"/>
        <pt x="202" y="424" on="1"/>
        <pt x="182" y="345" on="0"/>
      </contour>
    </TTGlyph>
    <TTGlyph name="acute" xMin="0" yMin="527" xMax="272" yMax="747">
      <contour>
        <pt x="199" y="744" on="1"/>
        <pt x="208" y="747" on="0"/>
        <pt x="241" y="747" on="0"/>
        <pt x="247" y="745" on="1"/>
        <pt x="256" y="730" on="0"/>
        <pt x="271" y="651" on="0"/>
        <pt x="272" y="624" on="1"/>
        <pt x="10" y="527" on="1"/>
        <pt x="0" y="551" on="1"/>
        <pt x="125" y="619" on="0"/>
      </contour>
    </TTGlyph>
    <TTGlyph name="acute.cap" xMin="0" yMin="717" xMax="272" yMax="896">
      <contour>
        <pt x="199" y="893" on="1"/>
        <pt x="208" y="896" on="0"/>
        <pt x="240" y="896" on="0"/>
        <pt x="247" y="893" on="1"/>
        <pt x="256" y="877" on="0"/>
        <pt x="271" y="809" on="0"/>
        <pt x="272" y="783" on="1"/>
        <pt x="10" y="717" on="1"/>
        <pt x="0" y="741" on="1"/>
        <pt x="143" y="808" on="0"/>
      </contour>
    </TTGlyph>
    <TTGlyph name="adieresis" xMin="23" yMin="-15" xMax="534" yMax="717">
      <contour>
        <pt x="23" y="192" on="1"/>
        <pt x="23" y="292" on="0"/>
        <pt x="163" y="462" on="0"/>
        <pt x="265" y="505" on="1"/>
        <pt x="350" y="505" on="0"/>
        <pt x="437" y="476" on="1"/>
        <pt x="460" y="503" on="0"/>
        <pt x="471" y="539" on="1"/>
        <pt x="493" y="532" on="1"/>
        <pt x="470" y="435" on="0"/>
        <pt x="470" y="202" on="1"/>
        <pt x="470" y="99" on="0"/>
        <pt x="478" y="40" on="1"/>
        <pt x="502" y="29" on="0"/>
        <pt x="534" y="27" on="1"/>
        <pt x="534" y="5" on="1"/>
        <pt x="426" y="5" on="0"/>
        <pt x="313" y="-15" on="1"/>
        <pt x="306" y="-8" on="1"/>
        <pt x="325" y="74" on="0"/>
        <pt x="325" y="159" on="1"/>
        <pt x="315" y="160" on="1"/>
        <pt x="278" y="61" on="0"/>
        <pt x="192" y="-15" on="1"/>
        <pt x="117" y="-15" on="0"/>
        <pt x="23" y="110" on="0"/>
      </contour>
      <contour>
        <pt x="182" y="238" on="1"/>
        <pt x="182" y="101" on="0"/>
        <pt x="225" y="101" on="1"/>
        <pt x="242" y="101" on="0"/>
        <pt x="293" y="165" on="0"/>
        <pt x="316" y="227" on="1"/>
        <pt x="316" y="354" on="0"/>
        <pt x="312" y="397" on="1"/>
        <pt x="286" y="429" on="0"/>
        <pt x="243" y="429" on="1"/>
        <pt x="220" y="429" on="0"/>
        <pt x="202" y="424" on="1"/>
        <pt x="182" y="345" on="0"/>
      </contour>
      <contour>
        <pt x="258" y="641" on="1"/>
        <pt x="248" y="620" on="0"/>
        <pt x="191" y="561" on="0"/>
        <pt x="169" y="546" on="1"/>
        <pt x="147" y="561" on="0"/>
        <pt x="90" y="620" on="0"/>
        <pt x="79" y="641" on="1"/>
        <pt x="91" y="661" on="0"/>
        <pt x="144" y="706" on="0"/>
        <pt x="169" y="717" on="1"/>
        <pt x="192" y="705" on="0"/>
        <pt x="245" y="660" on="0"/>
      </contour>
      <contour>
        <pt x="480" y="641" on="1"/>
        <pt x="470" y="620" on="0"/>
        <pt x="413" y="561" on="0"/>
        <pt x="391" y="546" on="1"/>
        <pt x="369" y="561" on="0"/>
        <pt x="312" y="620" on="0"/>
        <pt x="301" y="641" on="1"/>
        <pt x="313" y="661" on="0"/>
        <pt x="366" y="706" on="0"/>
        <pt x="391" y="717" on="1"/>
        <pt x="414" y="705" on="0"/>
        <pt x="467" y="660" on="0"/>
      </contour>
    </TTGlyph>
    <TTGlyph name="ae" xMin="24" yMin="-15" xMax="757" yMax="505">
      <contour>
        <pt x="579" y="92" on="1"/>
        <pt x="617" y="92" on="0"/>
        <pt x="691" y="133" on="0"/>
        <pt x="718" y="166" on="1"/>
        <pt x="731" y="155" on="1"/>
        <pt x="669" y="44" on="0"/>
        <pt x="540" y="-15" on="1"/>
        <pt x="380" y="-15" on="0"/>
        <pt x="333" y="122" on="1"/>
        <pt x="314" y="89" on="0"/>
        <pt x="218" y="4" on="0"/>
        <pt x="182" y="-15" on="1"/>
        <pt x="113" y="-6" on="0"/>
        <pt x="24" y="94" on="0"/>
        <pt x="24" y="163" on="1"/>
        <pt x="24" y="265" on="0"/>
        <pt x="196" y="468" on="0"/>
        <pt x="302" y="505" on="1"/>
        <pt x="381" y="505" on="0"/>
        <pt x="466" y="475" on="1"/>
        <pt x="482" y="488" on="0"/>
        <pt x="496" y="497" on="1"/>
        <pt x="533" y="505" on="0"/>
        <pt x="573" y="505" on="1"/>
        <pt x="636" y="505" on="0"/>
        <pt x="704" y="436" on="0"/>
        <pt x="704" y="373" on="1"/>
        <pt x="704" y="364" on="0"/>
        <pt x="702" y="338" on="1"/>
        <pt x="726" y="332" on="0"/>
        <pt x="751" y="332" on="0"/>
        <pt x="755" y="333" on="1"/>
        <pt x="757" y="311" on="1"/>
        <pt x="624" y="289" on="0"/>
        <pt x="467" y="226" on="1"/>
        <pt x="476" y="92" on="0"/>
      </contour>
      <contour>
        <pt x="187" y="193" on="1"/>
        <pt x="187" y="151" on="0"/>
        <pt x="214" y="101" on="0"/>
        <pt x="248" y="101" on="0"/>
        <pt x="303" y="134" on="0"/>
        <pt x="320" y="165" on="1"/>
        <pt x="320" y="258" on="0"/>
        <pt x="377" y="379" on="1"/>
        <pt x="337" y="429" on="0"/>
        <pt x="280" y="429" on="1"/>
        <pt x="256" y="429" on="0"/>
        <pt x="239" y="424" on="1"/>
        <pt x="187" y="305" on="0"/>
      </contour>
      <contour>
        <pt x="510" y="429" on="1"/>
        <pt x="492" y="429" on="0"/>
        <pt x="476" y="421" on="1"/>
        <pt x="465" y="366" on="0"/>
        <pt x="465" y="264" on="1"/>
        <pt x="501" y="281" on="0"/>
        <pt x="564" y="305" on="1"/>
        <pt x="564" y="371" on="0"/>
        <pt x="541" y="429" on="0"/>
      </contour>
    </TTGlyph>
    <TTGlyph name="agrave" xMin="23" yMin="-15" xMax="534" yMax="747">
      <contour>
        <pt x="105" y="745" on="1"/>
        <pt x="111" y="747" on="0"/>
        <pt x="144" y="747" on="0"/>
        <pt x="153" y="744" on="1"/>
        <pt x="227" y="619" on="0"/>
        <pt x="352" y="551" on="1"/>
        <pt x="342" y="527" on="1"/>
        <pt x="80" y="624" on="1"/>
        <pt x="81" y="651" on="0"/>
        <pt x="96" y="730" on="0"/>
      </contour>
      <contour>
        <pt x="23" y="192" on="1"/>
        <pt x="23" y="292" on="0"/>
        <pt x="163" y="462" on="0"/>
        <pt x="265" y="505" on="1"/>
        <pt x="350" y="505" on="0"/>
        <pt x="437" y="476" on="1"/>
        <pt x="460" y="503" on="0"/>
        <pt x="471" y="539" on="1"/>
        <pt x="493" y="532" on="1"/>
        <pt x="470" y="435" on="0"/>
        <pt x="470" y="202" on="1"/>
        <pt x="470" y="99" on="0"/>
        <pt x="478" y="40" on="1"/>
        <pt x="502" y="29" on="0"/>
        <pt x="534" y="27" on="1"/>
        <pt x="534" y="5" on="1"/>
        <pt x="426" y="5" on="0"/>
        <pt x="313" y="-15" on="1"/>
        <pt x="306" y="-8" on="1"/>
        <pt x="325" y="74" on="0"/>
        <pt x="325" y="159" on="1"/>
        <pt x="315" y="160" on="1"/>
        <pt x="278" y="61" on="0"/>
        <pt x="192" y="-15" on="1"/>
        <pt x="117" y="-15" on="0"/>
        <pt x="23" y="110" on="0"/>
      </contour>
      <contour>
        <pt x="182" y="238" on="1"/>
        <pt x="182" y="101" on="0"/>
        <pt x="225" y="101" on="1"/>
        <pt x="242" y="101" on="0"/>
        <pt x="293" y="165" on="0"/>
        <pt x="316" y="227" on="1"/>
        <pt x="316" y="354" on="0"/>
        <pt x="312" y="397" on="1"/>
        <pt x="286" y="429" on="0"/>
        <pt x="243" y="429" on="1"/>
        <pt x="220" y="429" on="0"/>
        <pt x="202" y="424" on="1"/>
        <pt x="182" y="345" on="0"/>
      </contour>
    </TTGlyph>
    <TTGlyph name="ampersand" xMin="34" yMin="-15" xMax="679" yMax="666">
      <contour>
        <pt x="573" y="318" on="1"/>
        <pt x="573" y="237" on="0"/>
        <pt x="506" y="167" on="1"/>
        <pt x="524" y="138" on="0"/>
        <pt x="598" y="57" on="0"/>
        <pt x="625" y="34" on="1"/>
        <pt x="657" y="30" on="0"/>
        <pt x="679" y="24" on="1"/>
        <pt x="676" y="-2" on="1"/>
        <pt x="631" y="1" on="0"/>
        <pt x="592" y="1" on="1"/>
        <pt x="477" y="1" on="0"/>
        <pt x="407" y="-15" on="1"/>
        <pt x="403" y="-1" on="1"/>
        <pt x="409" y="9" on="0"/>
        <pt x="409" y="42" on="0"/>
        <pt x="399" y="54" on="1"/>
        <pt x="353" y="11" on="0"/>
        <pt x="297" y="-15" on="1"/>
        <pt x="186" y="-15" on="0"/>
        <pt x="34" y="93" on="0"/>
        <pt x="34" y="191" on="1"/>
        <pt x="34" y="302" on="0"/>
        <pt x="178" y="364" on="1"/>
        <pt x="155" y="400" on="0"/>
        <pt x="117" y="503" on="0"/>
        <pt x="117" y="538" on="1"/>
        <pt x="145" y="574" on="0"/>
        <pt x="281" y="656" on="0"/>
        <pt x="328" y="666" on="1"/>
        <pt x="420" y="666" on="0"/>
        <pt x="467" y="626" on="1"/>
        <pt x="494" y="603" on="0"/>
        <pt x="494" y="529" on="0"/>
        <pt x="428" y="461" on="0"/>
        <pt x="384" y="443" on="1"/>
        <pt x="385" y="438" on="1"/>
        <pt x="618" y="456" on="1"/>
        <pt x="622" y="452" on="1"/>
        <pt x="615" y="433" on="0"/>
        <pt x="608" y="401" on="1"/>
        <pt x="498" y="408" on="0"/>
        <pt x="478" y="409" on="1"/>
        <pt x="478" y="404" on="1"/>
        <pt x="573" y="388" on="0"/>
      </contour>
      <contour>
        <pt x="273" y="562" on="1"/>
        <pt x="273" y="511" on="0"/>
        <pt x="410" y="279" on="0"/>
        <pt x="472" y="209" on="1"/>
        <pt x="482" y="243" on="0"/>
        <pt x="482" y="293" on="1"/>
        <pt x="482" y="412" on="0"/>
        <pt x="350" y="417" on="1"/>
        <pt x="343" y="436" on="1"/>
        <pt x="388" y="473" on="0"/>
        <pt x="388" y="526" on="1"/>
        <pt x="388" y="560" on="0"/>
        <pt x="348" y="605" on="0"/>
        <pt x="292" y="605" on="0"/>
        <pt x="280" y="600" on="1"/>
        <pt x="273" y="582" on="0"/>
      </contour>
      <contour>
        <pt x="317" y="75" on="1"/>
        <pt x="348" y="75" on="0"/>
        <pt x="373" y="91" on="1"/>
        <pt x="298" y="173" on="0"/>
        <pt x="216" y="300" on="1"/>
        <pt x="204" y="278" on="0"/>
        <pt x="204" y="168" on="0"/>
        <pt x="260" y="75" on="0"/>
      </contour>
    </TTGlyph>
    <TTGlyph name="aring" xMin="23" yMin="-15" xMax="534" yMax="736">
      <contour>
        <pt x="23" y="192" on="1"/>
        <pt x="23" y="292" on="0"/>
        <pt x="163" y="462" on="0"/>
        <pt x="265" y="505" on="1"/>
        <pt x="350" y="505" on="0"/>
        <pt x="437" y="476" on="1"/>
        <pt x="460" y="503" on="0"/>
        <pt x="471" y="539" on="1"/>
        <pt x="493" y="532" on="1"/>
        <pt x="470" y="435" on="0"/>
        <pt x="470" y="202" on="1"/>
        <pt x="470" y="99" on="0"/>
        <pt x="478" y="40" on="1"/>
        <pt x="502" y="29" on="0"/>
        <pt x="534" y="27" on="1"/>
        <pt x="534" y="5" on="1"/>
        <pt x="426" y="5" on="0"/>
        <pt x="313" y="-15" on="1"/>
        <pt x="306" y="-8" on="1"/>
        <pt x="325" y="74" on="0"/>
        <pt x="325" y="159" on="1"/>
        <pt x="315" y="160" on="1"/>
        <pt x="278" y="61" on="0"/>
        <pt x="192" y="-15" on="1"/>
        <pt x="117" y="-15" on="0"/>
        <pt x="23" y="110" on="0"/>
      </contour>
      <contour>
        <pt x="182" y="238" on="1"/>
        <pt x="182" y="101" on="0"/>
        <pt x="225" y="101" on="1"/>
        <pt x="242" y="101" on="0"/>
        <pt x="293" y="165" on="0"/>
        <pt x="316" y="227" on="1"/>
        <pt x="316" y="354" on="0"/>
        <pt x="312" y="397" on="1"/>
        <pt x="286" y="429" on="0"/>
        <pt x="243" y="429" on="1"/>
        <pt x="220" y="429" on="0"/>
        <pt x="202" y="424" on="1"/>
        <pt x="182" y="345" on="0"/>
      </contour>
      <contour>
        <pt x="234" y="529" on="0"/>
        <pt x="170" y="572" on="0"/>
        <pt x="170" y="658" on="0"/>
        <pt x="237" y="725" on="0"/>
        <pt x="288" y="736" on="1"/>
        <pt x="391" y="736" on="0"/>
        <pt x="391" y="652" on="1"/>
        <pt x="391" y="607" on="0"/>
        <pt x="329" y="543" on="0"/>
        <pt x="281" y="529" on="1"/>
      </contour>
      <contour>
        <pt x="330" y="656" on="0"/>
        <pt x="299" y="688" on="0"/>
        <pt x="249" y="688" on="0"/>
        <pt x="238" y="680" on="1"/>
        <pt x="231" y="662" on="0"/>
        <pt x="231" y="609" on="0"/>
        <pt x="263" y="576" on="0"/>
        <pt x="310" y="576" on="0"/>
        <pt x="323" y="585" on="1"/>
        <pt x="330" y="603" on="0"/>
      </contour>
    </TTGlyph>
    <TTGlyph name="asciicircum" xMin="45" yMin="278" xMax="473" yMax="696">
      <contour>
        <pt x="259" y="550" on="1"/>
        <pt x="79" y="278" on="1"/>
        <pt x="45" y="296" on="1"/>
        <pt x="103" y="399" on="0"/>
        <pt x="176" y="549" on="0"/>
        <pt x="231" y="686" on="1"/>
        <pt x="284" y="696" on="1"/>
        <pt x="341" y="556" on="0"/>
        <pt x="417" y="395" on="0"/>
        <pt x="473" y="296" on="1"/>
        <pt x="439" y="278" on="1"/>
      </contour>
    </TTGlyph>
    <TTGlyph name="asciitilde" xMin="0" yMin="156" xMax="637" yMax="387">
      <contour>
        <pt x="461" y="272" on="1"/>
        <pt x="551" y="272" on="0"/>
        <pt x="613" y="366" on="1"/>
        <pt x="637" y="350" on="1"/>
        <pt x="611" y="287" on="0"/>
        <pt x="498" y="177" on="0"/>
        <pt x="441" y="156" on="1"/>
        <pt x="398" y="156" on="0"/>
        <pt x="198" y="265" on="0"/>
        <pt x="155" y="265" on="1"/>
        <pt x="70" y="265" on="0"/>
        <pt x="25" y="178" on="1"/>
        <pt x="0" y="194" on="1"/>
        <pt x="29" y="262" on="0"/>
        <pt x="153" y="379" on="0"/>
        <pt x="210" y="387" on="1"/>
        <pt x="266" y="339" on="0"/>
        <pt x="404" y="272" on="0"/>
      </contour>
    </TTGlyph>
    <TTGlyph name="asterisk" xMin="41" yMin="383" xMax="327" yMax="711">
      <contour>
        <pt x="283" y="630" on="1"/>
        <pt x="299" y="632" on="0"/>
        <pt x="322" y="632" on="0"/>
        <pt x="326" y="629" on="1"/>
        <pt x="327" y="623" on="0"/>
        <pt x="305" y="591" on="1"/>
        <pt x="325" y="571" on="0"/>
        <pt x="327" y="568" on="1"/>
        <pt x="326" y="565" on="1"/>
        <pt x="321" y="565" on="0"/>
        <pt x="317" y="565" on="1"/>
        <pt x="271" y="565" on="0"/>
        <pt x="217" y="547" on="1"/>
        <pt x="271" y="529" on="0"/>
        <pt x="317" y="529" on="1"/>
        <pt x="321" y="529" on="0"/>
        <pt x="326" y="529" on="1"/>
        <pt x="327" y="526" on="1"/>
        <pt x="325" y="523" on="0"/>
        <pt x="305" y="503" on="1"/>
        <pt x="327" y="471" on="0"/>
        <pt x="326" y="465" on="1"/>
        <pt x="322" y="462" on="0"/>
        <pt x="299" y="462" on="0"/>
        <pt x="283" y="464" on="1"/>
        <pt x="275" y="436" on="0"/>
        <pt x="274" y="434" on="1"/>
        <pt x="270" y="433" on="1"/>
        <pt x="245" y="477" on="0"/>
        <pt x="201" y="516" on="1"/>
        <pt x="212" y="457" on="0"/>
        <pt x="240" y="415" on="1"/>
        <pt x="237" y="413" on="1"/>
        <pt x="231" y="413" on="0"/>
        <pt x="206" y="420" on="1"/>
        <pt x="191" y="386" on="0"/>
        <pt x="184" y="383" on="1"/>
        <pt x="174" y="388" on="0"/>
        <pt x="162" y="420" on="1"/>
        <pt x="137" y="413" on="0"/>
        <pt x="131" y="413" on="1"/>
        <pt x="128" y="415" on="1"/>
        <pt x="151" y="453" on="0"/>
        <pt x="165" y="516" on="1"/>
        <pt x="119" y="473" on="0"/>
        <pt x="98" y="433" on="1"/>
        <pt x="94" y="434" on="1"/>
        <pt x="93" y="436" on="0"/>
        <pt x="85" y="464" on="1"/>
        <pt x="69" y="463" on="0"/>
        <pt x="45" y="463" on="0"/>
        <pt x="42" y="465" on="1"/>
        <pt x="41" y="476" on="0"/>
        <pt x="63" y="503" on="1"/>
        <pt x="43" y="523" on="0"/>
        <pt x="41" y="526" on="1"/>
        <pt x="42" y="529" on="1"/>
        <pt x="88" y="529" on="0"/>
        <pt x="147" y="547" on="1"/>
        <pt x="88" y="565" on="0"/>
        <pt x="42" y="565" on="1"/>
        <pt x="41" y="568" on="1"/>
        <pt x="43" y="571" on="0"/>
        <pt x="63" y="591" on="1"/>
        <pt x="41" y="618" on="0"/>
        <pt x="42" y="629" on="1"/>
        <pt x="45" y="631" on="0"/>
        <pt x="69" y="631" on="0"/>
        <pt x="85" y="630" on="1"/>
        <pt x="93" y="658" on="0"/>
        <pt x="94" y="660" on="1"/>
        <pt x="98" y="661" on="1"/>
        <pt x="119" y="621" on="0"/>
        <pt x="165" y="578" on="1"/>
        <pt x="151" y="640" on="0"/>
        <pt x="128" y="679" on="1"/>
        <pt x="131" y="681" on="1"/>
        <pt x="138" y="681" on="0"/>
        <pt x="162" y="674" on="1"/>
        <pt x="174" y="706" on="0"/>
        <pt x="184" y="711" on="1"/>
        <pt x="191" y="708" on="0"/>
        <pt x="206" y="674" on="1"/>
        <pt x="231" y="681" on="0"/>
        <pt x="237" y="681" on="1"/>
        <pt x="240" y="679" on="1"/>
        <pt x="212" y="635" on="0"/>
        <pt x="201" y="578" on="1"/>
        <pt x="246" y="619" on="0"/>
        <pt x="270" y="661" on="1"/>
        <pt x="274" y="660" on="1"/>
        <pt x="275" y="658" on="0"/>
      </contour>
    </TTGlyph>
    <TTGlyph name="at" xMin="42" yMin="-190" xMax="858" yMax="684">
      <contour>
        <pt x="209" y="192" on="1"/>
        <pt x="209" y="292" on="0"/>
        <pt x="349" y="462" on="0"/>
        <pt x="451" y="505" on="1"/>
        <pt x="536" y="505" on="0"/>
        <pt x="623" y="476" on="1"/>
        <pt x="644" y="500" on="0"/>
        <pt x="653" y="529" on="1"/>
        <pt x="677" y="522" on="1"/>
        <pt x="656" y="433" on="0"/>
        <pt x="656" y="202" on="1"/>
        <pt x="656" y="106" on="0"/>
        <pt x="663" y="49" on="1"/>
        <pt x="717" y="94" on="0"/>
        <pt x="774" y="253" on="0"/>
        <pt x="774" y="336" on="1"/>
        <pt x="774" y="634" on="0"/>
        <pt x="469" y="634" on="1"/>
        <pt x="362" y="634" on="0"/>
        <pt x="290" y="585" on="1"/>
        <pt x="215" y="505" on="0"/>
        <pt x="128" y="287" on="0"/>
        <pt x="128" y="178" on="1"/>
        <pt x="128" y="26" on="0"/>
        <pt x="274" y="-140" on="0"/>
        <pt x="420" y="-140" on="1"/>
        <pt x="482" y="-140" on="0"/>
        <pt x="539" y="-118" on="1"/>
        <pt x="546" y="-131" on="1"/>
        <pt x="486" y="-173" on="0"/>
        <pt x="412" y="-190" on="1"/>
        <pt x="232" y="-190" on="0"/>
        <pt x="42" y="-15" on="0"/>
        <pt x="42" y="161" on="1"/>
        <pt x="42" y="363" on="0"/>
        <pt x="288" y="656" on="0"/>
        <pt x="485" y="684" on="1"/>
        <pt x="656" y="684" on="0"/>
        <pt x="858" y="528" on="0"/>
        <pt x="858" y="229" on="0"/>
        <pt x="692" y="2" on="0"/>
        <pt x="563" y="-15" on="1"/>
        <pt x="511" y="4" on="0"/>
        <pt x="511" y="159" on="1"/>
        <pt x="501" y="160" on="1"/>
        <pt x="464" y="61" on="0"/>
        <pt x="378" y="-15" on="1"/>
        <pt x="303" y="-15" on="0"/>
        <pt x="209" y="110" on="0"/>
      </contour>
      <contour>
        <pt x="368" y="238" on="1"/>
        <pt x="368" y="101" on="0"/>
        <pt x="411" y="101" on="1"/>
        <pt x="428" y="101" on="0"/>
        <pt x="479" y="165" on="0"/>
        <pt x="502" y="227" on="1"/>
        <pt x="502" y="354" on="0"/>
        <pt x="498" y="397" on="1"/>
        <pt x="472" y="429" on="0"/>
        <pt x="429" y="429" on="1"/>
        <pt x="406" y="429" on="0"/>
        <pt x="388" y="424" on="1"/>
        <pt x="368" y="345" on="0"/>
      </contour>
    </TTGlyph>
    <TTGlyph name="atilde" xMin="23" yMin="-15" xMax="534" yMax="723">
      <contour>
        <pt x="23" y="192" on="1"/>
        <pt x="23" y="292" on="0"/>
        <pt x="163" y="462" on="0"/>
        <pt x="265" y="505" on="1"/>
        <pt x="350" y="505" on="0"/>
        <pt x="437" y="476" on="1"/>
        <pt x="460" y="503" on="0"/>
        <pt x="471" y="539" on="1"/>
        <pt x="493" y="532" on="1"/>
        <pt x="470" y="435" on="0"/>
        <pt x="470" y="202" on="1"/>
        <pt x="470" y="99" on="0"/>
        <pt x="478" y="40" on="1"/>
        <pt x="502" y="29" on="0"/>
        <pt x="534" y="27" on="1"/>
        <pt x="534" y="5" on="1"/>
        <pt x="426" y="5" on="0"/>
        <pt x="313" y="-15" on="1"/>
        <pt x="306" y="-8" on="1"/>
        <pt x="325" y="74" on="0"/>
        <pt x="325" y="159" on="1"/>
        <pt x="315" y="160" on="1"/>
        <pt x="278" y="61" on="0"/>
        <pt x="192" y="-15" on="1"/>
        <pt x="117" y="-15" on="0"/>
        <pt x="23" y="110" on="0"/>
      </contour>
      <contour>
        <pt x="182" y="238" on="1"/>
        <pt x="182" y="101" on="0"/>
        <pt x="225" y="101" on="1"/>
        <pt x="242" y="101" on="0"/>
        <pt x="293" y="165" on="0"/>
        <pt x="316" y="227" on="1"/>
        <pt x="316" y="354" on="0"/>
        <pt x="312" y="397" on="1"/>
        <pt x="286" y="429" on="0"/>
        <pt x="243" y="429" on="1"/>
        <pt x="220" y="429" on="0"/>
        <pt x="202" y="424" on="1"/>
        <pt x="182" y="345" on="0"/>
      </contour>
      <contour>
        <pt x="400" y="672" on="1"/>
        <pt x="459" y="672" on="0"/>
        <pt x="486" y="711" on="1"/>
        <pt x="510" y="694" on="1"/>
        <pt x="435" y="592" on="0"/>
        <pt x="372" y="558" on="1"/>
        <pt x="345" y="558" on="0"/>
        <pt x="209" y="610" on="0"/>
        <pt x="180" y="610" on="1"/>
        <pt x="123" y="610" on="0"/>
        <pt x="98" y="571" on="1"/>
        <pt x="74" y="588" on="1"/>
        <pt x="146" y="688" on="0"/>
        <pt x="243" y="723" on="1"/>
        <pt x="322" y="672" on="0"/>
      </contour>
    </TTGlyph>
    <TTGlyph name="b" xMin="50" yMin="-15" xMax="521" yMax="740">
      <contour>
        <pt x="521" y="298" on="1"/>
        <pt x="521" y="198" on="0"/>
        <pt x="381" y="28" on="0"/>
        <pt x="279" y="-15" on="1"/>
        <pt x="193" y="-15" on="0"/>
        <pt x="55" y="30" on="1"/>
        <pt x="75" y="169" on="0"/>
        <pt x="75" y="520" on="0"/>
        <pt x="68" y="666" on="0"/>
        <pt x="50" y="733" on="1"/>
        <pt x="74" y="740" on="1"/>
        <pt x="84" y="703" on="0"/>
        <pt x="105" y="678" on="1"/>
        <pt x="189" y="684" on="0"/>
        <pt x="284" y="711" on="1"/>
        <pt x="289" y="692" on="1"/>
        <pt x="277" y="682" on="0"/>
        <pt x="240" y="659" on="1"/>
        <pt x="231" y="622" on="0"/>
        <pt x="219" y="389" on="0"/>
        <pt x="219" y="331" on="1"/>
        <pt x="229" y="330" on="1"/>
        <pt x="266" y="429" on="0"/>
        <pt x="352" y="505" on="1"/>
        <pt x="427" y="505" on="0"/>
        <pt x="521" y="380" on="0"/>
      </contour>
      <contour>
        <pt x="366" y="252" on="1"/>
        <pt x="366" y="389" on="0"/>
        <pt x="323" y="389" on="1"/>
        <pt x="306" y="389" on="0"/>
        <pt x="255" y="325" on="0"/>
        <pt x="232" y="263" on="1"/>
        <pt x="232" y="136" on="0"/>
        <pt x="236" y="93" on="1"/>
        <pt x="262" y="61" on="0"/>
        <pt x="305" y="61" on="1"/>
        <pt x="328" y="61" on="0"/>
        <pt x="346" y="66" on="1"/>
        <pt x="366" y="145" on="0"/>
      </contour>
    </TTGlyph>
    <TTGlyph name="backslash" xMin="14" yMin="-45" xMax="330" yMax="717">
      <contour>
        <pt x="275" y="-45" on="1"/>
        <pt x="270" y="-45" on="1"/>
        <pt x="92" y="478" on="1"/>
        <pt x="46" y="615" on="0"/>
        <pt x="14" y="696" on="1"/>
        <pt x="15" y="696" on="0"/>
        <pt x="67" y="712" on="0"/>
        <pt x="76" y="717" on="1"/>
        <pt x="80" y="717" on="1"/>
        <pt x="106" y="622" on="0"/>
        <pt x="149" y="493" on="1"/>
        <pt x="258" y="175" on="1"/>
        <pt x="290" y="82" on="0"/>
        <pt x="330" y="-17" on="1"/>
        <pt x="324" y="-24" on="0"/>
      </contour>
    </TTGlyph>
    <TTGlyph name="bar" xMin="82" yMin="-216" xMax="153" yMax="750">
      <contour>
        <pt x="151" y="-199" on="1"/>
        <pt x="96" y="-216" on="1"/>
        <pt x="89" y="-213" on="1"/>
        <pt x="89" y="476" on="0"/>
        <pt x="82" y="723" on="1"/>
        <pt x="87" y="725" on="0"/>
        <pt x="102" y="730" on="1"/>
        <pt x="139" y="744" on="0"/>
        <pt x="148" y="750" on="1"/>
        <pt x="153" y="749" on="1"/>
        <pt x="151" y="607" on="0"/>
      </contour>
    </TTGlyph>
    <TTGlyph name="braceleft" xMin="44" yMin="-215" xMax="230" yMax="711">
      <contour>
        <pt x="174" y="-201" on="0"/>
        <pt x="79" y="-116" on="0"/>
        <pt x="79" y="-26" on="0"/>
        <pt x="116" y="130" on="0"/>
        <pt x="116" y="177" on="1"/>
        <pt x="116" y="197" on="0"/>
        <pt x="73" y="232" on="0"/>
        <pt x="48" y="236" on="1"/>
        <pt x="44" y="255" on="1"/>
        <pt x="70" y="261" on="0"/>
        <pt x="116" y="297" on="0"/>
        <pt x="116" y="319" on="1"/>
        <pt x="116" y="366" on="0"/>
        <pt x="79" y="522" on="0"/>
        <pt x="79" y="612" on="0"/>
        <pt x="174" y="697" on="0"/>
        <pt x="224" y="711" on="1"/>
        <pt x="229" y="693" on="1"/>
        <pt x="174" y="665" on="0"/>
        <pt x="154" y="604" on="1"/>
        <pt x="154" y="557" on="0"/>
        <pt x="199" y="369" on="0"/>
        <pt x="199" y="329" on="1"/>
        <pt x="185" y="295" on="0"/>
        <pt x="108" y="250" on="1"/>
        <pt x="108" y="246" on="1"/>
        <pt x="185" y="201" on="0"/>
        <pt x="199" y="167" on="1"/>
        <pt x="199" y="127" on="0"/>
        <pt x="154" y="-61" on="0"/>
        <pt x="154" y="-108" on="1"/>
        <pt x="173" y="-167" on="0"/>
        <pt x="230" y="-196" on="1"/>
        <pt x="224" y="-215" on="1"/>
      </contour>
    </TTGlyph>
    <TTGlyph name="braceright" xMin="70" yMin="-215" xMax="256" yMax="711">
      <contour>
        <pt x="126" y="697" on="0"/>
        <pt x="221" y="612" on="0"/>
        <pt x="221" y="522" on="0"/>
        <pt x="184" y="366" on="0"/>
        <pt x="184" y="319" on="1"/>
        <pt x="184" y="297" on="0"/>
        <pt x="230" y="261" on="0"/>
        <pt x="256" y="255" on="1"/>
        <pt x="252" y="236" on="1"/>
        <pt x="227" y="232" on="0"/>
        <pt x="184" y="197" on="0"/>
        <pt x="184" y="177" on="1"/>
        <pt x="184" y="130" on="0"/>
        <pt x="221" y="-26" on="0"/>
        <pt x="221" y="-116" on="0"/>
        <pt x="126" y="-201" on="0"/>
        <pt x="76" y="-215" on="1"/>
        <pt x="70" y="-196" on="1"/>
        <pt x="119" y="-171" on="0"/>
        <pt x="139" y="-108" on="1"/>
        <pt x="139" y="-61" on="0"/>
        <pt x="94" y="127" on="0"/>
        <pt x="94" y="167" on="1"/>
        <pt x="106" y="196" on="0"/>
        <pt x="192" y="246" on="1"/>
        <pt x="192" y="250" on="1"/>
        <pt x="106" y="300" on="0"/>
        <pt x="94" y="329" on="1"/>
        <pt x="94" y="369" on="0"/>
        <pt x="139" y="557" on="0"/>
        <pt x="139" y="604" on="1"/>
        <pt x="118" y="669" on="0"/>
        <pt x="71" y="693" on="1"/>
        <pt x="76" y="711" on="1"/>
      </contour>
    </TTGlyph>
    <TTGlyph name="bracketleft" xMin="81" yMin="-211" xMax="296" yMax="707">
      <contour>
        <pt x="268" y="-196" on="1"/>
        <pt x="150" y="-196" on="0"/>
        <pt x="88" y="-211" on="1"/>
        <pt x="81" y="-206" on="1"/>
        <pt x="91" y="-137" on="0"/>
        <pt x="91" y="633" on="0"/>
        <pt x="81" y="702" on="1"/>
        <pt x="88" y="707" on="1"/>
        <pt x="150" y="692" on="0"/>
        <pt x="268" y="692" on="1"/>
        <pt x="281" y="692" on="0"/>
        <pt x="296" y="692" on="1"/>
        <pt x="296" y="671" on="1"/>
        <pt x="218" y="669" on="0"/>
        <pt x="164" y="654" on="1"/>
        <pt x="164" y="-158" on="1"/>
        <pt x="218" y="-173" on="0"/>
        <pt x="296" y="-175" on="1"/>
        <pt x="296" y="-196" on="1"/>
        <pt x="281" y="-196" on="0"/>
      </contour>
    </TTGlyph>
    <TTGlyph name="bracketright" xMin="30" yMin="-211" xMax="245" yMax="707">
      <contour>
        <pt x="58" y="692" on="1"/>
        <pt x="176" y="692" on="0"/>
        <pt x="238" y="707" on="1"/>
        <pt x="245" y="702" on="1"/>
        <pt x="235" y="633" on="0"/>
        <pt x="235" y="-137" on="0"/>
        <pt x="245" y="-206" on="1"/>
        <pt x="238" y="-211" on="1"/>
        <pt x="176" y="-196" on="0"/>
        <pt x="58" y="-196" on="1"/>
        <pt x="45" y="-196" on="0"/>
        <pt x="30" y="-196" on="1"/>
        <pt x="30" y="-175" on="1"/>
        <pt x="108" y="-173" on="0"/>
        <pt x="162" y="-158" on="1"/>
        <pt x="162" y="654" on="1"/>
        <pt x="108" y="669" on="0"/>
        <pt x="30" y="671" on="1"/>
        <pt x="30" y="692" on="1"/>
        <pt x="45" y="692" on="0"/>
      </contour>
    </TTGlyph>
    <TTGlyph name="brokenbar" xMin="87" yMin="-215" xMax="158" yMax="752">
      <contour>
        <pt x="156" y="340" on="1"/>
        <pt x="101" y="323" on="1"/>
        <pt x="94" y="326" on="1"/>
        <pt x="93" y="508" on="0"/>
        <pt x="87" y="725" on="1"/>
        <pt x="92" y="727" on="0"/>
        <pt x="107" y="732" on="1"/>
        <pt x="144" y="746" on="0"/>
        <pt x="153" y="752" on="1"/>
        <pt x="158" y="751" on="1"/>
        <pt x="156" y="609" on="0"/>
      </contour>
      <contour>
        <pt x="156" y="-198" on="1"/>
        <pt x="101" y="-215" on="1"/>
        <pt x="94" y="-212" on="1"/>
        <pt x="93" y="-30" on="0"/>
        <pt x="87" y="187" on="1"/>
        <pt x="92" y="189" on="0"/>
        <pt x="107" y="194" on="1"/>
        <pt x="144" y="208" on="0"/>
        <pt x="153" y="214" on="1"/>
        <pt x="158" y="213" on="1"/>
        <pt x="156" y="71" on="0"/>
      </contour>
    </TTGlyph>
    <TTGlyph name="bullet" xMin="34" yMin="120" xMax="359" yMax="456">
      <contour>
        <pt x="359" y="302" on="1"/>
        <pt x="359" y="288" on="1"/>
        <pt x="309" y="254" on="0"/>
        <pt x="238" y="175" on="0"/>
        <pt x="207" y="120" on="1"/>
        <pt x="187" y="120" on="1"/>
        <pt x="125" y="229" on="0"/>
        <pt x="34" y="287" on="1"/>
        <pt x="34" y="301" on="1"/>
        <pt x="92" y="342" on="0"/>
        <pt x="159" y="406" on="0"/>
        <pt x="187" y="456" on="1"/>
        <pt x="207" y="456" on="1"/>
        <pt x="235" y="406" on="0"/>
        <pt x="303" y="340" on="0"/>
      </contour>
    </TTGlyph>
    <TTGlyph name="c" xMin="24" yMin="-15" xMax="429" yMax="505">
      <contour>
        <pt x="142" y="-15" on="0"/>
        <pt x="24" y="105" on="0"/>
        <pt x="24" y="296" on="0"/>
        <pt x="165" y="465" on="0"/>
        <pt x="260" y="505" on="1"/>
        <pt x="353" y="505" on="0"/>
        <pt x="429" y="479" on="1"/>
        <pt x="429" y="463" on="1"/>
        <pt x="380" y="419" on="0"/>
        <pt x="349" y="359" on="0"/>
        <pt x="343" y="310" on="1"/>
        <pt x="319" y="310" on="1"/>
        <pt x="316" y="349" on="0"/>
        <pt x="309" y="374" on="1"/>
        <pt x="264" y="417" on="0"/>
        <pt x="202" y="424" on="1"/>
        <pt x="184" y="327" on="0"/>
        <pt x="184" y="247" on="1"/>
        <pt x="184" y="94" on="0"/>
        <pt x="277" y="94" on="1"/>
        <pt x="307" y="94" on="0"/>
        <pt x="369" y="135" on="0"/>
        <pt x="386" y="164" on="1"/>
        <pt x="402" y="156" on="1"/>
        <pt x="343" y="34" on="0"/>
        <pt x="241" y="-15" on="1"/>
      </contour>
    </TTGlyph>
    <TTGlyph name="caron" xMin="0" yMin="527" xMax="432" yMax="747">
      <contour>
        <pt x="231" y="527" on="0"/>
        <pt x="201" y="527" on="0"/>
        <pt x="195" y="529" on="1"/>
        <pt x="126" y="647" on="0"/>
        <pt x="0" y="723" on="1"/>
        <pt x="10" y="747" on="1"/>
        <pt x="216" y="668" on="1"/>
        <pt x="422" y="747" on="1"/>
        <pt x="432" y="723" on="1"/>
        <pt x="306" y="647" on="0"/>
        <pt x="237" y="529" on="1"/>
      </contour>
    </TTGlyph>
    <TTGlyph name="caron.cap" xMin="0" yMin="717" xMax="428" yMax="896">
      <contour>
        <pt x="234" y="717" on="0"/>
        <pt x="194" y="717" on="0"/>
        <pt x="183" y="720" on="1"/>
        <pt x="126" y="805" on="0"/>
        <pt x="0" y="872" on="1"/>
        <pt x="10" y="896" on="1"/>
        <pt x="214" y="834" on="1"/>
        <pt x="418" y="896" on="1"/>
        <pt x="428" y="872" on="1"/>
        <pt x="302" y="805" on="0"/>
        <pt x="245" y="720" on="1"/>
      </contour>
    </TTGlyph>
    <TTGlyph name="ccedilla" xMin="24" yMin="-235" xMax="429" yMax="505">
      <contour>
        <pt x="142" y="-15" on="0"/>
        <pt x="24" y="105" on="0"/>
        <pt x="24" y="296" on="0"/>
        <pt x="165" y="465" on="0"/>
        <pt x="260" y="505" on="1"/>
        <pt x="353" y="505" on="0"/>
        <pt x="429" y="479" on="1"/>
        <pt x="429" y="463" on="1"/>
        <pt x="380" y="419" on="0"/>
        <pt x="349" y="359" on="0"/>
        <pt x="343" y="310" on="1"/>
        <pt x="319" y="310" on="1"/>
        <pt x="316" y="349" on="0"/>
        <pt x="309" y="374" on="1"/>
        <pt x="264" y="417" on="0"/>
        <pt x="202" y="424" on="1"/>
        <pt x="184" y="327" on="0"/>
        <pt x="184" y="247" on="1"/>
        <pt x="184" y="94" on="0"/>
        <pt x="277" y="94" on="1"/>
        <pt x="307" y="94" on="0"/>
        <pt x="369" y="135" on="0"/>
        <pt x="386" y="164" on="1"/>
        <pt x="402" y="156" on="1"/>
        <pt x="343" y="34" on="0"/>
        <pt x="241" y="-15" on="1"/>
      </contour>
      <contour>
        <pt x="205" y="-175" on="1"/>
        <pt x="222" y="-175" on="0"/>
        <pt x="234" y="-170" on="1"/>
        <pt x="240" y="-159" on="0"/>
        <pt x="240" y="-147" on="1"/>
        <pt x="240" y="-107" on="0"/>
        <pt x="151" y="-107" on="1"/>
        <pt x="145" y="-103" on="1"/>
        <pt x="183" y="14" on="1"/>
        <pt x="222" y="16" on="1"/>
        <pt x="199" y="-36" on="1"/>
        <pt x="203" y="-39" on="1"/>
        <pt x="317" y="-39" on="0"/>
        <pt x="317" y="-116" on="1"/>
        <pt x="278" y="-191" on="0"/>
        <pt x="195" y="-235" on="1"/>
        <pt x="141" y="-235" on="0"/>
        <pt x="97" y="-214" on="1"/>
        <pt x="124" y="-173" on="0"/>
        <pt x="133" y="-138" on="1"/>
        <pt x="137" y="-136" on="1"/>
        <pt x="161" y="-175" on="0"/>
      </contour>
    </TTGlyph>
    <TTGlyph name="cedilla" xMin="0" yMin="-235" xMax="220" yMax="16">
      <contour>
        <pt x="108" y="-175" on="1"/>
        <pt x="125" y="-175" on="0"/>
        <pt x="137" y="-170" on="1"/>
        <pt x="143" y="-160" on="0"/>
        <pt x="143" y="-147" on="1"/>
        <pt x="143" y="-107" on="0"/>
        <pt x="54" y="-107" on="1"/>
        <pt x="48" y="-103" on="1"/>
        <pt x="86" y="14" on="1"/>
        <pt x="125" y="16" on="1"/>
        <pt x="102" y="-36" on="1"/>
        <pt x="106" y="-39" on="1"/>
        <pt x="220" y="-39" on="0"/>
        <pt x="220" y="-116" on="1"/>
        <pt x="181" y="-191" on="0"/>
        <pt x="98" y="-235" on="1"/>
        <pt x="44" y="-235" on="0"/>
        <pt x="0" y="-214" on="1"/>
        <pt x="27" y="-173" on="0"/>
        <pt x="36" y="-138" on="1"/>
        <pt x="40" y="-136" on="1"/>
        <pt x="64" y="-175" on="0"/>
      </contour>
    </TTGlyph>
    <TTGlyph name="cent" xMin="62" yMin="-113" xMax="467" yMax="607">
      <contour>
        <pt x="315" y="399" on="1"/>
        <pt x="305" y="109" on="1"/>
        <pt x="315" y="109" on="1"/>
        <pt x="345" y="109" on="0"/>
        <pt x="407" y="150" on="0"/>
        <pt x="424" y="179" on="1"/>
        <pt x="440" y="171" on="1"/>
        <pt x="390" y="66" on="0"/>
        <pt x="302" y="12" on="1"/>
        <pt x="298" y="-112" on="1"/>
        <pt x="292" y="-113" on="1"/>
        <pt x="273" y="-111" on="0"/>
        <pt x="257" y="-97" on="1"/>
        <pt x="263" y="-50" on="0"/>
        <pt x="266" y="0" on="1"/>
        <pt x="171" y="4" on="0"/>
        <pt x="62" y="117" on="0"/>
        <pt x="62" y="299" on="0"/>
        <pt x="191" y="455" on="0"/>
        <pt x="282" y="498" on="1"/>
        <pt x="282" y="521" on="0"/>
        <pt x="280" y="583" on="1"/>
        <pt x="304" y="593" on="0"/>
        <pt x="319" y="607" on="1"/>
        <pt x="325" y="604" on="1"/>
        <pt x="320" y="549" on="0"/>
        <pt x="319" y="504" on="1"/>
        <pt x="404" y="500" on="0"/>
        <pt x="467" y="479" on="1"/>
        <pt x="467" y="463" on="1"/>
        <pt x="418" y="419" on="0"/>
        <pt x="387" y="359" on="0"/>
        <pt x="381" y="310" on="1"/>
        <pt x="357" y="310" on="1"/>
        <pt x="354" y="349" on="0"/>
        <pt x="347" y="374" on="1"/>
        <pt x="326" y="392" on="0"/>
      </contour>
      <contour>
        <pt x="222" y="255" on="1"/>
        <pt x="222" y="145" on="0"/>
        <pt x="272" y="118" on="1"/>
        <pt x="272" y="130" on="0"/>
        <pt x="280" y="349" on="1"/>
        <pt x="282" y="414" on="1"/>
        <pt x="265" y="420" on="0"/>
        <pt x="240" y="424" on="1"/>
        <pt x="222" y="327" on="0"/>
      </contour>
    </TTGlyph>
    <TTGlyph name="circumflex" xMin="0" yMin="527" xMax="432" yMax="747">
      <contour>
        <pt x="201" y="747" on="0"/>
        <pt x="231" y="747" on="0"/>
        <pt x="237" y="745" on="1"/>
        <pt x="306" y="627" on="0"/>
        <pt x="432" y="551" on="1"/>
        <pt x="422" y="527" on="1"/>
        <pt x="216" y="606" on="1"/>
        <pt x="10" y="527" on="1"/>
        <pt x="0" y="551" on="1"/>
        <pt x="126" y="627" on="0"/>
        <pt x="195" y="745" on="1"/>
      </contour>
    </TTGlyph>
    <TTGlyph name="circumflex.cap" xMin="0" yMin="717" xMax="428" yMax="896">
      <contour>
        <pt x="194" y="896" on="0"/>
        <pt x="234" y="896" on="0"/>
        <pt x="245" y="893" on="1"/>
        <pt x="302" y="808" on="0"/>
        <pt x="428" y="741" on="1"/>
        <pt x="418" y="717" on="1"/>
        <pt x="214" y="779" on="1"/>
        <pt x="10" y="717" on="1"/>
        <pt x="0" y="741" on="1"/>
        <pt x="126" y="808" on="0"/>
        <pt x="183" y="893" on="1"/>
      </contour>
    </TTGlyph>
    <TTGlyph name="colon" xMin="34" yMin="-15" xMax="223" yMax="505">
      <contour>
        <pt x="223" y="85" on="1"/>
        <pt x="212" y="63" on="0"/>
        <pt x="152" y="1" on="0"/>
        <pt x="129" y="-15" on="1"/>
        <pt x="106" y="0" on="0"/>
        <pt x="46" y="63" on="0"/>
        <pt x="34" y="85" on="1"/>
        <pt x="47" y="106" on="0"/>
        <pt x="102" y="154" on="0"/>
        <pt x="129" y="166" on="1"/>
        <pt x="153" y="153" on="0"/>
        <pt x="209" y="106" on="0"/>
      </contour>
      <contour>
        <pt x="223" y="424" on="1"/>
        <pt x="212" y="402" on="0"/>
        <pt x="152" y="340" on="0"/>
        <pt x="129" y="324" on="1"/>
        <pt x="106" y="339" on="0"/>
        <pt x="46" y="402" on="0"/>
        <pt x="34" y="424" on="1"/>
        <pt x="47" y="445" on="0"/>
        <pt x="102" y="493" on="0"/>
        <pt x="129" y="505" on="1"/>
        <pt x="153" y="492" on="0"/>
        <pt x="209" y="445" on="0"/>
      </contour>
    </TTGlyph>
    <TTGlyph name="comma" xMin="29" yMin="-169" xMax="223" yMax="166">
      <contour>
        <pt x="223" y="85" on="1"/>
        <pt x="223" y="21" on="0"/>
        <pt x="108" y="-132" on="0"/>
        <pt x="45" y="-169" on="1"/>
        <pt x="29" y="-149" on="1"/>
        <pt x="96" y="-86" on="0"/>
        <pt x="105" y="4" on="1"/>
        <pt x="86" y="20" on="0"/>
        <pt x="43" y="69" on="0"/>
        <pt x="34" y="85" on="1"/>
        <pt x="47" y="106" on="0"/>
        <pt x="102" y="154" on="0"/>
        <pt x="129" y="166" on="1"/>
        <pt x="153" y="153" on="0"/>
        <pt x="209" y="106" on="0"/>
      </contour>
    </TTGlyph>
    <TTGlyph name="commaaccent" xMin="15" yMin="-251" xMax="191" yMax="-34">
      <contour>
        <pt x="191" y="-95" on="1"/>
        <pt x="183" y="-149" on="0"/>
        <pt x="92" y="-236" on="0"/>
        <pt x="25" y="-251" on="1"/>
        <pt x="15" y="-227" on="1"/>
        <pt x="65" y="-199" on="0"/>
        <pt x="79" y="-171" on="1"/>
        <pt x="38" y="-137" on="0"/>
        <pt x="24" y="-95" on="1"/>
        <pt x="37" y="-78" on="0"/>
        <pt x="86" y="-43" on="0"/>
        <pt x="108" y="-34" on="1"/>
        <pt x="161" y="-55" on="0"/>
      </contour>
    </TTGlyph>
    <TTGlyph name="copyright" xMin="42" yMin="-15" xMax="723" yMax="666">
      <contour>
        <pt x="42" y="184" on="0"/>
        <pt x="42" y="466" on="0"/>
        <pt x="241" y="666" on="0"/>
        <pt x="523" y="666" on="0"/>
        <pt x="723" y="466" on="0"/>
        <pt x="723" y="184" on="0"/>
        <pt x="523" y="-15" on="0"/>
        <pt x="241" y="-15" on="0"/>
      </contour>
      <contour>
        <pt x="263" y="615" on="0"/>
        <pt x="95" y="445" on="0"/>
        <pt x="95" y="206" on="0"/>
        <pt x="263" y="36" on="0"/>
        <pt x="501" y="36" on="0"/>
        <pt x="670" y="206" on="0"/>
        <pt x="670" y="444" on="0"/>
        <pt x="501" y="615" on="0"/>
      </contour>
      <contour>
        <pt x="397" y="185" on="1"/>
        <pt x="439" y="185" on="0"/>
        <pt x="489" y="221" on="1"/>
        <pt x="501" y="210" on="1"/>
        <pt x="451" y="146" on="0"/>
        <pt x="378" y="119" on="1"/>
        <pt x="202" y="119" on="0"/>
        <pt x="202" y="287" on="1"/>
        <pt x="202" y="373" on="0"/>
        <pt x="307" y="502" on="0"/>
        <pt x="395" y="531" on="1"/>
        <pt x="460" y="531" on="0"/>
        <pt x="523" y="519" on="1"/>
        <pt x="522" y="501" on="1"/>
        <pt x="506" y="501" on="0"/>
        <pt x="492" y="495" on="1"/>
        <pt x="477" y="451" on="0"/>
        <pt x="477" y="397" on="1"/>
        <pt x="459" y="397" on="1"/>
        <pt x="450" y="425" on="0"/>
        <pt x="449" y="448" on="1"/>
        <pt x="421" y="474" on="0"/>
        <pt x="355" y="474" on="0"/>
        <pt x="344" y="464" on="1"/>
        <pt x="324" y="417" on="0"/>
        <pt x="324" y="334" on="1"/>
        <pt x="324" y="221" on="0"/>
        <pt x="356" y="197" on="1"/>
        <pt x="372" y="185" on="0"/>
      </contour>
    </TTGlyph>
    <TTGlyph name="currency" xMin="25" yMin="63" xMax="569" yMax="568">
      <contour>
        <pt x="425" y="490" on="1"/>
        <pt x="500" y="568" on="1"/>
        <pt x="527" y="559" on="0"/>
        <pt x="567" y="552" on="1"/>
        <pt x="569" y="548" on="1"/>
        <pt x="513" y="498" on="0"/>
        <pt x="466" y="451" on="1"/>
        <pt x="496" y="410" on="0"/>
        <pt x="496" y="350" on="1"/>
        <pt x="496" y="266" on="0"/>
        <pt x="442" y="202" on="1"/>
        <pt x="510" y="136" on="0"/>
        <pt x="569" y="83" on="1"/>
        <pt x="567" y="79" on="1"/>
        <pt x="527" y="72" on="0"/>
        <pt x="500" y="63" on="1"/>
        <pt x="402" y="165" on="1"/>
        <pt x="352" y="129" on="0"/>
        <pt x="289" y="116" on="1"/>
        <pt x="212" y="116" on="0"/>
        <pt x="156" y="149" on="1"/>
        <pt x="68" y="63" on="1"/>
        <pt x="63" y="63" on="1"/>
        <pt x="50" y="76" on="1"/>
        <pt x="26" y="100" on="0"/>
        <pt x="25" y="110" on="1"/>
        <pt x="47" y="129" on="0"/>
        <pt x="113" y="188" on="1"/>
        <pt x="81" y="230" on="0"/>
        <pt x="81" y="286" on="1"/>
        <pt x="81" y="365" on="0"/>
        <pt x="130" y="427" on="1"/>
        <pt x="71" y="481" on="0"/>
        <pt x="25" y="521" on="1"/>
        <pt x="26" y="532" on="0"/>
        <pt x="44" y="549" on="1"/>
        <pt x="63" y="568" on="1"/>
        <pt x="68" y="568" on="1"/>
        <pt x="171" y="468" on="1"/>
        <pt x="223" y="509" on="0"/>
        <pt x="301" y="523" on="1"/>
        <pt x="373" y="523" on="0"/>
      </contour>
      <contour>
        <pt x="406" y="375" on="0"/>
        <pt x="340" y="450" on="0"/>
        <pt x="226" y="450" on="0"/>
        <pt x="199" y="429" on="1"/>
        <pt x="171" y="384" on="0"/>
        <pt x="171" y="266" on="0"/>
        <pt x="238" y="189" on="0"/>
        <pt x="353" y="189" on="0"/>
        <pt x="379" y="209" on="1"/>
        <pt x="406" y="253" on="0"/>
      </contour>
    </TTGlyph>
    <TTGlyph name="d" xMin="24" yMin="-15" xMax="535" yMax="711">
      <contour>
        <pt x="497" y="704" on="1"/>
        <pt x="470" y="578" on="0"/>
        <pt x="470" y="107" on="0"/>
        <pt x="479" y="40" on="1"/>
        <pt x="503" y="29" on="0"/>
        <pt x="535" y="27" on="1"/>
        <pt x="535" y="5" on="1"/>
        <pt x="426" y="5" on="0"/>
        <pt x="314" y="-15" on="1"/>
        <pt x="307" y="-8" on="1"/>
        <pt x="326" y="74" on="0"/>
        <pt x="326" y="159" on="1"/>
        <pt x="316" y="160" on="1"/>
        <pt x="279" y="61" on="0"/>
        <pt x="193" y="-15" on="1"/>
        <pt x="118" y="-15" on="0"/>
        <pt x="24" y="110" on="0"/>
        <pt x="24" y="192" on="1"/>
        <pt x="24" y="292" on="0"/>
        <pt x="164" y="462" on="0"/>
        <pt x="266" y="505" on="1"/>
        <pt x="297" y="505" on="0"/>
        <pt x="333" y="499" on="1"/>
        <pt x="333" y="599" on="0"/>
        <pt x="325" y="656" on="1"/>
        <pt x="301" y="667" on="0"/>
        <pt x="269" y="669" on="1"/>
        <pt x="269" y="691" on="1"/>
        <pt x="378" y="691" on="0"/>
        <pt x="490" y="711" on="1"/>
      </contour>
      <contour>
        <pt x="184" y="238" on="1"/>
        <pt x="184" y="101" on="0"/>
        <pt x="227" y="101" on="1"/>
        <pt x="244" y="101" on="0"/>
        <pt x="295" y="165" on="0"/>
        <pt x="318" y="227" on="1"/>
        <pt x="318" y="354" on="0"/>
        <pt x="314" y="397" on="1"/>
        <pt x="288" y="429" on="0"/>
        <pt x="245" y="429" on="1"/>
        <pt x="222" y="429" on="0"/>
        <pt x="204" y="424" on="1"/>
        <pt x="184" y="345" on="0"/>
      </contour>
    </TTGlyph>
    <TTGlyph name="degree" xMin="45" yMin="396" xMax="322" yMax="667">
      <contour>
        <pt x="125" y="396" on="0"/>
        <pt x="45" y="455" on="0"/>
        <pt x="45" y="570" on="0"/>
        <pt x="128" y="656" on="0"/>
        <pt x="192" y="667" on="1"/>
        <pt x="250" y="667" on="0"/>
        <pt x="322" y="607" on="0"/>
        <pt x="322" y="492" on="0"/>
        <pt x="246" y="409" on="0"/>
        <pt x="184" y="396" on="1"/>
      </contour>
      <contour>
        <pt x="174" y="614" on="1"/>
        <pt x="142" y="614" on="0"/>
        <pt x="127" y="602" on="1"/>
        <pt x="114" y="574" on="0"/>
        <pt x="114" y="497" on="0"/>
        <pt x="154" y="449" on="0"/>
        <pt x="225" y="449" on="0"/>
        <pt x="240" y="461" on="1"/>
        <pt x="253" y="489" on="0"/>
        <pt x="253" y="525" on="1"/>
        <pt x="253" y="614" on="0"/>
      </contour>
    </TTGlyph>
    <TTGlyph name="dieresis" xMin="0" yMin="546" xMax="401" yMax="717">
      <contour>
        <pt x="179" y="641" on="1"/>
        <pt x="169" y="620" on="0"/>
        <pt x="112" y="561" on="0"/>
        <pt x="90" y="546" on="1"/>
        <pt x="68" y="561" on="0"/>
        <pt x="11" y="620" on="0"/>
        <pt x="0" y="641" on="1"/>
        <pt x="12" y="661" on="0"/>
        <pt x="65" y="706" on="0"/>
        <pt x="90" y="717" on="1"/>
        <pt x="113" y="705" on="0"/>
        <pt x="166" y="660" on="0"/>
      </contour>
      <contour>
        <pt x="401" y="641" on="1"/>
        <pt x="391" y="620" on="0"/>
        <pt x="334" y="561" on="0"/>
        <pt x="312" y="546" on="1"/>
        <pt x="290" y="561" on="0"/>
        <pt x="233" y="620" on="0"/>
        <pt x="222" y="641" on="1"/>
        <pt x="234" y="661" on="0"/>
        <pt x="287" y="706" on="0"/>
        <pt x="312" y="717" on="1"/>
        <pt x="335" y="705" on="0"/>
        <pt x="388" y="660" on="0"/>
      </contour>
    </TTGlyph>
    <TTGlyph name="dieresis.cap" xMin="0" yMin="724" xMax="401" yMax="895">
      <contour>
        <pt x="179" y="819" on="1"/>
        <pt x="169" y="798" on="0"/>
        <pt x="112" y="739" on="0"/>
        <pt x="90" y="724" on="1"/>
        <pt x="68" y="739" on="0"/>
        <pt x="11" y="798" on="0"/>
        <pt x="0" y="819" on="1"/>
        <pt x="12" y="839" on="0"/>
        <pt x="65" y="884" on="0"/>
        <pt x="90" y="895" on="1"/>
        <pt x="113" y="883" on="0"/>
        <pt x="166" y="838" on="0"/>
      </contour>
      <contour>
        <pt x="401" y="819" on="1"/>
        <pt x="391" y="798" on="0"/>
        <pt x="334" y="739" on="0"/>
        <pt x="312" y="724" on="1"/>
        <pt x="290" y="739" on="0"/>
        <pt x="233" y="798" on="0"/>
        <pt x="222" y="819" on="1"/>
        <pt x="234" y="839" on="0"/>
        <pt x="287" y="884" on="0"/>
        <pt x="312" y="895" on="1"/>
        <pt x="335" y="883" on="0"/>
        <pt x="388" y="838" on="0"/>
      </contour>
    </TTGlyph>
    <TTGlyph name="divide" xMin="57" yMin="50" xMax="520" yMax="446">
      <contour>
        <pt x="343" y="411" on="0"/>
        <pt x="343" y="369" on="0"/>
        <pt x="309" y="333" on="0"/>
        <pt x="268" y="333" on="0"/>
        <pt x="232" y="370" on="0"/>
        <pt x="232" y="411" on="0"/>
        <pt x="268" y="446" on="0"/>
        <pt x="309" y="446" on="0"/>
      </contour>
      <contour>
        <pt x="343" y="128" on="0"/>
        <pt x="343" y="86" on="0"/>
        <pt x="309" y="50" on="0"/>
        <pt x="268" y="50" on="0"/>
        <pt x="232" y="87" on="0"/>
        <pt x="232" y="128" on="0"/>
        <pt x="268" y="163" on="0"/>
        <pt x="309" y="163" on="0"/>
      </contour>
      <contour>
        <pt x="66" y="290" on="1"/>
        <pt x="236" y="281" on="0"/>
        <pt x="475" y="281" on="0"/>
        <pt x="514" y="284" on="1"/>
        <pt x="520" y="278" on="1"/>
        <pt x="511" y="217" on="1"/>
        <pt x="65" y="217" on="1"/>
        <pt x="57" y="224" on="1"/>
      </contour>
    </TTGlyph>
    <TTGlyph name="dollar" xMin="71" yMin="-113" xMax="468" yMax="606">
      <contour>
        <pt x="280" y="514" on="1"/>
        <pt x="279" y="583" on="1"/>
        <pt x="302" y="593" on="0"/>
        <pt x="318" y="606" on="1"/>
        <pt x="324" y="603" on="1"/>
        <pt x="320" y="564" on="0"/>
        <pt x="317" y="523" on="1"/>
        <pt x="406" y="521" on="0"/>
        <pt x="468" y="499" on="1"/>
        <pt x="468" y="483" on="1"/>
        <pt x="421" y="435" on="0"/>
        <pt x="405" y="375" on="1"/>
        <pt x="395" y="373" on="1"/>
        <pt x="353" y="408" on="0"/>
        <pt x="312" y="425" on="1"/>
        <pt x="309" y="362" on="1"/>
        <pt x="307" y="330" on="1"/>
        <pt x="317" y="326" on="0"/>
        <pt x="353" y="313" on="0"/>
        <pt x="375" y="305" on="0"/>
        <pt x="405" y="293" on="0"/>
        <pt x="423" y="283" on="0"/>
        <pt x="432" y="278" on="1"/>
        <pt x="449" y="267" on="0"/>
        <pt x="449" y="256" on="1"/>
        <pt x="449" y="185" on="0"/>
        <pt x="337" y="42" on="0"/>
        <pt x="262" y="-2" on="1"/>
        <pt x="257" y="-112" on="1"/>
        <pt x="251" y="-113" on="1"/>
        <pt x="231" y="-111" on="0"/>
        <pt x="216" y="-96" on="1"/>
        <pt x="225" y="-15" on="1"/>
        <pt x="137" y="-11" on="0"/>
        <pt x="71" y="8" on="1"/>
        <pt x="71" y="24" on="1"/>
        <pt x="121" y="90" on="0"/>
        <pt x="126" y="187" on="1"/>
        <pt x="150" y="187" on="1"/>
        <pt x="150" y="183" on="0"/>
        <pt x="151" y="174" on="0"/>
        <pt x="152" y="164" on="0"/>
        <pt x="153" y="153" on="0"/>
        <pt x="155" y="144" on="0"/>
        <pt x="157" y="135" on="0"/>
        <pt x="158" y="131" on="1"/>
        <pt x="158" y="124" on="0"/>
        <pt x="160" y="119" on="1"/>
        <pt x="192" y="90" on="0"/>
        <pt x="232" y="77" on="1"/>
        <pt x="238" y="199" on="1"/>
        <pt x="197" y="214" on="0"/>
        <pt x="168" y="224" on="0"/>
        <pt x="138" y="236" on="0"/>
        <pt x="119" y="246" on="0"/>
        <pt x="110" y="252" on="1"/>
        <pt x="93" y="262" on="0"/>
        <pt x="93" y="273" on="1"/>
        <pt x="93" y="338" on="0"/>
        <pt x="210" y="477" on="0"/>
      </contour>
      <contour>
        <pt x="331" y="136" on="1"/>
        <pt x="331" y="159" on="0"/>
        <pt x="272" y="185" on="1"/>
        <pt x="266" y="69" on="1"/>
        <pt x="278" y="69" on="1"/>
        <pt x="304" y="69" on="0"/>
        <pt x="331" y="107" on="0"/>
      </contour>
      <contour>
        <pt x="211" y="395" on="1"/>
        <pt x="211" y="371" on="0"/>
        <pt x="275" y="343" on="1"/>
        <pt x="279" y="436" on="1"/>
        <pt x="267" y="439" on="0"/>
        <pt x="235" y="439" on="0"/>
        <pt x="211" y="414" on="0"/>
      </contour>
    </TTGlyph>
    <TTGlyph name="dotaccentcmb" xMin="0" yMin="541" xMax="189" yMax="722">
      <contour>
        <pt x="189" y="641" on="1"/>
        <pt x="178" y="619" on="0"/>
        <pt x="118" y="557" on="0"/>
        <pt x="95" y="541" on="1"/>
        <pt x="72" y="556" on="0"/>
        <pt x="12" y="619" on="0"/>
        <pt x="0" y="641" on="1"/>
        <pt x="13" y="662" on="0"/>
        <pt x="68" y="710" on="0"/>
        <pt x="95" y="722" on="1"/>
        <pt x="119" y="709" on="0"/>
        <pt x="175" y="662" on="0"/>
      </contour>
    </TTGlyph>
    <TTGlyph name="dotaccentcmb.cap" xMin="0" yMin="714" xMax="189" yMax="895">
      <contour>
        <pt x="189" y="814" on="1"/>
        <pt x="178" y="792" on="0"/>
        <pt x="118" y="730" on="0"/>
        <pt x="95" y="714" on="1"/>
        <pt x="72" y="729" on="0"/>
        <pt x="12" y="792" on="0"/>
        <pt x="0" y="814" on="1"/>
        <pt x="13" y="835" on="0"/>
        <pt x="68" y="883" on="0"/>
        <pt x="95" y="895" on="1"/>
        <pt x="119" y="882" on="0"/>
        <pt x="175" y="835" on="0"/>
      </contour>
    </TTGlyph>
    <TTGlyph name="dotlessi" xMin="17" yMin="-9" xMax="321" yMax="505">
      <contour>
        <pt x="93" y="322" on="1"/>
        <pt x="93" y="384" on="0"/>
        <pt x="85" y="450" on="1"/>
        <pt x="61" y="461" on="0"/>
        <pt x="29" y="463" on="1"/>
        <pt x="29" y="485" on="1"/>
        <pt x="148" y="485" on="0"/>
        <pt x="260" y="505" on="1"/>
        <pt x="267" y="498" on="1"/>
        <pt x="246" y="408" on="0"/>
        <pt x="246" y="78" on="0"/>
        <pt x="255" y="35" on="1"/>
        <pt x="290" y="25" on="0"/>
        <pt x="321" y="11" on="1"/>
        <pt x="318" y="-9" on="1"/>
        <pt x="250" y="0" on="0"/>
        <pt x="71" y="0" on="0"/>
        <pt x="20" y="-7" on="1"/>
        <pt x="17" y="13" on="1"/>
        <pt x="33" y="22" on="0"/>
        <pt x="79" y="38" on="1"/>
        <pt x="93" y="108" on="0"/>
      </contour>
    </TTGlyph>
    <TTGlyph name="dotlessj" xMin="-40" yMin="-215" xMax="251" yMax="505">
      <contour>
        <pt x="77" y="83" on="1"/>
        <pt x="77" y="220" on="1"/>
        <pt x="77" y="384" on="0"/>
        <pt x="69" y="450" on="1"/>
        <pt x="45" y="461" on="0"/>
        <pt x="13" y="463" on="1"/>
        <pt x="13" y="485" on="1"/>
        <pt x="132" y="485" on="0"/>
        <pt x="244" y="505" on="1"/>
        <pt x="251" y="498" on="1"/>
        <pt x="230" y="408" on="0"/>
        <pt x="230" y="114" on="0"/>
        <pt x="247" y="32" on="1"/>
        <pt x="223" y="-35" on="0"/>
        <pt x="53" y="-177" on="0"/>
        <pt x="-29" y="-215" on="1"/>
        <pt x="-40" y="-196" on="1"/>
        <pt x="77" y="-108" on="0"/>
      </contour>
    </TTGlyph>
    <TTGlyph name="e" xMin="24" yMin="-15" xMax="483" yMax="505">
      <contour>
        <pt x="294" y="92" on="1"/>
        <pt x="332" y="92" on="0"/>
        <pt x="406" y="133" on="0"/>
        <pt x="433" y="166" on="1"/>
        <pt x="446" y="155" on="1"/>
        <pt x="384" y="44" on="0"/>
        <pt x="255" y="-15" on="1"/>
        <pt x="149" y="-15" on="0"/>
        <pt x="24" y="101" on="0"/>
        <pt x="24" y="296" on="0"/>
        <pt x="166" y="466" on="0"/>
        <pt x="260" y="505" on="1"/>
        <pt x="442" y="505" on="0"/>
        <pt x="442" y="379" on="1"/>
        <pt x="442" y="347" on="0"/>
        <pt x="433" y="311" on="1"/>
        <pt x="460" y="298" on="0"/>
        <pt x="483" y="297" on="1"/>
        <pt x="482" y="275" on="1"/>
        <pt x="475" y="275" on="0"/>
        <pt x="468" y="275" on="1"/>
        <pt x="340" y="275" on="0"/>
        <pt x="184" y="241" on="1"/>
        <pt x="184" y="167" on="0"/>
        <pt x="231" y="92" on="0"/>
      </contour>
      <contour>
        <pt x="236" y="432" on="1"/>
        <pt x="217" y="432" on="0"/>
        <pt x="201" y="424" on="1"/>
        <pt x="186" y="349" on="0"/>
        <pt x="184" y="268" on="1"/>
        <pt x="234" y="289" on="0"/>
        <pt x="284" y="300" on="1"/>
        <pt x="284" y="378" on="0"/>
        <pt x="266" y="432" on="0"/>
      </contour>
    </TTGlyph>
    <TTGlyph name="eacute" xMin="24" yMin="-15" xMax="483" yMax="747">
      <contour>
        <pt x="294" y="92" on="1"/>
        <pt x="332" y="92" on="0"/>
        <pt x="406" y="133" on="0"/>
        <pt x="433" y="166" on="1"/>
        <pt x="446" y="155" on="1"/>
        <pt x="384" y="44" on="0"/>
        <pt x="255" y="-15" on="1"/>
        <pt x="149" y="-15" on="0"/>
        <pt x="24" y="101" on="0"/>
        <pt x="24" y="296" on="0"/>
        <pt x="166" y="466" on="0"/>
        <pt x="260" y="505" on="1"/>
        <pt x="442" y="505" on="0"/>
        <pt x="442" y="379" on="1"/>
        <pt x="442" y="347" on="0"/>
        <pt x="433" y="311" on="1"/>
        <pt x="460" y="298" on="0"/>
        <pt x="483" y="297" on="1"/>
        <pt x="482" y="275" on="1"/>
        <pt x="475" y="275" on="0"/>
        <pt x="468" y="275" on="1"/>
        <pt x="340" y="275" on="0"/>
        <pt x="184" y="241" on="1"/>
        <pt x="184" y="167" on="0"/>
        <pt x="231" y="92" on="0"/>
      </contour>
      <contour>
        <pt x="236" y="432" on="1"/>
        <pt x="217" y="432" on="0"/>
        <pt x="201" y="424" on="1"/>
        <pt x="186" y="349" on="0"/>
        <pt x="184" y="268" on="1"/>
        <pt x="234" y="289" on="0"/>
        <pt x="284" y="300" on="1"/>
        <pt x="284" y="378" on="0"/>
        <pt x="266" y="432" on="0"/>
      </contour>
      <contour>
        <pt x="387" y="744" on="1"/>
        <pt x="396" y="747" on="0"/>
        <pt x="429" y="747" on="0"/>
        <pt x="435" y="745" on="1"/>
        <pt x="444" y="730" on="0"/>
        <pt x="459" y="651" on="0"/>
        <pt x="460" y="624" on="1"/>
        <pt x="198" y="527" on="1"/>
        <pt x="188" y="551" on="1"/>
        <pt x="313" y="619" on="0"/>
      </contour>
    </TTGlyph>
    <TTGlyph name="ecircumflex" xMin="24" yMin="-15" xMax="490" yMax="747">
      <contour>
        <pt x="294" y="92" on="1"/>
        <pt x="332" y="92" on="0"/>
        <pt x="406" y="133" on="0"/>
        <pt x="433" y="166" on="1"/>
        <pt x="446" y="155" on="1"/>
        <pt x="384" y="44" on="0"/>
        <pt x="255" y="-15" on="1"/>
        <pt x="149" y="-15" on="0"/>
        <pt x="24" y="101" on="0"/>
        <pt x="24" y="296" on="0"/>
        <pt x="166" y="466" on="0"/>
        <pt x="260" y="505" on="1"/>
        <pt x="442" y="505" on="0"/>
        <pt x="442" y="379" on="1"/>
        <pt x="442" y="347" on="0"/>
        <pt x="433" y="311" on="1"/>
        <pt x="460" y="298" on="0"/>
        <pt x="483" y="297" on="1"/>
        <pt x="482" y="275" on="1"/>
        <pt x="475" y="275" on="0"/>
        <pt x="468" y="275" on="1"/>
        <pt x="340" y="275" on="0"/>
        <pt x="184" y="241" on="1"/>
        <pt x="184" y="167" on="0"/>
        <pt x="231" y="92" on="0"/>
      </contour>
      <contour>
        <pt x="236" y="432" on="1"/>
        <pt x="217" y="432" on="0"/>
        <pt x="201" y="424" on="1"/>
        <pt x="186" y="349" on="0"/>
        <pt x="184" y="268" on="1"/>
        <pt x="234" y="289" on="0"/>
        <pt x="284" y="300" on="1"/>
        <pt x="284" y="378" on="0"/>
        <pt x="266" y="432" on="0"/>
      </contour>
      <contour>
        <pt x="259" y="747" on="0"/>
        <pt x="289" y="747" on="0"/>
        <pt x="295" y="745" on="1"/>
        <pt x="364" y="627" on="0"/>
        <pt x="490" y="551" on="1"/>
        <pt x="480" y="527" on="1"/>
        <pt x="274" y="606" on="1"/>
        <pt x="68" y="527" on="1"/>
        <pt x="58" y="551" on="1"/>
        <pt x="184" y="627" on="0"/>
        <pt x="253" y="745" on="1"/>
      </contour>
    </TTGlyph>
    <TTGlyph name="edieresis" xMin="24" yMin="-15" xMax="483" yMax="717">
      <contour>
        <pt x="294" y="92" on="1"/>
        <pt x="332" y="92" on="0"/>
        <pt x="406" y="133" on="0"/>
        <pt x="433" y="166" on="1"/>
        <pt x="446" y="155" on="1"/>
        <pt x="384" y="44" on="0"/>
        <pt x="255" y="-15" on="1"/>
        <pt x="149" y="-15" on="0"/>
        <pt x="24" y="101" on="0"/>
        <pt x="24" y="296" on="0"/>
        <pt x="166" y="466" on="0"/>
        <pt x="260" y="505" on="1"/>
        <pt x="442" y="505" on="0"/>
        <pt x="442" y="379" on="1"/>
        <pt x="442" y="347" on="0"/>
        <pt x="433" y="311" on="1"/>
        <pt x="460" y="298" on="0"/>
        <pt x="483" y="297" on="1"/>
        <pt x="482" y="275" on="1"/>
        <pt x="475" y="275" on="0"/>
        <pt x="468" y="275" on="1"/>
        <pt x="340" y="275" on="0"/>
        <pt x="184" y="241" on="1"/>
        <pt x="184" y="167" on="0"/>
        <pt x="231" y="92" on="0"/>
      </contour>
      <contour>
        <pt x="236" y="432" on="1"/>
        <pt x="217" y="432" on="0"/>
        <pt x="201" y="424" on="1"/>
        <pt x="186" y="349" on="0"/>
        <pt x="184" y="268" on="1"/>
        <pt x="234" y="289" on="0"/>
        <pt x="284" y="300" on="1"/>
        <pt x="284" y="378" on="0"/>
        <pt x="266" y="432" on="0"/>
      </contour>
      <contour>
        <pt x="253" y="641" on="1"/>
        <pt x="243" y="620" on="0"/>
        <pt x="186" y="561" on="0"/>
        <pt x="164" y="546" on="1"/>
        <pt x="142" y="561" on="0"/>
        <pt x="85" y="620" on="0"/>
        <pt x="74" y="641" on="1"/>
        <pt x="86" y="661" on="0"/>
        <pt x="139" y="706" on="0"/>
        <pt x="164" y="717" on="1"/>
        <pt x="187" y="705" on="0"/>
        <pt x="240" y="660" on="0"/>
      </contour>
      <contour>
        <pt x="475" y="641" on="1"/>
        <pt x="465" y="620" on="0"/>
        <pt x="408" y="561" on="0"/>
        <pt x="386" y="546" on="1"/>
        <pt x="364" y="561" on="0"/>
        <pt x="307" y="620" on="0"/>
        <pt x="296" y="641" on="1"/>
        <pt x="308" y="661" on="0"/>
        <pt x="361" y="706" on="0"/>
        <pt x="386" y="717" on="1"/>
        <pt x="409" y="705" on="0"/>
        <pt x="462" y="660" on="0"/>
      </contour>
    </TTGlyph>
</ttFont>
